<svg width="78" height="100" viewBox="0 0 78 100" fill="none" xmlns="http://www.w3.org/2000/svg">
<path d="M35.4128 0H51.8545V75.7044C44.8361 77.1517 37.6926 77.8984 30.528 77.9336C10.4497 77.9127 0 68.9002 0 51.5918C0 34.9251 11.0841 24.0917 28.2639 24.0917C30.6734 24.0445 33.0781 24.3248 35.4128 24.9251V0ZM35.4128 38.0918C33.6254 37.4993 31.7504 37.2175 29.8687 37.2584C21.5753 37.2584 16.7527 42.3543 16.7527 51.2835C16.7527 59.9793 21.3431 64.7794 29.765 64.7794C31.6552 64.7789 33.5428 64.6396 35.4128 64.3627V38.1126V38.0918Z" fill="#44B78B"/>
<path d="M77.9791 25.2456V63.1624C77.9791 76.2166 77.0047 82.4916 74.1517 87.9041C71.2401 93.4075 66.479 97.6939 60.7164 100L45.4648 92.7791C51.0057 90.8727 55.6463 86.9698 58.4896 81.8249C60.8367 77.1541 61.5789 71.7416 61.5789 57.504V25.2456H77.9791Z" fill="#44B78B"/>
<path d="M78 0.0830078H61.5625V16.8664H78V0.0830078Z" fill="#44B78B"/>
</svg>
