<svg width="125" height="50" viewBox="0 0 125 50" fill="none" xmlns="http://www.w3.org/2000/svg">
<rect width="125" height="50" fill="#C9C9C9" fill-opacity="0.8"/>
<path d="M10.6834 33.4271V21.8527H25.2733V21.1759H10.6834V10.6168H26.1959V9.93994H10V34.104H26.3326V33.4271H10.6834ZM39.4875 16.7086L33.4396 24.594L27.5285 16.7086H26.6401L33.0296 25.1017L26.0251 34.104H26.8451L33.4396 25.6093L40.0683 34.104H40.9226L33.8838 25.1017L40.3075 16.7086H39.4875ZM42.9727 40.0603V29.2305H43.041C43.451 30.8099 44.2597 32.079 45.467 33.0379C46.6743 33.9968 48.2118 34.4762 50.0797 34.4762C51.287 34.4762 52.3576 34.2337 53.2916 33.7486C54.2255 33.2635 55.0057 32.6036 55.6321 31.7688C56.2585 30.934 56.7369 29.9638 57.0672 28.8583C57.3975 27.7527 57.5626 26.5908 57.5626 25.3724C57.5626 24.0638 57.3918 22.8568 57.0501 21.7512C56.7084 20.6457 56.213 19.6868 55.5638 18.8745C54.9146 18.0623 54.1287 17.4306 53.2062 16.9793C52.2836 16.5281 51.2415 16.3025 50.0797 16.3025C49.1913 16.3025 48.3656 16.4322 47.6025 16.6917C46.8394 16.9511 46.1617 17.3177 45.5695 17.7916C44.9772 18.2654 44.4647 18.8238 44.0319 19.4668C43.5991 20.1098 43.2688 20.8149 43.041 21.582H42.9727V16.7086H42.2893V40.0603H42.9727ZM50.0797 33.8332C47.9385 33.8332 46.2187 33.1056 44.9203 31.6503C43.6219 30.1951 42.9727 28.1024 42.9727 25.3724C42.9727 24.2443 43.1321 23.1726 43.451 22.1573C43.7699 21.142 44.2312 20.2508 44.8349 19.4837C45.4385 18.7166 46.1845 18.1074 47.0729 17.6562C47.9613 17.2049 48.9636 16.9793 50.0797 16.9793C51.2187 16.9793 52.2153 17.2049 53.0695 17.6562C53.9237 18.1074 54.6298 18.7222 55.1879 19.5006C55.746 20.279 56.1674 21.1702 56.4522 22.1742C56.7369 23.1783 56.8793 24.2443 56.8793 25.3724C56.8793 26.3877 56.7483 27.3974 56.4863 28.4014C56.2244 29.4054 55.82 30.3079 55.2733 31.1088C54.7267 31.9098 54.0262 32.5641 53.172 33.0717C52.3178 33.5794 51.287 33.8332 50.0797 33.8332ZM61.3212 34.104V24.2556C61.3212 23.308 61.4579 22.3829 61.7312 21.4805C62.0046 20.578 62.426 19.7827 62.9954 19.0945C63.5649 18.4064 64.2881 17.8649 65.1651 17.47C66.0421 17.0752 67.0843 16.9116 68.2916 16.9793V16.3025C67.2437 16.2799 66.3269 16.3927 65.541 16.6409C64.7551 16.8891 64.0775 17.2275 63.508 17.6562C62.9385 18.0849 62.4829 18.5869 62.1412 19.1622C61.7995 19.7375 61.549 20.3523 61.3895 21.0067H61.3212V16.7086H60.6378V34.104H61.3212ZM69.1458 25.5416H83.8383C83.8838 24.3458 83.7642 23.1952 83.4795 22.0896C83.1948 20.9841 82.7392 20.0026 82.1128 19.1453C81.4863 18.2879 80.6777 17.5998 79.6868 17.0808C78.6959 16.5619 77.5171 16.3025 76.1503 16.3025C75.1708 16.3025 74.2141 16.5055 73.2802 16.9116C72.3462 17.3178 71.5262 17.91 70.82 18.6884C70.1139 19.4668 69.5444 20.42 69.1116 21.5481C68.6788 22.6763 68.4624 23.9623 68.4624 25.4063C68.4624 26.6923 68.6105 27.8937 68.9066 29.0106C69.2027 30.1274 69.6583 31.0975 70.2733 31.9211C70.8884 32.7446 71.6799 33.382 72.6481 33.8332C73.6162 34.2845 74.7836 34.4988 76.1503 34.4762C78.1549 34.4762 79.8405 33.9178 81.2073 32.801C82.574 31.6842 83.3827 30.1105 83.6333 28.0799H82.9499C82.6538 29.9977 81.8964 31.436 80.6777 32.3949C79.459 33.3538 77.9271 33.8332 76.082 33.8332C74.8292 33.8332 73.7699 33.6189 72.9043 33.1902C72.0387 32.7615 71.3326 32.1749 70.7859 31.4303C70.2392 30.6858 69.8349 29.8115 69.5729 28.8075C69.3109 27.8035 69.1686 26.7149 69.1458 25.5416ZM83.1549 24.8648H69.1458C69.2141 23.6464 69.4419 22.5522 69.8292 21.582C70.2164 20.6118 70.7232 19.7827 71.3497 19.0945C71.9761 18.4064 72.705 17.8818 73.5364 17.5208C74.3679 17.1598 75.262 16.9793 76.2187 16.9793C77.3576 16.9793 78.3599 17.188 79.2255 17.6054C80.0911 18.0228 80.8144 18.5925 81.3952 19.3145C81.9761 20.0365 82.4146 20.8769 82.7107 21.8358C83.0068 22.7947 83.1549 23.8043 83.1549 24.8648ZM98.0182 21.8527H98.7016C98.7016 19.9124 98.1321 18.5023 96.9932 17.6223C95.8542 16.7424 94.3052 16.3025 92.3462 16.3025C91.2528 16.3025 90.3303 16.4378 89.5786 16.7086C88.8269 16.9793 88.2118 17.329 87.7335 17.7577C87.2551 18.1864 86.9134 18.6602 86.7084 19.1791C86.5034 19.6981 86.4009 20.1944 86.4009 20.6682C86.4009 21.6158 86.5718 22.3717 86.9134 22.9357C87.2551 23.4998 87.7904 23.9397 88.5194 24.2556C89.0205 24.4812 89.59 24.6843 90.2278 24.8648C90.8656 25.0453 91.6059 25.237 92.4487 25.4401C93.2005 25.6206 93.9408 25.8011 94.6697 25.9816C95.3986 26.1621 96.0421 26.4046 96.6002 26.7092C97.1583 27.0138 97.6139 27.403 97.967 27.8768C98.32 28.3506 98.4966 28.9711 98.4966 29.7382C98.4966 30.4827 98.32 31.1145 97.967 31.6334C97.6139 32.1523 97.164 32.5754 96.6173 32.9025C96.0706 33.2297 95.4613 33.4666 94.7893 33.6132C94.1173 33.7599 93.4624 33.8332 92.8246 33.8332C90.7517 33.8332 89.1629 33.3763 88.0581 32.4626C86.9533 31.5488 86.4009 30.1105 86.4009 28.1476H85.7175C85.7175 30.3361 86.3155 31.938 87.5114 32.9533C88.7073 33.9686 90.4783 34.4762 92.8246 34.4762C93.5763 34.4762 94.3337 34.3916 95.0968 34.2224C95.8599 34.0532 96.5433 33.7768 97.1469 33.3932C97.7506 33.0097 98.2403 32.5133 98.6162 31.9041C98.992 31.295 99.18 30.5504 99.18 29.6705C99.18 28.8357 99.0148 28.1588 98.6845 27.6399C98.3542 27.121 97.9214 26.6923 97.3861 26.3539C96.8508 26.0154 96.2472 25.7503 95.5752 25.5586C94.9032 25.3668 94.2255 25.1806 93.5421 25.0001C92.5854 24.752 91.7483 24.5376 91.0307 24.3571C90.3132 24.1766 89.6469 23.9623 89.0319 23.7141C88.4396 23.4659 87.967 23.1106 87.6139 22.648C87.2608 22.1855 87.0843 21.5256 87.0843 20.6682C87.0843 20.5103 87.1298 20.2283 87.221 19.8221C87.3121 19.416 87.5285 19.0043 87.8702 18.5869C88.2118 18.1695 88.7358 17.7972 89.4419 17.47C90.1481 17.1429 91.1162 16.9793 92.3462 16.9793C93.1891 16.9793 93.9579 17.0696 94.6526 17.2501C95.3474 17.4306 95.9453 17.7182 96.4465 18.1131C96.9476 18.5079 97.3349 19.0099 97.6082 19.6191C97.8816 20.2283 98.0182 20.9728 98.0182 21.8527ZM113.838 21.8527H114.522C114.522 19.9124 113.952 18.5023 112.813 17.6223C111.674 16.7424 110.125 16.3025 108.166 16.3025C107.073 16.3025 106.15 16.4378 105.399 16.7086C104.647 16.9793 104.032 17.329 103.554 17.7577C103.075 18.1864 102.733 18.6602 102.528 19.1791C102.323 19.6981 102.221 20.1944 102.221 20.6682C102.221 21.6158 102.392 22.3717 102.733 22.9357C103.075 23.4998 103.61 23.9397 104.339 24.2556C104.841 24.4812 105.41 24.6843 106.048 24.8648C106.686 25.0453 107.426 25.237 108.269 25.4401C109.021 25.6206 109.761 25.8011 110.49 25.9816C111.219 26.1621 111.862 26.4046 112.42 26.7092C112.978 27.0138 113.434 27.403 113.787 27.8768C114.14 28.3506 114.317 28.9711 114.317 29.7382C114.317 30.4827 114.14 31.1145 113.787 31.6334C113.434 32.1523 112.984 32.5754 112.437 32.9025C111.891 33.2297 111.281 33.4666 110.609 33.6132C109.937 33.7599 109.282 33.8332 108.645 33.8332C106.572 33.8332 104.983 33.3763 103.878 32.4626C102.773 31.5488 102.221 30.1105 102.221 28.1476H101.538C101.538 30.3361 102.136 31.938 103.331 32.9533C104.527 33.9686 106.298 34.4762 108.645 34.4762C109.396 34.4762 110.154 34.3916 110.917 34.2224C111.68 34.0532 112.363 33.7768 112.967 33.3932C113.571 33.0097 114.06 32.5133 114.436 31.9041C114.812 31.295 115 30.5504 115 29.6705C115 28.8357 114.835 28.1588 114.505 27.6399C114.174 27.121 113.741 26.6923 113.206 26.3539C112.671 26.0154 112.067 25.7503 111.395 25.5586C110.723 25.3668 110.046 25.1806 109.362 25.0001C108.405 24.752 107.568 24.5376 106.851 24.3571C106.133 24.1766 105.467 23.9623 104.852 23.7141C104.26 23.4659 103.787 23.1106 103.434 22.648C103.081 22.1855 102.904 21.5256 102.904 20.6682C102.904 20.5103 102.95 20.2283 103.041 19.8221C103.132 19.416 103.349 19.0043 103.69 18.5869C104.032 18.1695 104.556 17.7972 105.262 17.47C105.968 17.1429 106.936 16.9793 108.166 16.9793C109.009 16.9793 109.778 17.0696 110.473 17.2501C111.167 17.4306 111.765 17.7182 112.267 18.1131C112.768 18.5079 113.155 19.0099 113.428 19.6191C113.702 20.2283 113.838 20.9728 113.838 21.8527Z" fill="#222222"/>
</svg>
