<svg width="66" height="100" viewBox="0 0 66 100" fill="none" xmlns="http://www.w3.org/2000/svg">
<path fill-rule="evenodd" clip-rule="evenodd" d="M33 50.0002C33 40.7956 40.3875 33.3335 49.5 33.3335C58.6125 33.3335 66 40.7956 66 50.0002C66 59.2047 58.6125 66.6668 49.5 66.6668C40.3875 66.6668 33 59.2047 33 50.0002Z" fill="#1ABCFE"/>
<path fill-rule="evenodd" clip-rule="evenodd" d="M0 83.3332C0 74.1286 7.3873 66.6665 16.5 66.6665H33V83.3332C33 92.5378 25.6125 99.9998 16.5 99.9998C7.3873 99.9998 0 92.5378 0 83.3332Z" fill="#0ACF83"/>
<path fill-rule="evenodd" clip-rule="evenodd" d="M33 0V33.3333H49.5C58.6125 33.3333 66 25.8712 66 16.6667C66 7.46192 58.6125 0 49.5 0H33Z" fill="#FF7262"/>
<path fill-rule="evenodd" clip-rule="evenodd" d="M0 16.6667C0 25.8712 7.3873 33.3333 16.5 33.3333H33V0H16.5C7.3873 0 0 7.46192 0 16.6667Z" fill="#F24E1E"/>
<path fill-rule="evenodd" clip-rule="evenodd" d="M0 50.0002C0 59.2047 7.3873 66.6668 16.5 66.6668H33V33.3335H16.5C7.3873 33.3335 0 40.7956 0 50.0002Z" fill="#A259FF"/>
</svg>
