<svg width="110" height="100" viewBox="0 0 110 100" fill="none" xmlns="http://www.w3.org/2000/svg">
<rect width="109.703" height="100" fill="#C9C9C9" fill-opacity="0.8"/>
<path fill-rule="evenodd" clip-rule="evenodd" d="M35.5369 26.9129C35.2268 24.2272 37.6439 25.3656 37.3351 26.9848C36.8815 27.4163 36.0436 27.0624 35.5369 26.9129ZM38.414 26.4092C39.0228 26.3471 39.6031 26.2558 39.7809 25.762C38.9389 25.2429 37.6806 26.5237 38.1983 27.129C38.4856 27.1046 38.2314 26.5388 38.414 26.4092ZM30.3575 28.0637C30.8644 27.828 31.6974 27.917 31.9402 27.4165C30.4312 26.8909 27.7138 27.2789 27.2641 28.2796C28.4144 28.2086 29.3764 27.2957 30.3575 28.0637ZM26.9764 28.3518C26.6495 28.2832 26.5235 28.6544 26.6888 28.8551C26.9442 28.8466 26.9783 28.617 26.9764 28.3518ZM26.185 29.7905C26.139 29.1043 24.4791 28.5565 24.315 29.5028C24.4585 30.0402 25.7974 30.3858 26.185 29.7905ZM23.3798 29.1433C23.037 29.1593 22.8608 29.3438 22.6603 29.5028C22.9211 29.6548 23.499 29.6004 23.3798 29.1433ZM22.5169 31.0852C23.7839 30.9962 24.1696 32.1612 25.2499 32.0203C25.4512 30.7662 22.8739 29.0411 22.5169 31.0852ZM39.6368 37.3431C39.2591 36.0893 40.4159 35.0133 39.7086 34.0339C38.7294 34.112 37.8826 38.6567 39.2771 38.6384C40.2784 38.6245 40.6314 35.8757 40.7155 34.9699C39.9825 35.3867 40.3018 36.8573 39.6368 37.3431ZM27.6239 36.8401C27.6457 36.65 27.5242 36.6037 27.3362 36.6237C27.341 36.8178 27.5005 36.9697 27.6239 36.8401ZM31.1488 38.9261C31.1627 38.4804 31.1451 38.0665 30.7893 37.991C30.5184 37.9603 30.5346 38.2159 30.3575 38.2791C30.4563 38.6593 30.6571 38.9386 31.1488 38.9261ZM27.6959 41.2282C29.0751 41.3834 29.9987 42.3783 31.2926 42.3787C30.2608 41.6841 29.1887 41.03 27.552 40.9403C27.4998 41.1365 27.6948 41.0851 27.6959 41.2282ZM38.5579 42.3071C38.4507 41.8147 38.2371 41.4285 37.9827 41.0839C38.0763 41.5894 38.2053 42.0597 38.5579 42.3071ZM30.645 43.8894C29.7422 42.6813 28.3038 41.6286 26.6888 41.3716C26.9168 43.3013 29.062 43.3152 30.645 43.8894ZM28.1995 44.3207C27.583 43.2831 26.5261 42.6852 25.2499 42.3071C25.9672 43.1985 26.6242 44.527 28.1995 44.3207ZM24.8904 43.3141C25.136 43.7405 25.7533 44.1764 25.6099 44.7527C24.9792 44.5684 24.6725 44.0595 24.0272 43.8896C24.3699 44.3655 25.6777 46.4751 26.4727 46.4077C26.9802 46.3638 27.2097 45.8037 27.1201 44.897C26.7313 44.0623 25.4935 43.694 24.8904 43.3141ZM28.559 45.1844C28.719 45.6241 28.7751 46.1671 29.3506 46.1911C29.2526 45.6899 28.9598 45.3829 28.559 45.1844ZM28.0554 45.4005C27.7872 45.3712 27.6336 45.4573 27.6241 45.6877C27.7047 45.7035 27.7361 45.7674 27.7677 45.8314C27.9977 45.8225 28.0847 45.6687 28.0554 45.4005ZM40.3562 47.0546C40.4312 46.648 40.5073 45.8648 40.3562 45.4719C40.2639 45.876 39.9165 46.785 40.3562 47.0546ZM35.3209 45.5439C35.3759 45.969 35.1703 46.6538 35.5367 46.7674C35.5527 46.4527 35.626 45.7438 35.3209 45.5439ZM38.7017 47.1986C38.493 47.0135 38.1935 47.2932 38.0543 47.1269C37.9072 46.6507 37.9681 45.9666 37.5509 45.76C37.5033 45.76 37.455 45.76 37.4073 45.76C36.8148 46.987 36.8733 49.6231 37.9105 50.2914C38.1064 50.6234 38.1256 51.1318 38.6299 51.1551C39.0445 50.826 39.1464 50.1854 39.2055 49.5001C38.3052 49.311 39.1439 47.7591 38.7017 47.1986ZM40.86 47.9894C40.9487 47.3525 41.4932 46.4262 41.0757 45.76C40.9379 46.3904 40.6771 47.2788 40.86 47.9894ZM28.1995 48.5657C28.3142 48.2369 28.2241 47.6792 27.9836 47.4864C27.8158 47.8014 27.7182 48.5267 28.1995 48.5657ZM29.4942 48.853C29.7847 49.0421 29.807 49.499 30.2137 49.5724C30.7198 48.9264 29.7598 47.7878 29.4942 48.853ZM41.7949 50.2914C41.7955 50.5119 41.5065 50.8135 41.7231 51.0106C41.7648 50.8325 41.9837 50.4617 41.7949 50.2914ZM42.4422 53.097C42.4392 52.7648 42.4827 52.386 42.2986 52.2342C42.2663 52.4903 42.0765 53.0575 42.4422 53.097ZM33.3068 56.0468C33.3494 56.3146 33.3931 56.5834 33.6663 56.622C33.8427 56.3752 33.7124 55.9381 33.3068 56.0468ZM36.5438 56.4066C36.6438 56.5966 36.9314 56.9738 37.119 56.8374C36.9526 56.7147 36.7606 56.2404 36.5438 56.4066ZM43.3773 57.198C43.1752 58.0544 43.6536 58.8347 44.0249 59.3559C44.1769 58.5209 44.1627 57.3251 43.3773 57.198ZM45.1761 62.7358C45.2847 62.5183 45.3232 61.8481 45.1041 61.7299C44.9147 61.9897 44.7458 62.6117 45.1761 62.7358ZM48.4124 66.1894C48.3083 65.6609 47.8942 65.09 47.4776 65.1098C47.6233 65.6352 47.6486 66.2821 48.4124 66.1894ZM49.0605 67.1962C49.0635 67.529 49.0203 67.9087 49.2041 68.059C49.2134 67.7151 49.2084 67.3836 49.0605 67.1962ZM25.3219 67.2683C25.3229 67.5318 25.4639 67.6538 25.6099 67.7719C25.5811 67.5362 25.5474 67.3071 25.3219 67.2683ZM51.6501 71.2242C51.4729 69.8677 50.7595 69.0467 49.8518 68.4195C49.9817 69.8233 50.6697 70.6709 51.6501 71.2242ZM63.2317 78.3461C63.1879 78.3054 62.89 78.1783 62.8718 78.3461C62.9799 78.4293 63.1748 78.5987 63.2317 78.3461ZM99.7025 83.6692C99.7025 83.9336 99.7025 84.1964 99.7025 84.4606C99.5856 84.7037 99.5477 85.025 99.4864 85.3236C97.4861 86.6082 93.7281 86.1353 92.077 87.7697C89.181 86.2097 86.4896 88.6669 83.4455 88.9211C82.9426 88.9625 82.3833 88.8788 81.862 88.9211C80.0634 89.0663 78.3069 89.4869 76.4674 89.6401C74.5812 89.7972 72.6911 89.9124 70.7129 90C69.993 90 69.2742 90 68.555 90C59.633 89.5315 50.8117 88.3313 44.241 85.3959C40.9652 83.9322 37.9499 82.1366 35.1773 80.0006C32.4793 77.923 29.7097 75.6132 27.7677 73.0233C25.7002 70.2653 23.6316 67.5834 21.7972 64.5355C20.0275 61.5935 18.3734 58.4947 16.9058 55.0397C15.4581 51.6327 14.4267 48.2615 13.4526 44.1057C12.8159 41.3876 12.1439 38.3101 11.0069 35.7614C10.5642 34.7689 10.0488 33.9565 10 33.0275C10 32.8121 10 32.5957 10 32.3803C10.3548 29.3589 12.7046 27.605 15.4669 26.7691C16.1586 26.56 16.8311 26.3603 17.4811 25.9778C17.5234 25.9534 17.9379 25.911 17.7692 25.6902C16.5384 25.3941 15.5259 27.206 14.1725 26.6973C12.9709 26.2455 13.6627 24.3851 14.9638 23.82C15.5712 23.5561 16.7772 23.4875 17.3373 23.1726C18.3032 22.6298 18.7415 21.483 18.5605 20.439C18.4532 19.8222 17.813 19.4974 17.8411 19.0003C17.8804 18.3071 19.12 17.7043 19.7112 17.2738C20.4346 16.7474 21.2909 16.0898 21.2219 15.2597C21.1492 14.3925 20.1293 14.1162 19.6392 13.4614C18.8698 12.4338 18.7478 10.8978 19.9987 10.2959C21.3102 9.66478 23.7536 10.0087 24.0272 11.6628C24.2684 13.1207 23.2334 13.6761 23.6672 14.7559C24.4754 16.7651 30.7607 13.5846 29.2066 17.7773C30.5888 19.944 35.9905 18.0905 36.1123 21.5179C38.3652 21.5632 39.4005 23.2728 41.2195 23.9638C41.707 24.1488 42.2875 24.1488 42.8022 24.3233C45.87 25.366 49.6715 26.4845 50.9307 29.4307C49.7928 30.1973 48.24 29.684 46.9027 29.2149C45.7394 28.8064 44.0436 27.9975 42.8742 28.4954C41.7147 28.9892 41.7767 30.9702 41.9391 32.955C42.3709 38.2392 42.6242 43.6896 43.3775 48.421C44.4295 55.0255 46.6782 60.3151 49.852 64.4628C52.9222 68.4755 56.5291 72.6775 61.2171 75.6129C65.173 78.0889 69.6174 80.0425 75.2447 81.2952C76.0793 81.4815 77.0881 81.888 77.5464 81.7988C78.226 81.6682 79.6882 79.6921 80.2087 79.2096C81.4461 78.0591 83.1111 76.4494 84.8836 77.8423C84.6427 79.7601 82.9244 80.2003 82.5097 81.9433C83.5754 82.6214 84.7056 82.0076 86.035 82.0864C87.5818 82.1784 88.768 83.0654 90.0638 82.8777C90.8908 82.758 91.3047 82.142 91.9339 81.7272C93.3632 83.8167 98.8738 81.0967 99.7025 83.6692ZM84.0921 78.3461C84.0615 78.114 84.187 77.7241 83.9485 77.6994C83.741 77.8045 83.5359 78.4658 84.0921 78.3461ZM47.9098 27.7042C48.6144 28.1262 49.2348 28.6332 49.8518 29.1435C50.2233 28.0497 49.1572 27.35 47.9098 27.4167C47.9098 27.5122 47.9098 27.6082 47.9098 27.7042ZM67.26 80.72C67.5344 80.7777 67.7329 80.8325 67.7636 80.5046C67.5073 80.4879 67.333 80.5521 67.26 80.72ZM57.3327 74.3894C57.3085 74.7282 57.9919 74.7347 58.1248 74.6771C58.0123 74.4522 57.6713 74.1603 57.3327 74.3894ZM55.6063 73.0229C55.726 73.1441 56.0288 73.0798 56.2537 73.0951C56.2777 72.8316 56.1733 72.6952 56.1099 72.5191C55.7318 72.4777 55.6273 72.7082 55.6063 73.0229ZM41.7949 43.6013C41.5997 43.436 41.4581 43.739 41.3633 43.6013C41.5976 41.8168 41.9742 39.0692 41.2195 37.5595C41.0329 37.3966 40.7376 37.6167 40.6443 37.4872C41.1465 36.2882 41.4856 33.7876 41.2915 32.308C41.2232 31.7865 40.9523 30.8589 40.6443 30.6535C39.8701 30.1381 39.1657 30.9302 38.6297 31.0852C38.2925 31.1835 37.9176 31.1133 37.5509 31.1568C36.1003 31.3316 34.5612 31.7642 33.5947 32.2357C34.0985 32.5715 34.8126 32.6963 35.033 33.3145C33.7797 33.2259 32.8019 32.8611 31.7239 32.5955C31.8389 34.2184 29.8486 33.7099 28.631 33.8187C29.0516 33.8278 29.119 34.0311 29.1346 34.322C29.1847 35.2768 26.0428 36.4083 24.9624 35.6893C23.4213 36.9318 25.6405 38.2009 25.5378 39.7896C25.2348 40.0141 25.0949 40.4014 24.8184 40.652C23.2868 40.6893 21.6759 40.9973 21.9406 42.5946C21.7336 42.4738 21.4071 42.3933 21.1492 42.5223C20.7578 43.5308 21.415 44.6254 22.3006 44.8247C22.5237 44.7597 22.5757 44.5243 22.876 44.537C24.8765 44.9195 25.5808 46.2462 25.4658 48.7805C25.4458 49.2169 25.4892 49.7864 25.1781 50.0759C24.0429 49.9981 22.9903 47.1961 24.8182 47.1268C24.3799 46.4818 24.048 45.5197 23.2355 45.5437C22.3043 45.5714 21.8863 47.0432 21.2214 47.5581C22.1798 48.0877 24.4308 49.5492 22.588 50.5073C23.5003 50.6441 24.0093 51.0059 24.3862 51.5139C25.0143 52.3621 24.9943 53.6331 25.4655 54.32C26.4188 55.7106 26.9221 53.0725 28.0547 54.1755C28.3222 54.2675 27.9369 53.9157 27.9109 53.8885C26.9393 52.8394 25.4574 51.9796 24.8899 50.7233C25.3261 50.5233 25.9108 50.7415 26.3283 50.7949C26.4933 49.9498 25.9061 48.9935 26.1125 48.3485C26.2612 47.8861 26.5356 48.0898 26.8321 47.9174C27.0064 47.8159 26.87 47.4382 27.1919 47.5579C27.19 48.5455 26.5949 50.2075 27.2634 50.9387C28.2396 51.1138 28.5215 49.4351 29.3499 49.4281C29.8126 49.4241 30.2499 50.2386 30.5725 50.6509C30.9601 51.1458 31.4869 51.7539 31.3639 52.3051C31.1048 53.4672 29.1531 52.5824 28.4865 52.0892C28.8928 53.7017 31.3923 53.952 31.5076 56.0464C31.5208 56.2801 31.4028 56.5785 31.4358 56.8371C31.5771 57.9423 32.6078 58.7636 33.6656 58.0606C33.8211 58.457 33.8415 58.9883 34.2415 59.1395C34.5919 58.8432 34.4675 58.0706 34.6728 57.6284C35.928 57.8912 36.5833 58.4956 36.9745 59.4986C37.1683 59.9949 37.1183 60.9147 37.9097 60.9374C38.0308 59.711 37.0699 58.9511 36.9029 57.7722C37.5477 58.8124 39.8735 59.938 39.7804 61.585C39.7186 62.6712 38.4277 62.7893 37.1906 62.9515C38.3696 63.3567 38.8634 64.6771 40.1399 65.1093C40.4829 65.2262 40.9236 65.1262 41.2908 65.2538C42.2248 65.5787 43.7184 67.4935 43.3053 68.7067C41.315 69.7098 39.7622 66.9987 37.5503 67.0526C38.483 68.2417 40.0086 68.6374 41.291 69.2105C42.6711 69.8267 44.0529 70.4579 45.3913 71.0806C48.5461 72.5479 50.736 74.4678 52.8007 76.9073C51.3681 77.6885 47.0259 76.3891 49.6355 75.4679C48.7278 75.4372 47.7671 74.8679 46.9736 75.1811C47.3942 77.9258 51.0055 77.4798 53.7359 77.9141C53.4873 78.3849 53.1369 78.7542 52.8724 79.2091C53.0828 79.3332 53.3737 79.3785 53.7359 79.3528C53.561 79.6332 53.1058 79.6339 53.0881 80.0718C53.4378 80.5376 54.13 80.661 54.5988 81.007C56.4475 79.6813 56.6548 82.6888 57.8358 82.7334C58.9519 82.775 59.1659 81.1713 60.2822 81.007C60.0017 81.5903 59.4528 81.9042 59.2033 82.518C60.2962 82.2538 60.6078 81.6654 61.5041 81.4384C64.7162 80.6259 67.3494 83.3013 69.9925 83.5971C70.9429 83.7029 71.8876 84.2366 72.7262 84.3884C73.8104 84.584 74.4769 84.2271 75.3156 83.8132C74.0382 82.6204 71.1051 83.0849 70.0648 81.6545C70.105 81.4072 70.2742 81.2889 70.4247 81.1516C67.0578 81.8912 64.9379 79.8735 63.5188 77.9864C59.3652 76.9135 55.7211 75.3299 53.9511 71.8721C53.8661 71.5465 54.27 71.7115 54.1675 71.3683C52.7072 69.7433 51.2475 68.0935 50.0672 66.1889C49.6592 65.5313 49.38 64.7049 48.916 64.1749C48.6221 63.8391 48.129 63.6542 47.8371 63.3112C47.5174 62.9352 47.4739 62.4644 46.9734 62.3047C46.781 62.5915 46.9101 63.1996 46.7581 63.5273C46.4121 62.1383 45.6413 60.8191 44.1685 60.7936C44.1411 59.7834 44.9572 59.6169 45.3911 59.0671C44.8199 58.3803 44.6823 57.5152 44.3842 56.4779C43.6596 53.9573 43.0608 51.3241 42.4416 48.9963C41.6212 49.3026 41.4037 50.2121 41.0032 50.9387C41.0427 49.8994 41.0914 48.8687 41.6508 48.3485C41.9066 48.3807 41.9347 48.6406 42.0821 48.7804C42.2173 48.2902 42.6811 47.8331 42.4416 47.198C42.2559 46.9112 41.713 47.0449 41.5788 47.0543C41.9338 46.1855 42.2319 44.6088 41.7949 43.6013ZM70.7127 86.2594C71.3347 85.9936 71.8945 85.6666 72.1508 85.0358C71.4748 85.2052 70.5216 85.4606 70.7127 86.2594ZM70.7844 84.8204C70.3683 85.0509 69.9003 85.2314 69.6339 85.6118C70.2302 85.6474 70.9288 85.0488 70.7844 84.8204ZM68.5548 85.8993C68.9621 85.7907 69.3979 85.3701 69.3461 85.0358C68.8732 85.0832 68.1417 85.4205 68.5548 85.8993ZM68.8425 84.2445C68.1951 84.04 67.6666 84.5468 67.619 85.1803C68.1958 85.0372 68.5862 84.7081 68.8425 84.2445ZM66.8278 84.389C66.1955 84.4992 65.7226 84.7685 65.5328 85.3234C66.3058 85.63 66.7014 84.9658 66.8278 84.389ZM65.8211 86.2594C65.9993 86.2695 66.1699 86.2724 66.1809 86.1149C66.073 86.0008 65.7707 86.0096 65.8211 86.2594ZM66.9723 83.1656C65.9657 83.0884 64.7619 83.7416 65.3896 84.6044C66.0598 84.2671 66.7386 83.9394 66.9723 83.1656ZM62.0083 84.5329C62.6369 84.6212 62.8012 83.9022 63.2318 84.0284C63.4816 84.186 63.3298 84.746 63.7348 84.7483C64.6757 84.557 65.0145 83.273 64.454 82.3744C63.1858 82.5976 62.0257 83.2955 62.0083 84.5329ZM62.2958 82.6625C61.914 82.8559 61.5075 83.0239 61.2893 83.3815C61.7599 83.3612 62.4608 82.8421 62.2958 82.6625ZM60.2825 83.0224C60.3227 83.2137 59.9862 83.3882 60.2095 83.5253C60.2694 83.4349 60.6477 83.0792 60.2825 83.0224ZM58.9876 84.7481C58.9649 84.8461 58.8847 84.8854 58.9161 85.0358C59.0111 85.0358 59.1075 85.0358 59.2038 85.0358C59.2233 84.8475 59.1766 84.7269 58.9876 84.7481ZM57.9087 84.389C57.5451 84.4093 57.4077 84.6554 57.4049 85.0358C57.718 84.9663 58.0035 84.8678 57.9087 84.389ZM50.6425 80.72C50.1992 80.7005 50.064 80.7689 50.571 80.8646C51.0539 80.9536 51.9058 81.0003 52.2257 80.8646C51.846 80.8602 50.8649 80.7303 50.6425 80.72ZM52.8011 79.5694C52.4247 79.2833 51.6682 79.4906 51.2906 79.6411C51.5084 80.2397 52.5782 79.9739 52.8011 79.5694ZM50.4996 84.9642C52.2936 85.9044 54.7638 86.9308 57.3327 86.6185C55.466 85.7045 52.69 85.3146 50.4996 84.9642ZM47.8376 84.1729C48.0095 84.4088 48.4153 84.4102 48.7004 84.5329C49.2314 84.0196 48.0643 83.7305 47.8376 84.1729ZM41.0756 78.3461C40.59 78.3884 40.0616 78.387 39.9247 78.7783C40.3873 78.9498 41.0566 78.8432 41.0756 78.3461ZM39.7086 80.2163C39.8777 80.3696 40.1886 80.5521 40.2842 80.2163C40.2098 80.1403 39.7708 80.0682 39.7086 80.2163ZM40.5719 74.1018C40.6372 73.8011 40.0644 73.6874 39.9967 73.9582C40.1543 74.0397 40.2909 74.1434 40.5719 74.1018ZM41.5074 76.5473C41.5039 76.4487 41.5413 76.3897 41.5792 76.3319C41.3649 76.1106 40.9315 76.0712 40.5719 76.1881C40.6295 76.5341 41.2056 76.6786 41.5074 76.5473ZM41.5794 81.1521C41.6714 81.2501 41.9189 81.2501 42.0109 81.1521C42.0447 80.9259 41.921 80.8579 41.7951 80.7916C41.7305 80.9194 41.6213 81.0017 41.5794 81.1521ZM43.8095 72.8792C43.5751 72.2018 42.811 72.3805 42.2986 72.16C41.4751 71.8052 40.7721 70.9584 39.7088 70.9373C39.661 70.9373 39.6128 70.9373 39.5654 70.9373C40.4901 72.0271 41.714 73.1981 43.8095 72.8792ZM40.0685 70.2183C39.397 69.7621 38.6615 69.3701 37.6946 69.211C38.002 69.9825 39.1985 70.2483 40.0685 70.2183ZM42.2984 73.5982C42.8027 74.1253 43.4357 74.5238 44.5285 74.4612C44.1084 73.8975 43.1047 73.5361 42.2984 73.5982ZM45.0319 76.8357C44.2913 76.3224 43.1264 75.4897 42.1546 75.6843C42.7167 76.4174 43.8467 76.9663 45.0319 76.8357ZM42.2984 79.5694C42.281 79.6718 42.1801 79.69 42.1546 79.7841C42.3319 80.0155 42.5988 79.6177 42.2984 79.5694ZM43.9529 81.7274C44.014 82.0018 44.2782 82.0734 44.5285 82.1589C44.6259 81.9925 44.8174 81.9201 44.7442 81.5836C44.5694 81.4785 43.9406 81.4179 43.9529 81.7274ZM45.3198 78.5622C45.0971 78.4258 44.2847 78.2732 44.0967 78.5622C44.4456 78.7038 45.1311 79.0704 45.3198 78.5622ZM45.5356 76.1158C45.6075 75.5808 45.0023 75.5785 44.7442 75.756C44.7685 76.1158 45.2445 76.024 45.5356 76.1158ZM46.3267 72.2316C46.0018 71.741 45.0994 71.8285 44.4565 71.6563C43.9857 71.0651 42.86 70.8504 41.8669 71.0089C43.0043 71.7666 44.2978 72.3666 46.3267 72.2316ZM46.183 79.1373C46.4919 79.4039 46.9763 79.495 47.4058 79.6411C47.4288 79.4717 47.5192 79.3709 47.4776 79.1373C47.2682 78.8957 46.3594 78.7709 46.183 79.1373ZM40.0685 67.4837C40.1405 67.1481 39.943 67.0822 39.6368 67.1245C39.5283 67.4969 39.8871 67.4012 40.0685 67.4837ZM41.7949 68.3474C41.5848 68.294 41.6556 67.9598 41.3633 67.9875C41.0982 68.2306 41.5757 68.6007 41.7949 68.3474ZM36.8315 68.851C36.5927 68.3231 36.0547 68.0934 35.6806 67.6998C36.3821 66.6836 34.817 66.2675 34.5296 65.5418C34.5263 65.3229 34.6814 65.2622 34.7453 65.1097C34.1409 64.7556 33.443 64.4944 33.0907 63.8877C33.3689 63.6864 34.1106 63.9476 34.3853 63.7432C33.9496 63.5556 33.4791 63.403 33.3064 62.9519C33.5587 62.3649 34.5842 62.5518 34.817 61.9452C33.5778 61.6715 32.3467 61.013 31.0042 61.0817C31.0194 61.5941 31.4755 61.6655 31.6516 62.0168C31.2536 61.84 30.9317 61.5853 30.3569 61.5853C30.3139 61.9401 30.5437 62.0219 30.5011 62.3766C30.1087 62.4088 29.9098 62.2483 29.4936 62.3052C29.7903 62.9672 30.5511 63.1657 30.7888 63.8879C30.4946 63.9623 30.0952 63.771 29.9974 63.8879C30.7568 64.5186 31.8659 65.1836 32.299 65.9012C31.5924 65.7699 31.188 65.3347 30.5011 65.1822C31.0761 66.3209 32.4765 66.5582 33.5222 67.1245C34.5926 67.704 35.5518 68.6386 36.8315 68.851ZM35.2488 69.714C35.5495 69.8783 36.1481 70.4 36.5438 70.0024C36.2102 69.8546 35.6855 69.5189 35.2488 69.714ZM34.6735 69.3539C34.4711 69.0262 33.4384 68.8517 33.1632 69.0662C33.6326 69.2014 34.0749 69.5656 34.6735 69.3539ZM33.3786 69.57C33.3559 69.6678 33.2764 69.7071 33.3068 69.8584C33.4333 69.8168 33.7293 69.9445 33.7384 69.7861C33.6268 69.7059 33.5883 69.5525 33.3786 69.57ZM32.4434 60.0026C32.2472 59.3266 31.9851 58.5858 31.4365 58.0608C31.1411 57.7776 30.855 57.7834 30.6452 57.4125C30.0892 56.4344 30.3557 55.0534 29.6381 54.0326C29.4684 53.9773 29.141 53.8902 28.9907 54.0326C29.0042 54.5043 30.0989 55.6227 29.3507 56.1905C27.6964 56.2562 27.0596 54.9393 25.4663 55.1831C25.1075 56.1124 26.376 56.5899 26.0414 57.2696C28.3298 58.0041 30.1472 59.5954 32.4434 60.0026ZM27.2641 62.1606C27.6868 62.4825 28.2978 62.9972 28.8468 62.9519C28.4119 62.6438 28.0119 61.9183 27.2641 62.1606ZM26.4727 61.5139C26.2861 60.9333 25.9626 60.4896 25.2499 60.435C25.3949 61.0567 26.0706 61.1489 26.4727 61.5139ZM25.2499 63.3841C25.635 63.6476 26.0175 64.2936 26.4009 64.3192C26.1206 63.952 25.779 63.2637 25.2499 63.3841ZM25.7537 58.4201C25.7909 58.3135 25.8597 58.2391 25.8975 58.1324C25.713 57.8784 25.2581 58.0171 25.1783 58.2769C25.3198 58.3748 25.589 58.3457 25.7537 58.4201ZM36.9036 61.2976C36.8934 60.6786 36.2058 60.3195 35.6806 60.6507C35.847 61.1078 36.3486 61.2291 36.9036 61.2976ZM30.1412 51.875C30.1533 51.756 29.6983 51.756 29.7099 51.875C29.8086 51.8968 30.1438 52.1998 30.1412 51.875ZM27.3364 51.5866C27.2404 51.5866 27.1443 51.5866 27.0483 51.5866C26.9495 51.6791 26.9772 51.8997 26.9764 52.0895C27.1078 52.1092 27.3798 52.3493 27.4802 52.1624C27.3022 52.0997 27.5009 51.6617 27.3364 51.5866ZM21.9407 51.5143C22.1791 52.0567 23.1441 52.0165 23.3077 51.4428C22.8983 51.2843 22.2953 51.3945 21.9407 51.5143ZM22.157 49.5001C21.8788 49.4862 21.6267 49.4978 21.4371 49.5724C21.4931 49.8863 22.1551 49.8305 22.157 49.5001ZM22.8041 37.919C22.4344 38.0898 21.6634 37.7479 21.2937 37.919C21.6211 39.2151 24.0476 38.5173 23.8835 37.4872C23.7441 36.6133 21.4366 36.8298 20.6463 36.9119C21.2588 37.3543 22.2323 37.4358 22.8041 37.919ZM19.9269 39.2856C20.0623 39.4861 20.4342 39.4496 20.6463 39.5733C20.6879 39.4234 20.8248 39.3683 20.7901 39.1419C20.6014 39.0421 19.9224 38.9637 19.9269 39.2856ZM23.5958 38.9981C23.557 39.155 23.4213 39.4634 23.6672 39.5017C23.8385 39.3809 23.8027 39.1024 23.5958 38.9981ZM25.6099 34.6818C25.591 34.4715 25.7723 34.4614 25.7537 34.2504C25.4612 34.2218 25.2522 34.2765 25.2499 34.5379C25.3868 34.5692 25.4305 34.6929 25.6099 34.6818ZM25.538 18.7124C25.2515 20.4678 26.8331 22.5914 28.7028 21.9492C28.7901 21.2867 28.4878 21.0138 28.4871 20.4389C28.9642 20.3232 29.2451 20.7814 29.494 20.6546C28.7943 19.3884 26.933 19.2836 25.538 18.7124ZM24.7463 17.0579C25.3786 17.1831 26.3709 17.1197 26.6168 16.6263C26.1392 16.3071 24.7061 16.2216 24.7463 17.0579ZM23.0198 12.0223C23.1581 10.6252 21.4508 9.85313 20.4306 10.7997C19.7928 11.3909 19.5158 12.8187 20.5024 13.3175C20.3904 12.9495 20.0633 12.7973 20.1428 12.2386C20.8926 11.8099 22.2673 12.4477 23.0198 12.0223ZM22.5169 16.6261C22.6998 16.5216 22.9745 16.5092 22.9484 16.1946C22.7272 16.2169 22.3503 16.4553 22.5169 16.6261ZM21.0058 21.9492C21.9028 21.9705 22.5792 21.4646 23.4516 21.446C24.2068 21.43 24.9265 21.6547 25.8255 21.5897C25.1835 19.7056 22.0643 21.351 21.0058 21.9492ZM19.6392 25.2584C21.3365 25.0426 23.7013 23.9258 25.9694 24.1795C26.825 24.275 27.5744 24.7565 28.0554 25.1146C27.8102 24.8529 27.5197 23.7787 28.0554 23.6042C29.2359 23.8291 29.2753 26.0596 30.717 25.7622C31.4515 25.6107 31.6751 24.186 31.2926 23.3164C31.8415 23.7026 32.1243 24.3549 32.8753 24.5394C32.704 23.8474 32.2059 23.4821 31.8684 22.9567C32.0804 22.6895 32.3581 22.4873 32.2997 21.9492C30.2411 21.7514 28.4139 22.8626 26.4729 23.2442C24.9666 23.5409 23.8456 23.8347 22.5171 24.1793C21.5182 24.4383 20.4069 24.6199 19.6392 25.2584ZM13.5967 40.1491C13.4979 40.2408 13.4714 40.5788 13.6685 40.5806C13.7276 40.5285 13.8616 40.0828 13.5967 40.1491ZM16.114 31.589C12.9596 32.0894 16.3218 35.4441 18.2005 34.6104C18.4383 34.2451 18.3644 33.9103 18.3442 33.3869C19.4387 33.4941 20.2622 32.961 21.2219 33.1715C21.3767 33.5059 21.0839 33.789 21.006 34.1062C24.2698 33.8993 25.8859 31.3348 29.422 30.9414C29.8614 30.8924 30.3622 30.9702 30.8611 30.9414C32.3502 30.8545 33.9998 30.5785 35.5369 30.2938C37.0449 30.0151 38.4238 29.4605 39.7088 29.1433C41.3215 28.7447 43.7749 27.6914 43.4498 25.5463C43.4126 25.3021 43.2432 25.0827 43.0899 24.8269C34.5175 23.998 28.1081 27.3586 21.3658 28.7115C20.5559 28.8739 19.5711 28.7659 18.9198 29.4305C19.1554 30.0101 19.9833 29.9977 20.3582 30.4376C20.1708 30.6574 19.7071 30.6012 19.6392 30.9414C19.7979 31.5498 20.6998 31.4143 20.7901 32.0926C19.3582 33.102 16.3557 31.8145 17.0494 29.7905C14.8859 30.2647 11.7358 30.7358 11.7265 33.1715C11.7221 34.2449 12.3619 35.2378 13.0929 35.8331C12.5977 33.5668 13.4394 30.2157 16.114 31.589ZM18.7759 45.0406C18.8414 44.5535 18.0407 44.2124 17.769 44.5373C18.034 44.7755 18.449 44.8635 18.7759 45.0406ZM16.2581 45.9757C16.7668 47.7445 16.9323 49.8575 18.2723 50.7954C18.0706 48.7191 17.3338 47.178 16.2581 45.9757ZM19.2793 44.1055C19.5033 43.09 18.0135 42.6922 17.9127 43.3859C17.8248 43.9902 18.7775 43.9199 19.2793 44.1055ZM19.5672 42.1629C19.2425 41.8078 18.4274 41.5877 17.841 41.7315C18.0479 42.2407 19.3213 42.9943 19.5672 42.1629ZM18.7041 38.9981C19.029 38.7955 19.3738 38.6122 19.4231 38.1344C19.0057 37.822 18.0063 37.7779 17.9127 38.2791C17.842 38.6579 18.3497 38.8115 18.7041 38.9981ZM19.6392 40.2207C19.6706 39.9736 19.6108 39.8179 19.5672 39.6451C19.1982 39.636 19.026 39.8233 18.9918 40.1491C19.1709 40.2095 19.3771 40.243 19.6392 40.2207ZM14.6038 39.8612C14.5483 39.6769 14.5318 39.4534 14.388 39.3578C14.2092 39.5514 14.2023 39.8991 14.6038 39.8612ZM15.3231 34.9699C15.0003 34.8441 14.5225 34.9783 14.388 35.2575C14.539 35.3937 14.7563 35.4648 14.9635 35.5448C15.0361 35.3068 15.3614 35.3199 15.3231 34.9699ZM16.114 44.2493C15.9279 43.836 15.9045 43.2601 15.5389 43.0266C14.5539 43.1667 15.5298 44.5817 16.114 44.2493ZM17.4809 52.0179C18.1833 53.7159 18.9246 55.5512 20.4306 56.3338C19.3044 55.0809 19.0387 53.008 18.2723 51.5143C18.0072 50.9989 17.5843 50.5981 17.3371 50.076C16.7556 48.8467 16.4875 47.4124 15.3231 46.8389C15.782 48.6478 16.7649 50.2849 17.4809 52.0179ZM37.2633 78.9937C36.828 77.511 35.6594 76.7604 34.0261 76.4759C33.6224 75.513 32.4571 75.3122 32.2279 74.1742C32.1907 73.9405 32.6734 73.858 32.5159 73.7427C30.3266 74.1573 30.2493 71.8368 29.2068 70.865C26.5759 70.9126 27.0654 67.6575 25.6101 65.974C25.1944 65.4923 24.7822 65.3812 24.3151 64.8952C23.5963 62.6673 21.7203 61.5372 20.6465 59.5722C19.6927 57.8261 19.4921 55.8565 17.9131 54.6082C19.1624 58.8379 21.8389 62.4133 24.2433 65.9742C26.168 68.8233 27.4768 71.5368 29.6383 73.8145C30.3727 74.5874 31.202 75.105 32.0843 75.8285C33.585 77.059 34.6184 79.3418 37.2633 78.9937ZM36.9753 74.1018C36.8978 73.7937 36.3429 73.5859 36.0401 73.7427C36.3191 73.8961 36.6256 74.0202 36.9753 74.1018ZM39.6368 72.2316C39.1495 71.6637 38.1293 71.4475 37.1912 71.0809C36.0275 70.6254 34.3672 70.1941 33.5227 70.7211C33.6076 71.4269 34.1699 71.6562 34.5296 72.0877C35.529 72.2416 36.1009 72.7293 37.047 72.8067C38.1623 72.8988 39.2038 72.8492 39.6368 72.2316ZM73.9496 88.6332C71.7728 87.6405 68.5804 88.7573 66.2524 88.201C65.813 88.0959 65.4245 87.7938 65.0297 87.7696C64.637 87.7455 64.1799 87.9528 63.8069 87.9856C61.8133 88.1629 59.9932 87.966 58.1246 87.6972C56.8135 87.5089 55.417 87.4352 54.2395 87.122C53.1116 86.8227 51.9452 86.1321 50.7866 85.6832C49.611 85.2284 48.3871 84.7752 47.2619 84.3166C45.042 83.4122 42.6827 81.8471 40.356 81.2238C41.9255 82.8911 44.6277 83.4268 46.4709 84.8204C43.8662 84.0919 41.9008 82.7246 39.565 81.7274C41.3849 83.3568 43.9243 84.3437 46.4709 85.3955C49.0069 86.4439 51.7628 87.3307 54.7428 87.7694C60.6622 88.6413 67.6051 89.9363 73.9496 88.6332ZM75.8198 88.4171C75.4505 88.4319 74.9904 88.355 74.957 88.7048C75.27 88.9734 75.7965 88.9455 75.8198 88.4171ZM79.7042 79.9286C79.8064 80.4601 80.5781 80.3016 80.4962 79.7127C80.1041 79.657 79.9342 79.8236 79.7042 79.9286ZM85.6747 83.6692C83.741 83.6225 81.3555 82.9546 79.3442 83.0224C78.5725 83.048 77.6346 83.2327 77.4023 84.0282C77.9958 84.2691 78.6316 84.1246 79.3442 84.1012C81.6773 84.0224 84.5281 85.0708 85.6747 83.6692ZM87.6173 83.5253C87.2808 83.5246 87.1816 83.7619 87.1137 84.0282C87.2062 84.1274 87.426 84.1005 87.6173 84.1012C87.5831 83.783 87.716 83.743 87.6173 83.5253ZM91.8616 83.2379C91.5105 83.1846 91.3797 83.6211 91.5017 83.8137C91.728 83.8479 91.7827 83.7108 91.9337 83.6692C91.9857 83.4495 91.8096 83.4575 91.8616 83.2379ZM97.8316 83.6692C96.359 83.5123 94.6392 83.6094 93.3003 83.8137C94.0887 84.5561 96.9203 84.0823 97.8316 83.6692ZM28.631 39.9327C29.3406 40.3269 29.9953 41.1576 30.9331 41.0839C30.6798 40.7379 30.3206 40.4974 30.0694 40.1491C30.3366 40.1281 30.5636 40.0678 30.645 39.8612C29.7701 39.2491 28.648 38.5015 28.1994 37.7026C28.4955 38.2764 28.9487 39.1907 28.631 39.9327ZM37.8387 40.5088C37.6848 40.3512 37.7541 39.9694 37.5507 39.8614C37.5049 40.1744 37.7074 40.612 37.8387 40.5088ZM31.2206 46.7674C31.3309 47.9518 32.0878 48.4888 32.1557 49.7165C31.3149 48.7591 30.8455 47.4297 30.2855 46.1911C30.2306 47.6894 30.6835 48.6176 31.0768 49.6447C31.3797 50.434 31.6635 51.3603 32.4434 51.5868C32.8077 51.5188 32.7873 51.0661 33.1633 51.0108C33.5632 51.0684 33.7714 51.6961 34.0261 51.6589C33.8341 51.443 33.7742 51.0954 33.7384 50.7238C33.8079 50.4573 34.1889 50.5026 34.3137 50.2916C33.5903 48.8095 32.5533 47.64 31.2206 46.7674Z" fill="black"/>
</svg>
