<svg width="100" height="100" viewBox="0 0 100 100" fill="none" xmlns="http://www.w3.org/2000/svg">
<path d="M2.09057 55.0472C-0.696858 52.2597 -0.696858 47.7404 2.09057 44.9529L44.9529 2.09057C47.7404 -0.696858 52.2597 -0.696858 55.0472 2.09057L97.9094 44.9529C100.697 47.7404 100.697 52.2597 97.9094 55.0472L55.0472 97.9094C52.2597 100.697 47.7404 100.697 44.9529 97.9094L2.09057 55.0472Z" fill="#EE513B"/>
<path d="M36.2466 10.9336L31.9062 15.2741L43.1166 26.4845C42.663 27.4574 42.4098 28.5425 42.4098 29.6868C42.4098 32.9353 44.4509 35.7071 47.3206 36.7896V64.2132C44.4509 65.2957 42.4098 68.0675 42.4098 71.3161C42.4098 75.5075 45.8077 78.9054 49.9991 78.9054C54.1906 78.9054 57.5884 75.5075 57.5884 71.3161C57.5884 68.3711 55.9109 65.8175 53.4591 64.5596V36.8271L64.1752 47.5432C63.7438 48.4964 63.5038 49.5546 63.5038 50.6689C63.5038 54.8603 66.9016 58.2582 71.0931 58.2582C75.2845 58.2582 78.6824 54.8603 78.6824 50.6689C78.6824 46.4775 75.2845 43.0796 71.0931 43.0796C70.2784 43.0796 69.4941 43.2078 68.7584 43.4453L57.2495 31.9364C57.4698 31.2257 57.5884 30.47 57.5884 29.6868C57.5884 25.4952 54.1906 22.0974 49.9991 22.0974C49.2159 22.0974 48.4606 22.2161 47.7495 22.4364L36.2466 10.9336Z" fill="white"/>
</svg>
