<svg width="76" height="100" viewBox="0 0 76 100" fill="none" xmlns="http://www.w3.org/2000/svg">
<path d="M38.1576 26.377C59.0199 10.394 48.3127 0 48.3127 0C49.9062 16.5231 31.0747 20.4245 26.0267 31.7788C22.5823 39.5266 28.3856 46.3104 38.1506 54.8607C37.2874 52.967 35.9558 51.127 34.6081 49.2641C30.0104 42.9104 25.2211 36.2913 38.1576 26.377Z" fill="#E76F00"/>
<path d="M41.4885 58.3655C41.4885 58.3655 47.7648 53.3683 42.7944 47.8149C25.9452 28.9744 61.2225 20.4243 61.2225 20.4243C39.6841 30.6639 42.8995 36.7418 48.3133 44.1255C54.1095 52.043 41.4885 58.3655 41.4885 58.3655Z" fill="#E76F00"/>
<path d="M59.9667 73.2676C79.3001 63.5182 70.3612 54.1494 64.122 55.4116C62.5925 55.7204 61.9107 55.9882 61.9107 55.9882C61.9107 55.9882 62.4785 55.125 63.5627 54.7513C75.9061 50.5404 85.3988 67.1716 59.5781 73.7588C59.5781 73.7588 59.8774 73.4995 59.9667 73.2676Z" fill="#5382A1"/>
<path d="M19.7376 60.9275C7.64136 59.36 26.3702 55.0431 26.3702 55.0431C26.3702 55.0431 19.097 54.5672 10.1519 58.7631C-0.42524 63.7285 36.3154 65.9866 55.3341 61.1325C57.3113 59.8222 60.0442 58.6866 60.0442 58.6866C60.0442 58.6866 52.2615 60.0353 44.5107 60.67C35.0269 61.441 24.8451 61.5913 19.7376 60.9275Z" fill="#5382A1"/>
<path d="M24.3407 70.2369C17.5952 69.56 22.0119 66.3872 22.0119 66.3872C4.55724 72.0091 31.7235 78.3844 56.1134 71.4632C53.5209 70.5763 51.8723 68.9541 51.8723 68.9541C39.952 71.1816 33.0636 71.1103 24.3407 70.2369Z" fill="#5382A1"/>
<path d="M27.2785 80.31C20.5383 79.5581 24.476 77.3359 24.476 77.3359C8.63142 81.6322 34.1134 90.5081 54.2863 82.1181C50.9822 80.8713 48.6164 79.4319 48.6164 79.4319C39.6177 81.0844 35.4441 81.2141 27.2785 80.31Z" fill="#5382A1"/>
<path d="M69.4724 85.4342C69.4724 85.4342 72.3864 87.7642 66.263 89.5667C54.6189 92.9898 17.7996 94.0236 7.5713 89.7033C3.89449 88.1511 10.7895 85.997 12.9585 85.5448C15.2204 85.0689 16.5131 85.1576 16.5131 85.1576C12.4241 82.3623 -9.91644 90.6464 5.16517 93.0189C46.295 99.4917 80.1409 90.1039 69.4724 85.4342Z" fill="#5382A1"/>
<path d="M76.0002 90.5249C75.3254 99.0462 46.8279 100.839 28.2703 99.6859C16.1639 98.9324 13.7376 97.0496 13.7021 97.0221C25.2889 98.8759 44.8241 99.2134 60.6634 96.3205C74.7028 93.7552 76.0002 90.5249 76.0002 90.5249Z" fill="#5382A1"/>
</svg>
