<svg width="100" height="100" viewBox="0 0 100 100" fill="none" xmlns="http://www.w3.org/2000/svg">
<g clip-path="url(#clip0_513_19)">
<path d="M99.4836 13.7833C99.4836 6.57115 93.637 0.724609 86.4249 0.724609C79.8398 0.724609 74.3959 5.59975 73.499 11.9374C73.4153 11.893 73.3666 11.8679 73.3666 11.8679C62.6874 7.05106 53.6915 15.5825 53.6915 15.5825L29.8965 39.4941L39.2985 48.5483L58.4508 29.7322C67.3942 20.7885 72.2639 26.842 72.2639 26.842C78.9966 32.5294 72.496 39.2621 72.496 39.2621L82.1304 48.5483C89.9978 40.0512 90.4541 32.6352 88.0627 26.7358C94.5011 25.9296 99.4836 20.4402 99.4836 13.7833Z" fill="#F9AE41"/>
<path d="M88.1831 73.8398C88.2275 73.7564 88.2526 73.7077 88.2526 73.7077C93.0699 63.0281 84.5381 54.0326 84.5381 54.0326L60.626 30.2368L51.5723 39.6392L70.3883 58.7916C79.332 67.7353 73.2786 72.605 73.2786 72.605C67.5911 79.3377 60.8585 72.8371 60.8585 72.8371L51.5723 82.4712C60.0689 90.3385 67.4853 90.7948 73.3843 88.4034C74.1905 94.8422 79.6803 99.8247 86.3372 99.8247C93.5494 99.8247 99.3955 93.9781 99.3955 86.766C99.3955 80.1809 94.5208 74.737 88.1831 73.8398Z" fill="#EE4035"/>
<path d="M60.83 51.5659L41.6777 70.3816C32.7339 79.3257 27.8642 73.2726 27.8642 73.2726C21.1316 67.5847 27.6321 60.8525 27.6321 60.8525L17.9981 51.5663C10.1307 60.063 9.67437 67.4789 12.0654 73.3784C5.62662 74.1845 0.644531 79.6736 0.644531 86.3309C0.644531 93.543 6.49107 99.3892 13.7032 99.3892C20.2883 99.3896 25.7322 94.5148 26.6291 88.1772C26.7129 88.2216 26.7615 88.2463 26.7615 88.2463C37.4411 93.0639 46.4366 84.5317 46.4366 84.5317L70.232 60.6197L60.83 51.5659Z" fill="#4F91CD"/>
<path d="M29.7391 41.3227C20.7953 32.3789 26.848 27.5092 26.848 27.5092C32.5363 20.7766 39.2685 27.2772 39.2685 27.2772L48.5547 17.6435C40.0581 9.77614 32.6421 9.31978 26.743 11.7108C25.9365 5.27164 20.4475 0.289551 13.7897 0.289551C6.57799 0.289551 0.731831 6.13609 0.731445 13.3482C0.731445 19.9337 5.6062 25.3776 11.9438 26.2745C11.8994 26.3583 11.8747 26.4069 11.8747 26.4069C7.05674 37.0861 15.5889 46.0812 15.5889 46.0812L39.5013 69.877L48.5551 60.475L29.7391 41.3227Z" fill="#7AC043"/>
</g>
<defs>
<clipPath id="clip0_513_19">
<rect width="100" height="100" fill="white"/>
</clipPath>
</defs>
</svg>
