<svg width="100" height="100" viewBox="0 0 100 100" fill="none" xmlns="http://www.w3.org/2000/svg">
<g clip-path="url(#clip0_339_214)">
<path d="M0 0H100V100H0V0Z" fill="#F7DF1E"/>
<path d="M26.2941 83.5673L33.9468 78.936C35.4232 81.5536 36.7662 83.7684 39.9876 83.7684C43.0755 83.7684 45.0224 82.5605 45.0224 77.8621V45.9097H54.4198V77.9949C54.4198 87.7282 48.7144 92.1586 40.3905 92.1586C32.8728 92.1586 28.509 88.2651 26.2939 83.5665" fill="black"/>
<path d="M59.5234 82.5603L67.1752 78.1299C69.1895 81.4195 71.8074 83.8358 76.4388 83.8358C80.3326 83.8358 82.8157 81.889 82.8157 79.2039C82.8157 75.9818 80.265 74.8406 75.9688 72.9617L73.6201 71.9541C66.8399 69.0682 62.3423 65.4434 62.3423 57.7909C62.3423 50.7426 67.7123 45.3723 76.1034 45.3723C82.0777 45.3723 86.3738 47.4534 89.4612 52.8907L82.1444 57.5893C80.5333 54.7031 78.7885 53.5622 76.1036 53.5622C73.3514 53.5622 71.606 55.3074 71.606 57.5893C71.606 60.4087 73.3514 61.5501 77.3785 63.2955L79.7277 64.3023C87.7158 67.726 92.2134 71.2161 92.2134 79.0696C92.2134 87.528 85.568 92.1593 76.6404 92.1593C67.9141 92.1593 62.2752 87.9977 59.5234 82.5603Z" fill="black"/>
</g>
<defs>
<clipPath id="clip0_339_214">
<rect width="100" height="100" fill="white"/>
</clipPath>
</defs>
</svg>
