<svg width="100" height="100" viewBox="0 0 100 100" fill="none" xmlns="http://www.w3.org/2000/svg">
<path fill-rule="evenodd" clip-rule="evenodd" d="M23.8991 16.5757C22.9488 16.5727 22.0022 16.6949 21.083 16.9393V17.0665H21.2193C21.8776 18.0736 22.6116 19.0276 23.4148 19.9203C23.9672 21.0327 24.4479 22.1415 24.9968 23.2539C25.0649 23.1848 25.1331 23.1121 25.1331 23.1121C25.6427 22.7022 26.0415 22.1681 26.2925 21.5598C26.5434 20.9514 26.6382 20.2886 26.568 19.6331C26.2676 19.1636 25.9922 18.6782 25.7429 18.1789C25.3304 17.4846 24.4371 17.1356 23.8883 16.5794" fill="#5D87A1"/>
<path fill-rule="evenodd" clip-rule="evenodd" d="M92.0397 77.2426C87.5146 76.9205 82.974 77.5849 78.7236 79.1912C77.6941 79.6092 76.0511 79.6092 75.9076 80.9289C76.46 81.4851 76.5246 82.383 77.0089 83.1574C77.9484 84.7695 79.156 86.2048 80.5783 87.3998C82.0132 88.5122 83.4481 89.621 84.9727 90.5953C87.6453 92.2712 90.6694 93.2419 93.2738 94.9105C94.7876 95.8848 96.2943 97.1353 97.8081 98.1823C98.5615 98.7385 99.0386 99.6365 100 100V99.7891C99.7175 99.0166 99.3682 98.2709 98.9561 97.5607C98.2709 96.87 97.5821 96.241 96.8934 95.5467C94.8811 92.8503 92.4737 90.4817 89.7546 88.5232C87.5556 86.989 82.7486 84.8878 81.8625 82.343L81.7226 82.2013C83.3317 81.9702 84.9175 81.5955 86.4615 81.0816C88.7932 80.4563 90.9205 80.5981 93.3204 79.9909C94.4217 79.711 96.4127 79.0167 96.4127 79.0167V77.9261C95.1858 76.69 94.3069 75.0359 93.0155 73.869C89.5021 70.761 85.7578 67.9316 81.8159 65.4059C79.7101 64.0281 76.9945 63.141 74.7525 61.9668C73.9417 61.5524 72.6001 61.3488 72.1086 60.6581C70.9935 59.0003 70.0601 57.2242 69.3248 55.3613C67.359 51.5806 65.4541 47.389 63.7609 43.3901C62.7587 40.7102 61.6028 38.0919 60.2991 35.5486C54.0082 24.7096 44.9277 15.8079 34.0292 9.79567C31.2793 8.44679 28.3556 7.49711 25.3443 6.97463C23.6439 6.90192 21.9507 6.76742 20.2539 6.70198C19.1586 5.97478 18.1167 5.16803 17.1365 4.2881C13.2551 1.79787 3.28232 -3.55339 0.426814 3.53194C-1.40272 8.00707 3.146 12.4059 4.70648 14.678C6.02229 16.28 7.18164 18.0076 8.16825 19.8366C8.64536 21.0071 8.78168 22.2468 9.24444 23.4719C10.2402 26.6169 11.4226 29.698 12.7851 32.6985C13.5139 34.1814 14.3533 35.6058 15.2962 36.9591C15.8451 37.7189 16.7922 38.0497 16.9966 39.3039C16.2443 40.9426 15.718 42.6784 15.4326 44.4625C14.2468 48.2575 13.8103 52.252 14.1483 56.2179C14.4862 60.1838 15.5918 64.0434 17.402 67.5762C18.4782 69.2957 21.0682 73.0801 24.53 71.6332C27.5828 70.3972 26.9048 66.4747 27.7873 63.0392C27.9882 62.2067 27.8554 61.6614 28.2608 61.1125V61.7814C28.2608 61.7814 29.9935 65.6385 30.8544 67.598C33.1958 71.1934 36.1044 74.3743 39.464 77.0136C40.7929 78.1893 41.8635 79.6346 42.6065 81.2561V82.503H44.1383C44.1064 81.9408 43.9526 81.3926 43.6878 80.8974C43.4231 80.4023 43.0539 79.9724 42.6065 79.6383C41.3504 78.3281 40.1999 76.9179 39.1663 75.4213C36.3583 71.3686 33.882 67.0901 31.762 62.6284C30.6858 60.4472 29.7783 58.0552 28.9173 55.8776C28.5227 55.0378 28.5227 53.7691 27.859 53.3328C26.6336 54.8021 25.5702 56.4027 24.6878 58.106C23.6166 61.5489 22.9932 65.1186 22.8332 68.7249C22.5713 68.7977 22.7005 68.7249 22.5713 68.8631C20.4584 68.2996 19.7302 65.9839 18.9338 64.0208C16.8765 57.9663 16.669 51.4237 18.3383 45.2478C18.7975 43.7754 20.7884 39.1367 19.992 37.7298C19.5939 36.3884 18.2701 35.6213 17.5455 34.5634C16.6204 33.1402 15.8244 31.6351 15.1671 30.0665C13.5923 26.1548 12.7959 21.7924 11.0811 17.8516C10.1319 15.9564 9.02671 14.1456 7.77723 12.4386C6.39509 10.7334 5.17591 8.89896 4.1361 6.96009C3.80607 6.18576 3.3433 4.92065 3.87064 4.07724C3.90623 3.84297 4.01617 3.62682 4.18381 3.46152C4.35146 3.29622 4.56768 3.19077 4.79975 3.16113C5.65354 2.39043 8.10367 3.37198 8.96104 3.79369C11.2654 4.71299 13.4603 5.89222 15.5043 7.30908C16.4298 8.01435 18.6109 9.79931 18.6109 9.79931H19.2566C21.4521 10.2828 23.9202 9.93382 25.9865 10.5627C29.4655 11.738 32.7857 13.3501 35.8695 15.3614C44.9586 21.2331 52.3476 29.4436 57.2822 39.1549C58.1073 40.7508 58.4553 42.2159 59.2086 43.8809C60.6435 47.2981 62.4372 50.7881 63.8721 54.1108C65.138 57.3982 66.7751 60.526 68.7509 63.4319C69.7768 64.886 73.8987 65.6567 75.7533 66.4201C77.3639 66.9848 78.9445 67.634 80.4886 68.3651C82.8239 69.8192 85.1521 71.4951 87.3511 73.091C88.4452 73.9272 91.8783 75.6649 92.0864 77.0572" fill="#00758F"/>
</svg>
