<svg width="100" height="100" viewBox="0 0 100 100" fill="none" xmlns="http://www.w3.org/2000/svg">
<g clip-path="url(#clip0_339_212)">
<path fill-rule="evenodd" clip-rule="evenodd" d="M0 50C0 22.3857 22.3857 0 50 0C77.614 0 100 22.3857 100 50C100 67.2467 91.268 82.454 77.9833 91.442L32.7125 28.0628C31.8702 26.8837 30.3627 26.3837 28.9827 26.8259C27.6028 27.2681 26.6667 28.5512 26.6667 30.0003V80H33.3333V40.4018L72.1993 94.814C65.5107 98.134 57.9733 100 50 100C22.3857 100 0 77.614 0 50ZM66.6667 66.6667V26.6667H73.3333V66.6667H66.6667Z" fill="black"/>
</g>
<defs>
<clipPath id="clip0_339_212">
<rect width="100" height="100" fill="white"/>
</clipPath>
</defs>
</svg>
