<svg width="88" height="100" viewBox="0 0 88 100" fill="none" xmlns="http://www.w3.org/2000/svg">
<path d="M44 100C42.6335 100 41.3582 99.6325 40.1739 98.9894L28.058 91.7317C26.236 90.7212 27.147 90.3537 27.6936 90.17C30.1532 89.3431 30.6087 89.1594 33.1594 87.6895C33.4327 87.5057 33.7971 87.5976 34.0704 87.7813L43.3623 93.3854C43.7267 93.5691 44.1822 93.5691 44.4555 93.3854L80.8033 72.1635C81.1677 71.9798 81.3499 71.6123 81.3499 71.153V28.8011C81.3499 28.3418 81.1677 27.9743 80.8033 27.7905L44.4555 6.66054C44.0911 6.4768 43.6356 6.4768 43.3623 6.66054L7.01449 27.7905C6.6501 27.9743 6.46791 28.4336 6.46791 28.8011V71.153C6.46791 71.5204 6.6501 71.9798 7.01449 72.1635L16.9441 77.9513C22.3188 80.7074 25.6894 77.492 25.6894 74.2765V32.4759C25.6894 31.9247 26.1449 31.3735 26.7826 31.3735H31.4286C31.9752 31.3735 32.5217 31.8328 32.5217 32.4759V74.2765C32.5217 81.5342 28.6046 85.7602 21.7723 85.7602C19.677 85.7602 18.0373 85.7602 13.3913 83.4635L3.82609 77.9513C1.45756 76.5733 0 74.0009 0 71.2448V28.893C0 26.1369 1.45756 23.5645 3.82609 22.1865L40.1739 0.96463C42.4513 -0.321543 45.5487 -0.321543 47.8261 0.96463L84.1739 22.1865C86.5424 23.5645 88 26.1369 88 28.893V71.2448C88 74.0009 86.5424 76.5733 84.1739 77.9513L47.8261 99.1732C46.6418 99.7244 45.2754 100 44 100ZM55.205 70.8774C39.2629 70.8774 35.9834 63.5278 35.9834 57.2807C35.9834 56.7294 36.4389 56.1782 37.0766 56.1782H41.8137C42.3602 56.1782 42.8157 56.5457 42.8157 57.0969C43.5445 61.966 45.6398 64.3546 55.2961 64.3546C62.9482 64.3546 66.2277 62.6091 66.2277 58.475C66.2277 56.0864 65.3168 54.3408 53.383 53.1465C43.4534 52.136 37.2588 49.9311 37.2588 41.9384C37.2588 34.497 43.4534 30.0873 53.8385 30.0873C65.499 30.0873 71.2381 34.1295 71.9669 42.949C71.9669 43.2246 71.8758 43.5002 71.6936 43.7758C71.5114 43.9596 71.2381 44.1433 70.9648 44.1433H66.2277C65.7723 44.1433 65.3168 43.7758 65.2257 43.3165C64.1325 38.2637 61.3085 36.61 53.8385 36.61C45.4576 36.61 44.4555 39.5498 44.4555 41.7547C44.4555 44.4189 45.6398 45.2458 56.9358 46.7157C68.1408 48.1856 73.4244 50.2986 73.4244 58.1994C73.3333 66.2839 66.7743 70.8774 55.205 70.8774Z" fill="#539E43"/>
</svg>
