<svg width="100" height="100" viewBox="0 0 100 100" fill="none" xmlns="http://www.w3.org/2000/svg">
<g clip-path="url(#clip0_339_151)">
<path d="M4.16699 5.4165H95.8339V94.5834H4.16699V5.4165Z" fill="url(#paint0_radial_339_151)"/>
<path d="M4.16662 5.41637H95.8335V94.5833H4.16662V5.41637ZM0 98.7501H100V1.24976H0V98.7501ZM67.4168 41.2498C64.1251 41.2498 63.0002 42.9164 63.0002 44.2914C63.0002 45.7914 63.7501 46.8331 68.1669 49.1248C74.7085 52.2915 76.7502 55.3331 76.7502 59.7915C76.7502 66.4582 71.6669 70.0415 64.7918 70.0415C61.1668 70.0415 58.0417 69.2915 56.2501 68.2499C55.9585 68.1249 55.9168 67.9166 55.9168 67.5832V61.4582C55.9168 61.0415 56.1251 60.9164 56.4169 61.1249C59.0419 62.8333 62.0418 63.5832 64.7918 63.5832C68.0835 63.5832 69.4585 62.2082 69.4585 60.3331C69.4585 58.8332 68.5001 57.4998 64.2917 55.3331C58.375 52.4998 55.9168 49.6249 55.9168 44.8332C55.9168 39.4581 60.1252 34.9998 67.4168 34.9998C71.0001 34.9998 73.5002 35.5416 74.8751 36.1665C75.2084 36.3748 75.2918 36.7081 75.2918 36.9997V42.708C75.2918 43.0412 75.0834 43.2497 74.6667 43.1246C72.8334 41.9582 70.1251 41.2498 67.4168 41.2498ZM31.5833 46.2082C32.5417 46.2915 33.2918 46.2915 34.9584 46.2915C39.8336 46.2915 44.4168 44.5832 44.4168 37.9583C44.4168 32.6666 41.1251 29.9998 35.5835 29.9998C33.9169 29.9998 32.3334 30.0831 31.5833 30.1248V46.2082ZM24.1668 24.0831C24.1668 23.7915 24.7502 23.583 25.0834 23.583C27.7502 23.458 31.7085 23.3747 35.8334 23.3747C47.3751 23.3747 51.875 29.708 51.875 37.7914C51.875 48.3747 44.2083 52.9164 34.7918 52.9164C33.2085 52.9164 32.6669 52.8331 31.5417 52.8331V68.8332C31.5417 69.1665 31.4167 69.3331 31.0417 69.3331H24.6668C24.3335 69.3331 24.1666 69.2081 24.1666 68.8332V24.0831H24.1668Z" fill="#31C5F0"/>
</g>
<defs>
<radialGradient id="paint0_radial_339_151" cx="0" cy="0" r="1" gradientUnits="userSpaceOnUse" gradientTransform="translate(34.3576 25.3989) scale(69.6668 67.4501)">
<stop stop-color="#34364E" stop-opacity="0.98"/>
<stop offset="1" stop-color="#0C0824"/>
</radialGradient>
<clipPath id="clip0_339_151">
<rect width="100" height="100" fill="white"/>
</clipPath>
</defs>
</svg>
