<svg width="100" height="100" viewBox="0 0 100 100" fill="none" xmlns="http://www.w3.org/2000/svg">
<path d="M50 100C77.6142 100 100 77.6142 100 50C100 22.3858 77.6142 0 50 0C22.3858 0 0 22.3858 0 50C0 77.6142 22.3858 100 50 100Z" fill="#8892BF"/>
<path d="M44.4251 28.5713H50.4251L48.7294 37.5863H54.1208C57.0776 37.6495 59.2801 38.3102 60.7298 39.5688C62.208 40.827 62.643 43.2191 62.0344 46.7431L59.1212 62.4602H53.0341L55.8166 47.4509C56.1062 45.8774 56.0194 44.7606 55.5558 44.0999C55.0923 43.4391 54.0923 43.1088 52.5558 43.1088L47.7294 43.0616L44.1641 62.4602H38.1641L44.4251 28.5713Z" fill="white"/>
<path fill-rule="evenodd" clip-rule="evenodd" d="M16.9314 37.5864H28.5839C32.0039 37.6175 34.4824 38.6879 36.0189 40.7957C37.5553 42.9039 38.0624 45.7829 37.5407 49.4332C37.3382 51.1014 36.8885 52.7371 36.1928 54.3421C35.526 55.9468 34.5989 57.3939 33.4103 58.6843C31.9606 60.3204 30.4099 61.3586 28.7578 61.7996C27.1056 62.2404 25.3952 62.4604 23.6273 62.4604H18.4097L16.7575 71.4282H10.7139L16.9314 37.5864ZM19.4098 57.1268L22.0098 43.0143H22.8881C23.2073 43.0143 23.5403 42.9982 23.8882 42.9671C26.2073 42.9357 28.1344 43.1718 29.671 43.675C31.236 44.1782 31.7578 46.0821 31.236 49.3861C30.5989 53.3196 29.3517 55.6164 27.4969 56.2771C25.6421 56.9068 23.3229 57.2054 20.5402 57.1739H19.9315C19.7576 57.1739 19.5837 57.1579 19.4098 57.1268Z" fill="white"/>
<path fill-rule="evenodd" clip-rule="evenodd" d="M80.1307 37.5864H68.4782L62.2607 71.4282H68.3043L69.9568 62.4604H75.1743C76.9422 62.4604 78.6525 62.2404 80.3047 61.7996C81.9572 61.3586 83.5075 60.3204 84.9572 58.6843C86.1457 57.3939 87.0729 55.9468 87.7397 54.3421C88.4354 52.7371 88.885 51.1014 89.0875 49.4332C89.6093 45.7829 89.1025 42.9039 87.5657 40.7957C86.0293 38.6879 83.5511 37.6175 80.1307 37.5864ZM73.5568 43.0143L70.9568 57.1268C71.1307 57.1579 71.3047 57.1739 71.4786 57.1739H72.0872C74.87 57.2054 77.189 56.9068 79.044 56.2771C80.8986 55.6164 82.1457 53.3196 82.7832 49.3861C83.305 46.0821 82.7832 44.1782 81.2179 43.675C79.6815 43.1718 77.7543 42.9357 75.435 42.9671C75.0872 42.9982 74.7543 43.0143 74.435 43.0143H73.5568Z" fill="white"/>
</svg>
