<svg width="97" height="100" viewBox="0 0 97 100" fill="none" xmlns="http://www.w3.org/2000/svg">
<path d="M95.8081 59.9021C95.2308 58.1367 93.7184 56.9069 91.7623 56.6116C90.84 56.4726 89.7837 56.5319 88.5339 56.7921C86.3554 57.2459 84.7391 57.4186 83.5596 57.4523C88.0117 49.862 91.6322 41.2062 93.7164 33.0584C97.0864 19.8839 95.2855 13.882 93.1811 11.167C87.6117 3.98157 79.4859 0.121185 69.6825 0.00284924C64.4533 -0.0615952 59.8621 0.980968 57.4675 1.7305C55.2376 1.3335 52.8398 1.11165 50.324 1.07056C45.6087 0.994665 41.4421 2.03251 37.8819 4.16569C35.9105 3.49296 32.7475 2.54425 29.0943 1.93865C20.5022 0.514363 13.5776 1.62429 8.5125 5.23722C2.3791 9.61181 -0.464332 17.2122 0.0616107 27.8276C0.2284 31.198 2.09578 41.4523 5.03572 51.1776C6.72541 56.7672 8.52718 61.4092 10.391 64.9754C13.0341 70.0324 15.8621 73.0106 19.0371 74.0799C20.8169 74.6787 24.0502 75.0977 27.4511 72.2384C27.8821 72.7651 28.457 73.289 29.2204 73.7754C30.1896 74.3926 31.3749 74.897 32.5584 75.1958C36.8245 76.2728 40.8203 76.0033 44.2293 74.4941C44.2502 75.1062 44.2664 75.6912 44.2802 76.1962C44.3029 77.0156 44.3251 77.8188 44.3549 78.5699C44.5568 83.6495 44.8991 87.599 45.9132 90.3623C45.9688 90.5145 46.0437 90.7461 46.1229 90.9915C46.6286 92.5557 47.4748 95.1739 49.6268 97.2246C51.8558 99.3486 54.5515 100 57.0205 100C58.2587 100 59.4402 99.8361 60.4763 99.6118C64.1704 98.8126 68.3655 97.5947 71.4002 93.2318C74.2692 89.1071 75.664 82.8948 75.9164 73.106C75.9491 72.8294 75.9793 72.5651 76.0085 72.3131C76.028 72.1432 76.048 71.9694 76.0683 71.796L76.7443 71.856L76.9185 71.8679C80.6808 72.041 85.2811 71.2353 88.1063 69.9103C90.3388 68.8641 97.4925 65.0509 95.8081 59.9021Z" fill="black"/>
<path d="M89.3756 60.9035C78.1891 63.2334 77.4201 59.4092 77.4201 59.4092C89.2312 41.7132 94.1687 19.2508 89.9077 13.7533C78.2836 -1.24297 58.1617 5.84929 57.8259 6.03342L57.7178 6.05295C55.5077 5.58972 53.0343 5.31375 50.2545 5.26794C45.1928 5.18419 41.3533 6.6078 38.4398 8.83866C38.4398 8.83866 2.54425 -6.09247 4.2137 27.6174C4.56886 34.7889 14.3936 81.8803 26.1123 67.6565C30.3954 62.4553 34.5338 58.0576 34.5338 58.0576C36.5893 59.4363 39.05 60.1396 41.6297 59.887L41.8301 59.7152C41.7678 60.361 41.7963 60.9926 41.9104 61.7404C38.8915 65.1461 39.7786 65.744 33.7437 66.9983C27.6372 68.269 31.2245 70.5313 33.5667 71.1225C36.4061 71.8395 42.9752 72.8551 47.4138 66.5813L47.2367 67.2972C48.4196 68.2538 49.2502 73.5196 49.111 78.2929C48.9718 83.0666 48.8788 86.3438 49.8109 88.9036C50.7429 91.4634 51.6718 97.223 59.6052 95.5066C66.2343 94.0722 69.6695 90.3551 70.1474 84.1547C70.4865 79.7467 71.254 80.3983 71.3025 76.4573L71.918 74.5915C72.6279 68.6162 72.0308 66.6885 76.1149 67.5851L77.1074 67.6731C80.1134 67.8112 84.0476 67.1849 86.3567 66.1013C91.3288 63.7714 94.2776 59.8814 89.3751 60.9035H89.3756Z" fill="#336791"/>
<path d="M40.5403 30.8247C39.5324 30.683 38.6193 30.8141 38.1574 31.1671C37.8975 31.3658 37.8172 31.596 37.7956 31.7545C37.7376 32.1742 38.0289 32.6381 38.2077 32.8775C38.7138 33.5549 39.4535 34.0206 40.1856 34.1232C40.2917 34.1381 40.3971 34.1452 40.502 34.1452C41.7229 34.1452 42.8327 33.1855 42.9305 32.4771C43.0528 31.5899 41.7772 30.9985 40.5403 30.8247Z" fill="white"/>
<path d="M73.9362 30.8526C73.8402 30.1572 72.6142 29.9589 71.4511 30.1222C70.2898 30.2856 69.1634 30.8149 69.2575 31.5119C69.3331 32.0539 70.302 32.9793 71.4495 32.9791C71.5463 32.9791 71.6441 32.9726 71.7426 32.9586C72.5085 32.8515 73.0705 32.3604 73.3374 32.0773C73.7441 31.6462 73.9792 31.1652 73.9362 30.8526Z" fill="white"/>
<path d="M93.0974 60.6385C92.6709 59.3362 91.2981 58.9169 89.0171 59.3927C82.2445 60.804 79.8192 59.8263 79.0226 59.2342C84.2869 51.1367 88.6175 41.349 90.9536 32.2165C92.0604 27.8906 92.6718 23.8733 92.7216 20.599C92.7767 17.0045 92.1707 14.3636 90.9203 12.7502C85.879 6.24605 78.4804 2.75729 69.5243 2.66141C63.3673 2.59157 58.1652 4.1827 57.1567 4.63C55.0329 4.0967 52.7177 3.76931 50.1974 3.72755C45.5751 3.6521 41.5799 4.76944 38.2719 7.04678C36.8351 6.50697 33.1217 5.21988 28.5808 4.48135C20.7297 3.20481 14.4911 4.17192 10.0389 7.35665C4.72653 11.1569 2.27406 17.9498 2.7493 27.5464C2.9092 30.7754 4.73098 40.7077 7.60643 50.2199C11.3912 62.7394 15.5051 69.8269 19.8341 71.2847C20.3407 71.4553 20.9251 71.5748 21.5692 71.5748C23.1483 71.5748 25.0842 70.856 27.0986 68.4109C30.4444 64.3467 33.5682 60.941 34.7197 59.7035C36.4214 60.6259 38.2906 61.1408 40.2029 61.1925C40.2062 61.243 40.2113 61.2935 40.2158 61.3438C39.8322 61.8032 39.5175 62.2058 39.2493 62.5496C37.9246 64.2476 37.6488 64.6011 33.3843 65.4878C32.1714 65.7404 28.9493 66.4109 28.9023 68.6912C28.851 71.1825 32.7105 72.2289 33.1504 72.3398C34.6828 72.7271 36.159 72.9182 37.567 72.9182C40.9913 72.918 44.0044 71.7818 46.4126 69.5833C46.3383 78.4652 46.7052 87.2173 47.7614 89.884C48.6262 92.0668 50.7395 97.402 57.4149 97.4015C58.3941 97.4015 59.4724 97.2865 60.6584 97.0299C67.6249 95.5216 70.65 92.4128 71.8204 85.5588C72.4467 81.8958 73.5214 73.1484 74.0267 68.4565C75.0935 68.7924 76.4669 68.9462 77.9516 68.946C81.0481 68.946 84.621 68.2818 86.8617 67.2316C89.3787 66.0514 93.9211 63.1548 93.0974 60.6385ZM76.5072 28.9327C76.4841 30.318 76.2953 31.5754 76.0951 32.8881C75.8799 34.2998 75.657 35.7594 75.601 37.5313C75.5456 39.2555 75.7589 41.0483 75.9652 42.7818C76.382 46.2834 76.8096 49.8884 75.154 53.4457C74.8967 52.9842 74.6483 52.4808 74.4206 51.9232C74.2148 51.4196 73.7681 50.6106 73.1496 49.4908C70.7425 45.1323 65.1059 34.9259 67.9914 30.761C68.8507 29.5211 71.0318 28.2468 76.5072 28.9327ZM69.8705 5.46643C77.8951 5.64539 84.2427 8.67652 88.7371 14.4752C92.1841 18.923 88.3884 39.1612 77.4001 56.6207C77.2916 56.4815 77.181 56.3409 77.0667 56.1968C77.0211 56.1391 76.9747 56.0805 76.9277 56.0212C79.7672 51.2862 79.2119 46.6015 78.7177 42.4479C78.5147 40.7434 78.323 39.1334 78.3717 37.6213C78.4222 36.018 78.6321 34.6436 78.8349 33.3143C79.0847 31.676 79.3384 29.9811 79.2683 27.9829C79.3206 27.7734 79.3417 27.5257 79.3144 27.2318C79.1356 25.3155 76.9691 19.5813 72.553 14.3905C70.1376 11.5518 66.6148 8.37474 61.805 6.2319C63.8739 5.79898 66.7031 5.39525 69.8705 5.46643ZM24.967 66.6213C22.7478 69.3154 21.2151 68.7992 20.7112 68.6296C17.4272 67.5235 13.6171 60.5157 10.2577 49.4027C7.35091 39.787 5.65211 30.1179 5.51778 27.4065C5.09325 18.8316 7.15188 12.8553 11.6367 9.64386C18.9354 4.41758 30.9354 7.54571 35.7572 9.13235C35.6878 9.20129 35.6157 9.26596 35.547 9.33601C27.6347 17.4046 27.8224 31.1899 27.8418 32.0324C27.8411 32.3575 27.868 32.8178 27.9052 33.451C28.0413 35.7695 28.2946 40.0848 27.6178 44.9718C26.9887 49.513 28.3751 53.9579 31.4209 57.1666C31.7362 57.4987 32.0653 57.8106 32.4054 58.1041C31.0495 59.5701 28.1031 62.8119 24.967 66.6213ZM33.4223 55.2299C30.9674 52.6438 29.8526 49.0464 30.3632 45.3593C31.078 40.1968 30.814 35.7008 30.6723 33.2853C30.6525 32.9474 30.635 32.6512 30.6245 32.4175C31.7805 31.3828 37.1371 28.4846 40.957 29.3684C42.7005 29.7716 43.7624 30.97 44.2041 33.0318C46.4898 43.7051 44.5067 48.1538 42.9133 51.7286C42.5849 52.4651 42.2746 53.1612 42.0096 53.8815L41.8043 54.4382C41.2844 55.8458 40.8007 57.1545 40.5009 58.3973C37.8914 58.3893 35.3527 57.2638 33.4223 55.2299ZM33.8229 69.6244C33.061 69.4322 32.3756 69.0983 31.9735 68.8214C32.3093 68.6617 32.9071 68.4448 33.9436 68.2293C38.9604 67.1863 39.735 66.4504 41.4269 64.2813C41.815 63.7842 42.2546 63.2203 42.8635 62.5337L42.8642 62.5328C43.7713 61.5075 44.1861 61.6813 44.9384 61.9963C45.5482 62.2512 46.1419 63.0227 46.3828 63.872C46.4966 64.273 46.6247 65.0344 46.206 65.6266C42.6716 70.6231 37.5216 70.5589 33.8229 69.6244ZM60.0773 94.2931C53.9401 95.6209 51.7672 92.459 50.3353 88.8445C49.411 86.5108 48.9569 75.988 49.2791 64.3675C49.2834 64.2128 49.2616 64.0635 49.2193 63.9232C49.1826 63.6521 49.1261 63.378 49.0479 63.102C48.5684 61.4112 47.4006 59.9968 45.9996 59.4105C45.443 59.1776 44.4211 58.7503 43.1933 59.0674C43.4553 57.9781 43.9094 56.7483 44.4015 55.4163L44.6081 54.8558C44.8408 54.2242 45.1323 53.5698 45.441 52.8773C47.1084 49.1369 49.3921 44.0139 46.9136 32.4401C45.9852 28.1053 42.8851 25.9885 38.1854 26.48C35.3678 26.7744 32.7903 27.9223 31.5047 28.5804C31.2283 28.7219 30.9754 28.8584 30.7393 28.9916C31.098 24.6237 32.4539 16.4613 37.5251 11.297C40.7179 8.04555 44.9704 6.43983 50.1516 6.52628C60.3602 6.69514 66.9066 11.985 70.6011 16.393C73.7845 20.1917 75.5085 24.0179 76.1965 26.0815C71.0227 25.5504 67.5039 26.5818 65.7199 29.1566C61.8393 34.7577 67.843 45.6292 70.7285 50.854C71.2576 51.8117 71.7143 52.6391 71.858 52.9907C72.7976 55.2901 74.014 56.8251 74.9022 57.9458C75.1744 58.2891 75.4386 58.6221 75.6395 58.9129C74.0725 59.3692 71.2578 60.423 71.5142 65.691C71.3074 68.3346 69.8361 80.7106 69.0888 85.0832C68.1023 90.8598 65.997 93.0116 60.0773 94.2931ZM85.6944 64.6929C84.0921 65.444 81.4106 66.0074 78.8632 66.1282C76.0495 66.2614 74.6174 65.81 74.2805 65.5325C74.1221 62.2496 75.3326 61.9065 76.6133 61.5434C76.8145 61.4862 77.0109 61.4307 77.2004 61.3638C77.3182 61.4606 77.4472 61.5567 77.5884 61.6508C79.8499 63.1579 83.8835 63.3205 89.5777 62.1338C89.5986 62.1293 89.6195 62.1252 89.6402 62.121C88.8723 62.846 87.558 63.8192 85.6944 64.6929Z" fill="white"/>
</svg>
