<svg width="100" height="100" viewBox="0 0 100 100" fill="none" xmlns="http://www.w3.org/2000/svg">
<path fill-rule="evenodd" clip-rule="evenodd" d="M39.3446 0C31.4977 0 25.1368 6.15905 25.1368 13.7566V23.2805H49.7271V25.926H14.2077C6.36101 25.926 0 32.0851 0 39.6826V60.3176C0 67.9151 6.36101 74.0741 14.2077 74.0741H22.4045V62.4341C22.4045 54.8365 28.7656 48.6772 36.6124 48.6772H62.8419C69.4816 48.6772 74.8637 43.4658 74.8637 37.0372V13.7566C74.8637 6.15905 68.503 0 60.6561 0H39.3446ZM36.066 16.9312C38.7821 16.9312 40.9839 14.7992 40.9839 12.1693C40.9839 9.53941 38.7821 7.40741 36.066 7.40741C33.3495 7.40741 31.1477 9.53941 31.1477 12.1693C31.1477 14.7992 33.3495 16.9312 36.066 16.9312Z" fill="url(#paint0_linear_513_27)"/>
<path fill-rule="evenodd" clip-rule="evenodd" d="M60.6559 99.9999C68.5028 99.9999 74.8639 93.841 74.8639 86.2435V76.7195H50.2734V74.0742H85.7929C93.6397 74.0742 100 67.9149 100 60.3174V39.6823C100 32.0848 93.6397 25.9258 85.7929 25.9258H77.596V37.5659C77.596 45.1637 71.2349 51.3227 63.3885 51.3227H37.1586C30.5189 51.3227 25.1367 56.5341 25.1367 62.9627V86.2435C25.1367 93.841 31.4979 99.9999 39.3444 99.9999H60.6559ZM63.9349 83.0688C61.2184 83.0688 59.0166 85.2006 59.0166 87.8306C59.0166 90.4606 61.2184 92.5924 63.9349 92.5924C66.651 92.5924 68.8528 90.4606 68.8528 87.8306C68.8528 85.2006 66.651 83.0688 63.9349 83.0688Z" fill="url(#paint1_linear_513_27)"/>
<defs>
<linearGradient id="paint0_linear_513_27" x1="37.432" y1="0" x2="37.432" y2="74.0741" gradientUnits="userSpaceOnUse">
<stop stop-color="#327EBD"/>
<stop offset="1" stop-color="#1565A7"/>
</linearGradient>
<linearGradient id="paint1_linear_513_27" x1="62.5688" y1="25.9258" x2="62.5688" y2="99.9999" gradientUnits="userSpaceOnUse">
<stop stop-color="#FFDA4B"/>
<stop offset="1" stop-color="#F9C600"/>
</linearGradient>
</defs>
</svg>
