<svg width="113" height="100" viewBox="0 0 113 100" fill="none" xmlns="http://www.w3.org/2000/svg">
<path d="M92.9087 32.4119C91.7364 32.0105 90.5218 31.6308 89.2711 31.2717C89.4767 30.4373 89.6653 29.6136 89.8331 28.8039C92.5867 15.5092 90.7863 4.79887 84.6385 1.27257C78.7435 -2.10869 69.1027 1.41681 59.366 9.84504C58.4297 10.6555 57.4908 11.5136 56.5523 12.4128C55.927 11.8179 55.3026 11.2429 54.6799 10.6929C44.4755 1.6809 34.2472 -2.11689 28.1055 1.41961C22.2161 4.81067 20.4721 14.8794 22.9507 27.4789C23.1901 28.6959 23.4698 29.9387 23.7862 31.2023C22.3386 31.611 20.9411 32.0468 19.604 32.5103C7.64045 36.659 0 43.161 0 49.9053C0 56.8709 8.20203 63.8575 20.663 68.0938C21.6463 68.4281 22.6667 68.7442 23.7182 69.0443C23.3769 70.4109 23.08 71.7501 22.8308 73.0563C20.4674 85.4372 22.3131 95.2681 28.1867 98.6377C34.2537 102.118 44.4357 98.5407 54.3504 89.9204C55.1341 89.239 55.9205 88.5164 56.7084 87.7589C57.7296 88.737 58.7491 89.6627 59.7633 90.531C69.3668 98.7509 78.8519 102.07 84.7201 98.6911C90.781 95.2012 92.7508 84.6405 90.1935 71.7917C89.9982 70.8104 89.7709 69.8079 89.5157 68.7876C90.2307 68.5773 90.9327 68.3603 91.6172 68.1346C104.571 63.8655 113 56.9639 113 49.9053C113 43.1366 105.113 36.5908 92.9087 32.4119ZM90.099 63.577C89.4811 63.7804 88.8471 63.9771 88.201 64.1678C86.7709 59.6646 84.8408 54.8761 82.4788 49.9287C84.7328 45.0992 86.5883 40.3719 87.9784 35.898C89.1343 36.2307 90.2563 36.5816 91.3374 36.9519C101.794 40.5324 108.173 45.8262 108.173 49.9053C108.173 54.2503 101.284 59.8906 90.099 63.577ZM85.4579 72.7242C86.5887 78.4058 86.7502 83.5426 86.0012 87.5583C85.3282 91.1666 83.9747 93.5723 82.3012 94.5358C78.7401 96.5861 71.1246 93.921 62.9115 86.8912C61.97 86.0854 61.0216 85.2249 60.0702 84.3142C63.2542 80.8506 66.4364 76.8239 69.5422 72.3519C75.0049 71.8698 80.166 71.0815 84.8462 70.0054C85.0768 70.9303 85.2815 71.8374 85.4579 72.7242ZM38.5243 94.1815C35.045 95.4037 32.2739 95.4387 30.5988 94.478C27.0344 92.4332 25.5526 84.5399 27.5739 73.9518C27.8054 72.7392 28.0809 71.4936 28.3985 70.2204C33.0275 71.2386 38.1507 71.9712 43.6265 72.4127C46.7532 76.7887 50.0274 80.8109 53.3268 84.3328C52.606 85.0251 51.8879 85.6841 51.1739 86.3051C46.7896 90.1168 42.3962 92.8213 38.5243 94.1815ZM22.2242 63.5504C16.7142 61.6772 12.1638 59.2426 9.0448 56.586C6.24213 54.1987 4.82712 51.8285 4.82712 49.9053C4.82712 45.8126 10.9616 40.5924 21.193 37.0443C22.4344 36.6138 23.7339 36.2081 25.0826 35.8269C26.4966 40.402 28.3515 45.1852 30.5899 50.0222C28.3225 54.9309 26.4413 59.7904 25.0134 64.419C24.0519 64.1442 23.1205 63.8549 22.2242 63.5504ZM27.6881 26.5568C25.5645 15.7619 26.9749 7.61854 30.524 5.57511C34.3044 3.39823 42.6639 6.502 51.4746 14.2834C52.0377 14.7808 52.6031 15.3013 53.1702 15.8399C49.887 19.3464 46.6428 23.3384 43.5439 27.6886C38.2294 28.1786 33.1422 28.9656 28.4649 30.0195C28.1709 28.843 27.9104 27.687 27.6881 26.5568ZM76.4312 38.5284C75.3131 36.6074 74.1652 34.7318 72.995 32.9074C76.6004 33.3608 80.0547 33.9626 83.2987 34.699C82.3248 37.8035 81.1109 41.0496 79.682 44.3772C78.657 42.4416 77.5729 40.49 76.4312 38.5284ZM56.5539 19.2714C58.7805 21.6707 61.0103 24.3496 63.2035 27.2561C60.9934 27.1522 58.756 27.0982 56.5 27.0982C54.2654 27.0982 52.0444 27.151 49.8479 27.2531C52.0434 24.3736 54.2925 21.6983 56.5539 19.2714ZM36.5493 38.5616C35.4324 40.488 34.3683 42.429 33.3594 44.3736C31.9537 41.0576 30.7511 37.7967 29.7687 34.6482C32.9927 33.9305 36.4308 33.3438 40.0133 32.899C38.8266 34.7402 37.6692 36.63 36.5493 38.5616ZM40.1165 67.2541C36.4151 66.8434 32.9254 66.2868 29.7021 65.589C30.7002 62.3842 31.9293 59.0538 33.3648 55.6663C34.3764 57.6095 35.4446 59.5513 36.5684 61.4819C37.7131 63.4487 38.8992 65.3753 40.1165 67.2541ZM56.6875 80.8778C54.3995 78.4224 52.1174 75.7064 49.8886 72.7848C52.0522 72.8693 54.2581 72.9125 56.5 72.9125C58.8032 72.9125 61.0801 72.8609 63.3212 72.7616C61.1208 75.7358 58.899 78.456 56.6875 80.8778ZM79.7281 55.4937C81.2384 58.9177 82.5116 62.2308 83.5226 65.3809C80.2462 66.1244 76.7088 66.7232 72.9817 67.1681C74.1547 65.3191 75.3127 63.4113 76.4505 61.4489C77.6016 59.4635 78.6946 57.4751 79.7281 55.4937ZM72.2691 59.0502C70.5027 62.0965 68.6892 65.0046 66.8482 67.7497C63.495 67.9882 60.0308 68.111 56.5 68.111C52.9835 68.111 49.5629 68.0024 46.2691 67.7897C44.3539 65.0086 42.501 62.0919 40.7458 59.0764C38.9953 56.069 37.3846 53.0363 35.9247 50.0206C37.3842 46.9978 38.9911 43.9617 40.7315 40.9597L40.7311 40.9603C42.4762 37.9504 44.3128 35.0479 46.2104 32.2842C49.571 32.0315 53.0171 31.8997 56.4998 31.8997C59.9982 31.8997 63.4489 32.0326 66.8085 32.2874C68.6771 35.0309 70.5012 37.924 72.2532 40.9343C74.025 43.9785 75.6526 46.9944 77.1245 49.9523C75.657 52.9611 74.033 56.0074 72.2691 59.0502ZM82.2272 5.43226C86.0112 7.60274 87.4828 16.3563 85.1053 27.8348C84.9536 28.5673 84.7829 29.3133 84.5974 30.0693C79.9093 28.9934 74.8185 28.1928 69.4885 27.6954C66.3835 23.2974 63.1659 19.2992 59.9362 15.8377C60.8046 15.0068 61.6717 14.2146 62.5352 13.467C70.8776 6.24572 78.6747 3.39463 82.2272 5.43226ZM56.5 39.8688C62.0727 39.8688 66.5905 44.3622 66.5905 49.9053C66.5905 55.4482 62.0727 59.9418 56.5 59.9418C50.9273 59.9418 46.4095 55.4482 46.4095 49.9053C46.4095 44.3622 50.9273 39.8688 56.5 39.8688Z" fill="#00D8FF"/>
</svg>
