<svg width="88" height="100" viewBox="0 0 88 100" fill="none" xmlns="http://www.w3.org/2000/svg">
<path fill-rule="evenodd" clip-rule="evenodd" d="M64.632 14.5721C66.2801 16.2073 68.1477 18.0594 68.1477 18.0594C68.1477 18.0594 75.8378 18.6281 76.2006 18.6593C76.5665 18.6906 77.0074 18.9687 77.0762 19.4719C77.145 19.975 88 93.3156 88 93.3156L61.3634 99.0729L64.632 14.5721ZM60.5459 11.7942C60.3418 11.8204 60.1648 11.8605 60.0416 11.8969C59.976 11.9156 58.8752 12.2563 57.0519 12.8188C55.2662 7.68753 52.117 2.9719 46.5785 2.9719C46.4252 2.9719 46.2657 2.97817 46.1094 2.98754C44.5332 0.906294 42.5817 0 40.8961 0C27.9896 0 21.8225 16.125 19.8898 24.3156C14.8736 25.8688 11.3116 26.9719 10.8581 27.1156C8.05602 27.9938 7.96846 28.0813 7.60256 30.7157C7.32423 32.7126 0 89.3157 0 89.3157L57.0738 100L57.1345 99.9869L60.5459 11.7942ZM45.6872 15.775C45.6872 15.9719 45.6841 16.1532 45.6841 16.3344C42.5411 17.3063 39.1292 18.3625 35.7079 19.4219C37.6281 12.0156 41.2276 8.43745 44.3768 7.08745C45.1681 9.07495 45.6872 11.9282 45.6872 15.775ZM40.5396 3.45942C41.0994 3.45942 41.6592 3.65003 42.1971 4.01878C38.0596 5.96253 33.6282 10.8625 31.7549 20.6437C29.0185 21.4906 26.3447 22.3188 23.8709 23.0844C26.0632 15.6219 31.2702 3.45942 40.5396 3.45942ZM42.7631 47.0688C42.7631 47.0688 39.4231 45.2874 35.3295 45.2874C29.325 45.2874 29.0217 49.0531 29.0217 50C29.0217 55.1781 42.5255 57.1625 42.5255 69.2875C42.5255 78.825 36.4709 84.9687 28.3055 84.9687C18.5075 84.9687 13.4976 78.875 13.4976 78.875L16.1214 70.2156C16.1214 70.2156 21.2721 74.6344 25.6191 74.6344C28.4556 74.6344 29.6127 72.4 29.6127 70.7687C29.6127 64.0156 18.5326 63.7125 18.5326 52.6156C18.5326 43.2781 25.2407 34.2406 38.782 34.2406C43.9984 34.2406 46.5785 35.7344 46.5785 35.7344L42.7631 47.0688ZM49.0679 15.2875C49.0679 14.9469 49.071 14.6125 49.071 14.2469C49.071 11.0594 48.6269 8.49062 47.917 6.45625C50.7723 6.8125 52.6736 10.0593 53.8964 13.7937C52.4641 14.2374 50.8348 14.7407 49.0679 15.2875Z" fill="#81BF37"/>
</svg>
