<svg width="105" height="105" viewBox="0 0 105 105" fill="none" xmlns="http://www.w3.org/2000/svg">
<g clip-path="url(#clip0_339_170)">
<path fill-rule="evenodd" clip-rule="evenodd" d="M0 52.4984C0 73.2792 12.0753 91.2381 29.5879 99.7466L4.5447 31.1334C1.63414 37.66 0 44.8857 0 52.4984ZM87.9409 49.8503C87.9409 43.3598 85.6079 38.8677 83.6128 35.373C80.9516 31.0449 78.4545 27.3829 78.4545 23.0581C78.4545 18.2312 82.1132 13.739 87.2715 13.739C87.5045 13.739 87.7243 13.7685 87.9507 13.7816C78.612 5.22386 66.1658 0 52.499 0C34.1562 0 18.0219 9.41091 8.63391 23.6618C9.8677 23.7012 11.0293 23.7242 12.0137 23.7242C17.5034 23.7242 26.0054 23.0581 26.0054 23.0581C28.8339 22.8907 29.1686 27.0515 26.3401 27.3829C26.3401 27.3829 23.4951 27.7175 20.3319 27.8849L39.4491 84.7508L50.9404 50.2933L42.7633 27.8849C39.9347 27.7175 37.2539 27.3829 37.2539 27.3829C34.4253 27.2155 34.7568 22.8907 37.5886 23.0581C37.5886 23.0581 46.2579 23.7242 51.4162 23.7242C56.9059 23.7242 65.4078 23.0581 65.4078 23.0581C68.2396 22.8907 68.5711 27.0515 65.7426 27.3829C65.7426 27.3829 62.8944 27.7175 59.7344 27.8849L78.7072 84.3177L83.9475 66.8214C86.2117 59.5565 87.9409 54.3424 87.9409 49.8503ZM98.5685 27.3117C98.795 28.9852 98.923 30.7768 98.923 32.7096C98.923 38.0352 97.9254 44.0236 94.9295 51.5149L78.8935 97.8771C94.5029 88.7779 105 71.8659 105 52.4993C105 43.3706 102.667 34.7899 98.5685 27.3117ZM53.421 57.0909L37.6673 102.863C42.3727 104.247 47.3473 105.002 52.499 105.002C58.6122 105.002 64.476 103.945 69.9328 102.026C69.795 101.799 69.6637 101.563 69.5587 101.304L53.421 57.0909Z" fill="#00759D"/>
</g>
<defs>
<clipPath id="clip0_339_170">
<rect width="105" height="105" fill="white"/>
</clipPath>
</defs>
</svg>
