<svg xmlns="http://www.w3.org/2000/svg" version="1.1" xmlns:xlink="http://www.w3.org/1999/xlink" xmlns:svgjs="http://svgjs.dev/svgjs" width="125" height="105"><svg width="125" height="105" viewBox="0 0 125 105" fill="none" xmlns="http://www.w3.org/2000/svg">
<path d="M84.2859 20.0278H16.8761L23.2826 29.8035L27.1562 35.7125H77.6222L69.306 55.3183H19.0432V105H0V0.0407715H92.7511L84.2859 20.0278Z" fill="#3799A6"></path>
<path d="M125 0H100.39V105H125V0Z" fill="#6BC0BC"></path>
<path d="M100.39 0L67.8974 82.9571L60.4209 60.9686H41.9736L57.6579 105H77.6221L110.833 23.9626L100.39 0Z" fill="#6BC0BC"></path>
<path d="M27.251 35.7124H77.6221L69.3059 55.3182H40.416L27.251 35.7124Z" fill="#33899A"></path>
<path d="M84.2861 20.0278H16.8763L23.2828 29.8035L3.12891 0.0407715H92.7513L84.2861 20.0278Z" fill="#33899A"></path>
<path d="M110.833 23.9626L100.39 105V49.4366L110.833 23.9626Z" fill="#33899A"></path>
</svg><style>@media (prefers-color-scheme: light) { :root { filter: none; } }
@media (prefers-color-scheme: dark) { :root { filter: none; } }
</style></svg>