<svg width="100" height="100" viewBox="0 0 100 100" fill="none" xmlns="http://www.w3.org/2000/svg">
<path d="M10 9.5H9.5V10V35V35.5H10H35H35.5V35V10V9.5H35H10ZM10 64.5H9.5V65V90V90.5H10H35H35.5V90V65V64.5H35H10ZM65 64.5H64.5V65V90V90.5H65H90H90.5V90V65V64.5H90H65ZM0.5 0.500001H44.5V44.5H0.5V0.500001ZM77.5 9.5C74.0522 9.5 70.7456 10.8696 68.3076 13.3076C65.8696 15.7456 64.5 19.0522 64.5 22.5C64.5 25.9478 65.8696 29.2544 68.3076 31.6924C70.7456 34.1304 74.0522 35.5 77.5 35.5C80.9478 35.5 84.2544 34.1304 86.6924 31.6924C89.1304 29.2544 90.5 25.9478 90.5 22.5C90.5 19.0522 89.1304 15.7456 86.6924 13.3076C84.2544 10.8696 80.9478 9.5 77.5 9.5ZM55.5 22.5C55.5 19.6109 56.069 16.7501 57.1746 14.081C58.2803 11.4118 59.9008 8.98654 61.9437 6.94365C63.9865 4.90076 66.4118 3.28025 69.081 2.17465C71.7501 1.06905 74.6109 0.5 77.5 0.5C80.3891 0.5 83.2499 1.06905 85.919 2.17465C88.5882 3.28025 91.0135 4.90076 93.0563 6.94365C95.0992 8.98654 96.7197 11.4118 97.8253 14.081C98.9309 16.7501 99.5 19.6109 99.5 22.5C99.5 28.3348 97.1821 33.9305 93.0563 38.0563C88.9305 42.1821 83.3348 44.5 77.5 44.5C71.6652 44.5 66.0695 42.1821 61.9437 38.0563C57.8179 33.9305 55.5 28.3348 55.5 22.5ZM0.5 55.5H44.5V99.5H0.5V55.5ZM55.5 55.5H99.5V99.5H55.5V55.5Z" fill="#6BC0BC" stroke="#6BC0BC"/>
</svg>
