<svg width="105" height="106" viewBox="0 0 105 106" fill="none" xmlns="http://www.w3.org/2000/svg">
<g clip-path="url(#clip0_339_182)">
<path d="M0 92.3323C0 99.8816 6.06151 106 13.5388 106H91.4612C98.9393 106 105 99.8808 105 92.3323V13.6677C105 6.11841 98.9385 0 91.4612 0H13.5388C6.06068 0 0 6.11924 0 13.6677V92.3323Z" fill="#563D7C"/>
<path d="M43.5407 46.8877V31.8764H56.6295C57.8761 31.8764 59.0781 31.9813 60.2356 32.191C61.3932 32.4008 62.4171 32.7753 63.3075 33.3146C64.1979 33.854 64.9102 34.603 65.4445 35.5618C65.9787 36.5206 66.2458 37.7491 66.2458 39.2472C66.2458 41.9438 65.4445 43.8914 63.8417 45.0899C62.239 46.2884 60.1911 46.8877 57.698 46.8877H43.5407ZM29.5615 20.9102V85.0898H60.3692C63.2185 85.0898 65.9935 84.7303 68.6944 84.0112C71.3953 83.2921 73.7993 82.1835 75.9066 80.6854C78.0139 79.1872 79.6908 77.2547 80.9373 74.8876C82.1839 72.5206 82.8072 69.7191 82.8072 66.4831C82.8072 62.4681 81.8426 59.0375 79.9134 56.191C77.9842 53.3446 75.0607 51.3521 71.143 50.2135C73.9923 48.8352 76.144 47.0674 77.5983 44.9101C79.0527 42.7528 79.7798 40.0562 79.7798 36.8202C79.7798 33.824 79.2901 31.3072 78.3107 29.2697C77.3312 27.2322 75.9511 25.5993 74.1703 24.3708C72.3895 23.1424 70.2526 22.2585 67.7595 21.7191C65.2664 21.1798 62.5062 20.9102 59.4788 20.9102H29.5615ZM43.5407 74.1236V56.5056H58.7665C61.7938 56.5056 64.2276 57.2097 66.0677 58.618C67.9079 60.0262 68.828 62.3782 68.828 65.6741C68.828 67.352 68.546 68.7303 67.9821 69.809C67.4182 70.8876 66.6613 71.7415 65.7116 72.3708C64.7618 73 63.6637 73.4494 62.4171 73.7191C61.1706 73.9887 59.8647 74.1236 58.4994 74.1236H43.5407Z" fill="white"/>
</g>
<defs>
<clipPath id="clip0_339_182">
<rect width="105" height="106" fill="white"/>
</clipPath>
</defs>
</svg>
