<svg width="100" height="100" viewBox="0 0 100 100" fill="none" xmlns="http://www.w3.org/2000/svg">
<path d="M33.3335 50H33.371M49.9793 50H50.021M66.6293 50H66.6668M75.0002 87.5C80.1335 87.5 84.296 82.7042 84.296 76.7875C84.296 67.4208 83.8793 61.1958 90.3043 53.7875C92.121 51.6958 92.121 48.3042 90.3043 46.2125C83.8793 38.8083 84.296 32.5792 84.296 23.2125C84.296 17.2958 80.1335 12.5 75.0002 12.5M25.0002 87.5C19.8668 87.5 15.7043 82.7042 15.7043 76.7875C15.7043 67.4208 16.121 61.1958 9.696 53.7875C7.87933 51.6958 7.87933 48.3042 9.696 46.2125C15.9793 38.9708 15.7043 32.6667 15.7043 23.2083C15.7043 17.2958 19.8668 12.5 25.0002 12.5" stroke="#6BC0BC" stroke-width="6" stroke-linecap="round" stroke-linejoin="round"/>
</svg>
