<svg width="100" height="100" viewBox="0 0 100 100" fill="none" xmlns="http://www.w3.org/2000/svg">
<g clip-path="url(#clip0_336_20)">
<path d="M49.9999 5.55552C46.009 5.56929 42.0381 6.12054 38.1944 7.19441L40.3333 12.3611C48.6407 10.1615 57.4414 10.7612 65.3736 14.0675C73.3058 17.3738 79.9272 23.2023 84.213 30.651C88.4988 38.0997 90.2101 46.7533 89.0821 55.2726C87.9541 63.7919 84.0496 71.7019 77.973 77.7786C71.8963 83.8552 63.9863 87.7597 55.467 88.8877C46.9477 90.0157 38.2941 88.3044 30.8454 84.0186C23.3967 79.7327 17.5682 73.1114 14.2619 65.1792C10.9556 57.247 10.3559 48.4463 12.5555 40.1389L7.38883 37.9722C4.86747 46.9416 5.22867 56.4766 8.42138 65.2295C11.6141 73.9825 17.4768 81.5107 25.181 86.7503C32.8852 91.9899 42.0412 94.6758 51.355 94.4284C60.6688 94.181 69.6693 91.0129 77.0845 85.3717C84.4996 79.7306 89.9545 71.9017 92.678 62.9916C95.4016 54.0815 95.2562 44.5408 92.2622 35.7179C89.2683 26.895 83.5773 19.236 75.9936 13.8236C68.4098 8.41111 59.3169 5.51884 49.9999 5.55552Z" fill="#6BC0BC"/>
<path d="M20.6943 43.611C19.3079 49.9459 20.0095 56.5595 22.6943 62.4625C25.3791 68.3655 29.9027 73.2407 35.5887 76.359C41.2746 79.4773 47.8172 80.6711 54.238 79.7619C60.6588 78.8526 66.6127 75.8892 71.2093 71.3148C75.8059 66.7404 78.798 60.8009 79.7383 54.3845C80.6785 47.9682 79.5163 41.4199 76.4255 35.7189C73.3347 30.018 68.4814 25.4709 62.5914 22.7576C56.7015 20.0444 50.0914 19.3108 43.7499 20.6666L45.4721 24.9999C50.8675 23.9897 56.4446 24.7359 61.3847 27.1289C66.3248 29.5219 70.3676 33.4355 72.9196 38.2954C75.4715 43.1552 76.3983 48.7052 75.5637 54.1306C74.7291 59.5559 72.1772 64.5708 68.2826 68.4389C64.388 72.3071 59.3559 74.8248 53.925 75.6224C48.4941 76.4201 42.9506 75.4556 38.1082 72.8706C33.2658 70.2856 29.3798 66.2162 27.0205 61.26C24.6612 56.3037 23.953 50.7216 24.9999 45.3332L20.6943 43.611Z" fill="#6BC0BC"/>
<path d="M50.0002 61.3612C47.2158 61.3199 44.544 60.255 42.4947 58.3696C40.4453 56.4842 39.1618 53.9103 38.8891 51.1389L34.3613 49.25V50C34.3615 53.1331 35.2928 56.1955 37.0371 58.7982C38.7813 61.4009 41.2597 63.4265 44.1575 64.6177C47.0553 65.809 50.2418 66.1121 53.3122 65.4886C56.3827 64.8651 59.1985 63.3431 61.4022 61.116C63.6058 58.8888 65.0979 56.057 65.6888 52.9801C66.2797 49.9032 65.9428 46.7202 64.7209 43.8351C63.4991 40.9501 61.4473 38.4933 58.8263 36.7768C56.2052 35.0603 53.1331 34.1614 50.0002 34.1945H49.3336L51.1947 38.8889C53.971 39.31 56.4913 40.7491 58.2648 42.9263C60.0384 45.1034 60.9382 47.8626 60.7892 50.6668C60.6401 53.4709 59.4529 56.1192 57.4585 58.096C55.4642 60.0729 52.8055 61.2368 50.0002 61.3612Z" fill="#6BC0BC"/>
<path d="M22.7777 37.0555C23.0341 37.3172 23.3836 37.467 23.7499 37.4722H33.8888L48.8055 52.3889C49.3285 52.9156 50.0394 53.213 50.7818 53.2156C51.5241 53.2182 52.2371 52.9258 52.7638 52.4027C53.2906 51.8797 53.5879 51.1688 53.5905 50.4265C53.5931 49.6841 53.3008 48.9712 52.7777 48.4444L37.5832 33.3333V23.6389C37.578 23.2725 37.4283 22.9231 37.1666 22.6666L21.6388 7.13886C21.4447 6.94852 21.199 6.81935 20.9321 6.76734C20.6653 6.71534 20.389 6.7428 20.1376 6.84631C19.8862 6.94983 19.6708 7.12485 19.5179 7.34967C19.365 7.57449 19.2815 7.83924 19.2777 8.11108V19.2222H8.33325C8.06141 19.226 7.79666 19.3095 7.57184 19.4624C7.34701 19.6152 7.172 19.8307 7.06848 20.0821C6.96497 20.3335 6.93751 20.6098 6.98951 20.8766C7.04152 21.1435 7.17069 21.3892 7.36103 21.5833L22.7777 37.0555Z" fill="#6BC0BC"/>
</g>
<defs>
<clipPath id="clip0_336_20">
<rect width="100" height="100" fill="white"/>
</clipPath>
</defs>
</svg>
