<svg width="100" height="100" viewBox="0 0 100 100" fill="none" xmlns="http://www.w3.org/2000/svg">
<path d="M59.0835 17.8168C59.8841 18.0307 60.5669 18.5538 60.9818 19.2711C61.3967 19.9884 61.5097 20.8411 61.296 21.6418L44.7418 83.4334C44.5269 84.2346 44.0025 84.9176 43.284 85.3321C42.5655 85.7467 41.7118 85.8588 40.9106 85.6439C40.1094 85.4289 39.4264 84.9045 39.0119 84.186C38.5974 83.4675 38.4852 82.6138 38.7002 81.8126L55.2585 20.0209C55.3648 19.6245 55.5483 19.2528 55.7983 18.9273C56.0483 18.6017 56.36 18.3286 56.7156 18.1235C57.0712 17.9184 57.4637 17.7854 57.8707 17.7321C58.2777 17.6787 58.6912 17.7061 59.0877 17.8126M68.5127 30.5334C69.0669 29.9175 69.8431 29.5469 70.6706 29.5031C71.4981 29.4594 72.309 29.746 72.9252 30.3001L80.1627 36.8168C83.2335 39.5751 85.7752 41.8668 87.5252 43.9418C89.3585 46.1293 90.6668 48.4751 90.6668 51.3751C90.6668 54.2709 89.3627 56.6168 87.5252 58.8001C85.7752 60.8793 83.2335 63.1709 80.1627 65.9293L72.9252 72.4459C72.3091 73.0007 71.4979 73.288 70.67 73.2446C69.8421 73.2012 69.0653 72.8308 68.5106 72.2147C67.9558 71.5986 67.6685 70.7874 67.7119 69.9595C67.7553 69.1316 68.1257 68.3548 68.7418 67.8001L75.8127 61.4376C79.096 58.4834 81.3085 56.4793 82.7418 54.7793C84.1168 53.1418 84.4168 52.1876 84.4168 51.3709C84.4168 50.5543 84.1168 49.6043 82.7418 47.9668C81.3085 46.2626 79.096 44.2584 75.8127 41.3084L68.7418 34.9459C68.4362 34.6714 68.1877 34.3394 68.0106 33.9687C67.8334 33.5981 67.7311 33.1962 67.7094 32.786C67.6878 32.3758 67.7472 31.9653 67.8843 31.5781C68.0214 31.1908 68.2335 30.8344 68.5085 30.5293M31.2585 34.9459C31.8746 34.3912 32.245 33.6144 32.2884 32.7865C32.3318 31.9586 32.0445 31.1474 31.4897 30.5314C30.935 29.9153 30.1582 29.5448 29.3303 29.5014C28.5025 29.4581 27.6912 29.7454 27.0752 30.3001L19.8377 36.8168C16.7668 39.5751 14.2252 41.8668 12.4752 43.9418C10.6418 46.1293 9.3335 48.4751 9.3335 51.3751C9.3335 54.2709 10.6377 56.6168 12.4752 58.8001C14.2252 60.8793 16.7668 63.1709 19.8377 65.9293L27.0752 72.4459C27.6912 73.0007 28.5025 73.288 29.3303 73.2446C30.1582 73.2012 30.935 72.8308 31.4897 72.2147C32.0445 71.5986 32.3318 70.7874 32.2884 69.9595C32.245 69.1316 31.8746 68.3548 31.2585 67.8001L24.1877 61.4376C20.9043 58.4834 18.6918 56.4793 17.2585 54.7793C15.8835 53.1418 15.5835 52.1876 15.5835 51.3709C15.5835 50.5543 15.8835 49.6043 17.2585 47.9668C18.6918 46.2626 20.9043 44.2584 24.1877 41.3084L31.2585 34.9459Z" fill="#6BC0BC"/>
</svg>
