<svg width="300" height="300" viewBox="0 0 300 300" fill="none" xmlns="http://www.w3.org/2000/svg">
<path d="M150 0C67.166 0 0 67.1557 0 150C0 232.844 67.1594 300 150 300C232.847 300 300 232.844 300 150C300 67.1557 232.847 0 150 0ZM150 44.8517C177.409 44.8517 199.62 67.0701 199.62 94.4674C199.62 121.871 177.409 144.083 150 144.083C122.604 144.083 100.393 121.871 100.393 94.4674C100.393 67.0701 122.604 44.8517 150 44.8517ZM149.967 260.782C122.63 260.782 97.5929 250.826 78.2812 234.347C73.5768 230.334 70.8622 224.45 70.8622 218.276C70.8622 190.49 93.3497 168.252 121.141 168.252H178.872C206.67 168.252 229.072 190.49 229.072 218.276C229.072 224.456 226.37 230.327 221.659 234.34C202.354 250.826 177.31 260.782 149.967 260.782Z" fill="#DCDCDC"/>
</svg>
