<svg width="105" height="105" viewBox="0 0 105 105" fill="none" xmlns="http://www.w3.org/2000/svg">
<path d="M46.3803 13.125H59.3904V72.742C53.8369 73.8818 48.1842 74.4698 42.515 74.4975C26.6271 74.4811 18.3584 67.3837 18.3584 53.7534C18.3584 40.6284 27.1292 32.0972 40.7234 32.0972C42.63 32.06 44.5328 32.2808 46.3803 32.7534V13.125ZM46.3803 43.1222C44.9659 42.6556 43.4823 42.4337 41.9932 42.4659C35.4307 42.4659 31.6146 46.4789 31.6146 53.5106C31.6146 60.3586 35.247 64.1386 41.9112 64.1386C43.4069 64.1382 44.9006 64.0286 46.3803 63.8105V43.1386V43.1222Z" fill="#44B78B"/>
<path d="M80.0623 33.0061V62.8655C80.0623 73.1456 79.2912 78.0872 77.0337 82.3495C74.7297 86.6834 70.9623 90.059 66.4024 91.875L54.334 86.1886C58.7184 84.6873 62.3905 81.6137 64.6404 77.5622C66.4976 73.8839 67.0849 69.6216 67.0849 58.4095V33.0061H80.0623Z" fill="#44B78B"/>
<path d="M80.0791 13.1907H67.0723V26.4075H80.0791V13.1907Z" fill="#44B78B"/>
</svg>
