<svg width="105" height="104" viewBox="0 0 105 104" fill="none" xmlns="http://www.w3.org/2000/svg">
<path d="M0.683371 60.3543V48.78H15.2733V48.1031H0.683371V37.5441H16.1959V36.8672H0V61.0312H16.3326V60.3543H0.683371ZM29.4875 43.6358L23.4396 51.5213L17.5285 43.6358H16.6401L23.0296 52.0289L16.0251 61.0312H16.8451L23.4396 52.5366L30.0683 61.0312H30.9226L23.8838 52.0289L30.3075 43.6358H29.4875ZM32.9727 66.9876V56.1578H33.041C33.451 57.7371 34.2597 59.0062 35.467 59.9651C36.6743 60.924 38.2118 61.4035 40.0797 61.4035C41.287 61.4035 42.3576 61.1609 43.2916 60.6758C44.2255 60.1908 45.0057 59.5308 45.6321 58.696C46.2585 57.8612 46.7369 56.8911 47.0672 55.7855C47.3975 54.68 47.5626 53.518 47.5626 52.2997C47.5626 50.9911 47.3918 49.784 47.0501 48.6784C46.7084 47.5729 46.213 46.614 45.5638 45.8018C44.9146 44.9895 44.1287 44.3578 43.2061 43.9066C42.2836 43.4553 41.2415 43.2297 40.0797 43.2297C39.1913 43.2297 38.3656 43.3594 37.6025 43.6189C36.8394 43.8784 36.1617 44.245 35.5695 44.7188C34.9772 45.1926 34.4647 45.751 34.0319 46.394C33.5991 47.0371 33.2688 47.7421 33.041 48.5092H32.9727V43.6358H32.2893V66.9876H32.9727ZM40.0797 60.7605C37.9385 60.7605 36.2187 60.0328 34.9203 58.5776C33.6219 57.1223 32.9727 55.0297 32.9727 52.2997C32.9727 51.1716 33.1321 50.0999 33.451 49.0846C33.7699 48.0693 34.2312 47.1781 34.8349 46.411C35.4385 45.6438 36.1845 45.0347 37.0729 44.5834C37.9613 44.1322 38.9635 43.9066 40.0797 43.9066C41.2187 43.9066 42.2153 44.1322 43.0695 44.5834C43.9237 45.0347 44.6298 45.6495 45.1879 46.4279C45.746 47.2063 46.1674 48.0975 46.4522 49.1015C46.7369 50.1055 46.8793 51.1716 46.8793 52.2997C46.8793 53.315 46.7483 54.3246 46.4863 55.3286C46.2244 56.3326 45.82 57.2351 45.2733 58.0361C44.7266 58.837 44.0262 59.4913 43.172 59.999C42.3178 60.5066 41.287 60.7605 40.0797 60.7605ZM51.3212 61.0312V51.1828C51.3212 50.2352 51.4579 49.3102 51.7312 48.4077C52.0046 47.5052 52.426 46.7099 52.9954 46.0218C53.5649 45.3336 54.2881 44.7921 55.1651 44.3973C56.0421 44.0025 57.0843 43.8389 58.2916 43.9066V43.2297C57.2437 43.2071 56.3269 43.3199 55.541 43.5681C54.7551 43.8163 54.0775 44.1547 53.508 44.5834C52.9385 45.0121 52.4829 45.5141 52.1412 46.0894C51.7995 46.6648 51.549 47.2796 51.3895 47.9339H51.3212V43.6358H50.6378V61.0312H51.3212ZM59.1458 52.4689H73.8383C73.8838 51.2731 73.7642 50.1224 73.4795 49.0169C73.1948 47.9113 72.7392 46.9299 72.1128 46.0725C71.4863 45.2152 70.6777 44.527 69.6868 44.0081C68.6959 43.4892 67.5171 43.2297 66.1503 43.2297C65.1708 43.2297 64.2141 43.4328 63.2802 43.8389C62.3462 44.245 61.5262 44.8372 60.82 45.6156C60.1139 46.394 59.5444 47.3473 59.1116 48.4754C58.6788 49.6035 58.4624 50.8895 58.4624 52.3335C58.4624 53.6196 58.6105 54.821 58.9066 55.9378C59.2027 57.0546 59.6583 58.0248 60.2733 58.8483C60.8884 59.6718 61.6799 60.3092 62.6481 60.7605C63.6162 61.2117 64.7836 61.426 66.1503 61.4035C68.1549 61.4035 69.8405 60.8451 71.2073 59.7282C72.574 58.6114 73.3827 57.0377 73.6333 55.0071H72.9499C72.6538 56.9249 71.8964 58.3632 70.6777 59.3221C69.459 60.281 67.9271 60.7605 66.082 60.7605C64.8292 60.7605 63.7699 60.5461 62.9043 60.1174C62.0387 59.6888 61.3326 59.1021 60.7859 58.3576C60.2392 57.613 59.8349 56.7388 59.5729 55.7347C59.3109 54.7307 59.1686 53.6421 59.1458 52.4689ZM73.1549 51.792H59.1458C59.2141 50.5737 59.4419 49.4794 59.8292 48.5092C60.2164 47.5391 60.7232 46.7099 61.3497 46.0218C61.9761 45.3336 62.705 44.809 63.5364 44.4481C64.3679 44.0871 65.262 43.9066 66.2187 43.9066C67.3576 43.9066 68.3599 44.1153 69.2255 44.5327C70.0911 44.9501 70.8144 45.5197 71.3952 46.2417C71.9761 46.9637 72.4146 47.8042 72.7107 48.7631C73.0068 49.7219 73.1549 50.7316 73.1549 51.792ZM88.0182 48.78H88.7016C88.7016 46.8396 88.1321 45.4295 86.9932 44.5496C85.8542 43.6697 84.3052 43.2297 82.3462 43.2297C81.2528 43.2297 80.3303 43.3651 79.5786 43.6358C78.8269 43.9066 78.2118 44.2563 77.7335 44.685C77.2551 45.1136 76.9134 45.5874 76.7084 46.1064C76.5034 46.6253 76.4009 47.1217 76.4009 47.5955C76.4009 48.5431 76.5718 49.2989 76.9134 49.863C77.2551 50.427 77.7904 50.867 78.5194 51.1828C79.0205 51.4085 79.59 51.6115 80.2278 51.792C80.8656 51.9725 81.6059 52.1643 82.4487 52.3674C83.2005 52.5478 83.9408 52.7283 84.6697 52.9088C85.3986 53.0893 86.0421 53.3319 86.6002 53.6365C87.1583 53.9411 87.6139 54.3303 87.967 54.8041C88.32 55.2779 88.4966 55.8983 88.4966 56.6654C88.4966 57.41 88.32 58.0417 87.967 58.5606C87.6139 59.0796 87.164 59.5026 86.6173 59.8298C86.0706 60.1569 85.4613 60.3938 84.7893 60.5405C84.1173 60.6871 83.4624 60.7605 82.8246 60.7605C80.7517 60.7605 79.1629 60.3036 78.0581 59.3898C76.9533 58.476 76.4009 57.0377 76.4009 55.0748H75.7175C75.7175 57.2633 76.3155 58.8652 77.5114 59.8805C78.7073 60.8958 80.4783 61.4035 82.8246 61.4035C83.5763 61.4035 84.3337 61.3189 85.0968 61.1496C85.8599 60.9804 86.5433 60.7041 87.1469 60.3205C87.7506 59.9369 88.2403 59.4406 88.6162 58.8314C88.992 58.2222 89.18 57.4777 89.18 56.5977C89.18 55.7629 89.0148 55.0861 88.6845 54.5672C88.3542 54.0482 87.9214 53.6195 87.3861 53.2811C86.8508 52.9427 86.2472 52.6776 85.5752 52.4858C84.9032 52.294 84.2255 52.1079 83.5421 51.9274C82.5854 51.6792 81.7483 51.4649 81.0307 51.2844C80.3132 51.1039 79.6469 50.8895 79.0319 50.6413C78.4396 50.3932 77.967 50.0378 77.6139 49.5753C77.2608 49.1128 77.0843 48.4528 77.0843 47.5955C77.0843 47.4375 77.1298 47.1555 77.221 46.7494C77.3121 46.3433 77.5285 45.9315 77.8702 45.5141C78.2118 45.0967 78.7358 44.7244 79.4419 44.3973C80.1481 44.0701 81.1162 43.9066 82.3462 43.9066C83.1891 43.9066 83.9579 43.9968 84.6526 44.1773C85.3474 44.3578 85.9453 44.6455 86.4465 45.0403C86.9476 45.4351 87.3349 45.9371 87.6082 46.5463C87.8816 47.1555 88.0182 47.9001 88.0182 48.78ZM103.838 48.78H104.522C104.522 46.8396 103.952 45.4295 102.813 44.5496C101.674 43.6697 100.125 43.2297 98.1663 43.2297C97.0729 43.2297 96.1503 43.3651 95.3986 43.6358C94.6469 43.9066 94.0319 44.2563 93.5535 44.685C93.0752 45.1136 92.7335 45.5874 92.5285 46.1064C92.3235 46.6253 92.221 47.1217 92.221 47.5955C92.221 48.5431 92.3918 49.2989 92.7335 49.863C93.0752 50.427 93.6105 50.867 94.3394 51.1828C94.8406 51.4085 95.41 51.6115 96.0478 51.792C96.6857 51.9725 97.426 52.1643 98.2688 52.3674C99.0205 52.5478 99.7608 52.7283 100.49 52.9088C101.219 53.0893 101.862 53.3319 102.42 53.6365C102.978 53.9411 103.434 54.3303 103.787 54.8041C104.14 55.2779 104.317 55.8983 104.317 56.6654C104.317 57.41 104.14 58.0417 103.787 58.5606C103.434 59.0796 102.984 59.5026 102.437 59.8298C101.891 60.1569 101.281 60.3938 100.609 60.5405C99.9374 60.6871 99.2825 60.7605 98.6446 60.7605C96.5717 60.7605 94.9829 60.3036 93.8781 59.3898C92.7733 58.476 92.221 57.0377 92.221 55.0748H91.5376C91.5376 57.2633 92.1355 58.8652 93.3314 59.8805C94.5273 60.8958 96.2984 61.4035 98.6446 61.4035C99.3964 61.4035 100.154 61.3189 100.917 61.1496C101.68 60.9804 102.363 60.7041 102.967 60.3205C103.571 59.9369 104.06 59.4406 104.436 58.8314C104.812 58.2222 105 57.4777 105 56.5977C105 55.7629 104.835 55.0861 104.505 54.5672C104.174 54.0482 103.741 53.6195 103.206 53.2811C102.671 52.9427 102.067 52.6776 101.395 52.4858C100.723 52.294 100.046 52.1079 99.3622 51.9274C98.4055 51.6792 97.5683 51.4649 96.8508 51.2844C96.1333 51.1039 95.467 50.8895 94.8519 50.6413C94.2597 50.3932 93.787 50.0378 93.4339 49.5753C93.0809 49.1128 92.9043 48.4528 92.9043 47.5955C92.9043 47.4375 92.9499 47.1555 93.041 46.7494C93.1321 46.3433 93.3485 45.9315 93.6902 45.5141C94.0319 45.0967 94.5558 44.7244 95.262 44.3973C95.9681 44.0701 96.9362 43.9066 98.1663 43.9066C99.0091 43.9066 99.7779 43.9968 100.473 44.1773C101.167 44.3578 101.765 44.6455 102.267 45.0403C102.768 45.4351 103.155 45.9371 103.428 46.5463C103.702 47.1555 103.838 47.9001 103.838 48.78Z" fill="#222222"/>
</svg>
