<svg width="106" height="106" viewBox="0 0 106 106" fill="none" xmlns="http://www.w3.org/2000/svg">
<path d="M8.56401 57.6812C5.97867 55.0958 5.97867 50.9042 8.56401 48.3188L48.3188 8.56401C50.9042 5.97867 55.0958 5.97867 57.6812 8.56401L97.4359 48.3188C100.021 50.9042 100.021 55.0958 97.4359 57.6812L57.6812 97.4359C55.0958 100.021 50.9042 100.021 48.3188 97.4359L8.56401 57.6812Z" fill="#EE513B"/>
<path d="M40.2435 16.7662L36.2178 20.792L46.6154 31.1897C46.1947 32.0921 45.9598 33.0985 45.9598 34.1598C45.9598 37.1728 47.8529 39.7437 50.5145 40.7477V66.183C47.8529 67.1871 45.9598 69.7579 45.9598 72.7709C45.9598 76.6585 49.1113 79.81 52.9989 79.81C56.8864 79.81 60.038 76.6585 60.038 72.7709C60.038 70.0394 58.4821 67.671 56.208 66.5043V40.7825L66.1472 50.7216C65.7471 51.6057 65.5245 52.5872 65.5245 53.6207C65.5245 57.5083 68.676 60.6598 72.5635 60.6598C76.4511 60.6598 79.6026 57.5083 79.6026 53.6207C79.6026 49.7332 76.4511 46.5816 72.5635 46.5816C71.8079 46.5816 71.0805 46.7006 70.3981 46.9208L59.7236 36.2463C59.928 35.5871 60.038 34.8862 60.038 34.1598C60.038 30.2722 56.8864 27.1206 52.9989 27.1206C52.2725 27.1206 51.5719 27.2307 50.9124 27.4351L40.2435 16.7662Z" fill="white"/>
</svg>
