<svg width="100" height="100" viewBox="0 0 100 100" fill="none" xmlns="http://www.w3.org/2000/svg">
<path d="M48.7584 83.0917C49.3028 83.0917 49.8611 82.9695 50.4334 82.7251C51.0056 82.4806 51.4681 82.182 51.8209 81.8292L84.3042 49.3417C85.3514 48.2945 86.1598 47.2251 86.7292 46.1334C87.2959 45.0362 87.5792 43.8334 87.5792 42.5251C87.5792 41.2001 87.2959 39.914 86.7292 38.6667C86.1598 37.4167 85.3514 36.2778 84.3042 35.2501L68.6792 19.6251C67.6486 18.5778 66.5889 17.8098 65.5 17.3209C64.4139 16.832 63.2084 16.5876 61.8834 16.5876C60.575 16.5876 59.3598 16.832 58.2375 17.3209C57.1153 17.8098 56.0584 18.5765 55.0667 19.6209L51.4334 23.2542L59.1417 30.9834C59.9695 31.7973 60.5875 32.7223 60.9959 33.7584C61.4014 34.7945 61.6042 35.8459 61.6042 36.9126C61.6042 39.082 60.8945 40.8765 59.475 42.2959C58.0556 43.7153 56.2625 44.4237 54.0959 44.4209C53.0264 44.4209 51.9834 44.2584 50.9667 43.9334C49.95 43.6084 49.0348 43.039 48.2209 42.2251L40.25 34.2834L22.2584 52.2709C21.8389 52.6931 21.5236 53.1723 21.3125 53.7084C21.1014 54.2445 20.9959 54.7862 20.9959 55.3334C20.9959 56.3167 21.3111 57.1265 21.9417 57.7626C22.5695 58.4015 23.375 58.7209 24.3584 58.7209C24.9028 58.7209 25.4612 58.5987 26.0334 58.3542C26.6056 58.107 27.0681 57.807 27.4209 57.4542L40.625 44.2501L43.575 47.2001L30.3917 60.4084C29.9695 60.8278 29.6528 61.3056 29.4417 61.8417C29.2334 62.3806 29.1292 62.9223 29.1292 63.4667C29.1292 64.3973 29.457 65.1903 30.1125 65.8459C30.7681 66.5015 31.5612 66.8306 32.4917 66.8334C33.0362 66.8334 33.5945 66.7098 34.1667 66.4626C34.7389 66.2153 35.2014 65.9167 35.5542 65.5667L49.7209 51.4251L52.6709 54.3709L38.525 68.5376C38.1556 68.8903 37.8528 69.3528 37.6167 69.9251C37.3778 70.4973 37.2584 71.0556 37.2584 71.6001C37.2584 72.5278 37.5875 73.3195 38.2459 73.9751C38.9014 74.6362 39.6945 74.9667 40.625 74.9667C41.1695 74.9667 41.7112 74.8612 42.25 74.6501C42.7889 74.439 43.2667 74.1223 43.6834 73.7001L57.85 59.5542L60.8 62.5042L46.6334 76.6709C46.2139 77.0931 45.8986 77.6001 45.6875 78.1917C45.4764 78.7834 45.3709 79.3237 45.3709 79.8126C45.3709 80.7959 45.7167 81.5889 46.4084 82.1917C47.1 82.7945 47.8834 83.0959 48.7584 83.0959M48.7334 87.2626C46.5917 87.2626 44.7584 86.4792 43.2334 84.9126C41.7084 83.3431 41.0389 81.407 41.225 79.1042C38.8639 79.132 36.8987 78.4278 35.3292 76.9917C33.7598 75.5528 33.0139 73.5473 33.0917 70.9751C30.5195 71.0028 28.4917 70.2667 27.0084 68.7667C25.525 67.2667 24.85 65.2917 24.9834 62.8417C22.6667 62.8695 20.7278 62.2167 19.1667 60.8834C17.6084 59.5556 16.8292 57.7056 16.8292 55.3334C16.8292 54.264 17.0362 53.1945 17.45 52.1251C17.8639 51.0528 18.475 50.1112 19.2834 49.3001L40.25 28.3584L51.0084 39.1167C51.3611 39.4862 51.7973 39.7903 52.3167 40.0292C52.8361 40.2681 53.4209 40.3862 54.0709 40.3834C54.9625 40.3834 55.75 40.0723 56.4334 39.4501C57.1167 38.8278 57.4598 38.0167 57.4625 37.0167C57.4625 36.3667 57.3431 35.7834 57.1042 35.2667C56.8653 34.7473 56.5625 34.3112 56.1959 33.9584L41.8625 19.6251C40.8292 18.5778 39.7556 17.8098 38.6417 17.3209C37.5278 16.832 36.3084 16.5876 34.9834 16.5876C33.675 16.5876 32.4862 16.832 31.4167 17.3209C30.35 17.8098 29.2931 18.5778 28.2459 19.6251L15.5625 32.3334C14.6681 33.2223 13.9459 34.2848 13.3959 35.5209C12.8459 36.7542 12.5542 38.0278 12.5209 39.3417C12.4931 40.2834 12.5737 41.1876 12.7625 42.0542C12.9514 42.9209 13.257 43.7376 13.6792 44.5042L10.5209 47.6626C9.82087 46.5459 9.27365 45.2598 8.87921 43.8042C8.48476 42.3487 8.30282 40.8626 8.33337 39.3459C8.36671 37.4515 8.74587 35.639 9.47087 33.9084C10.1959 32.1778 11.2348 30.6348 12.5875 29.2792L25.1917 16.6751C26.6445 15.2362 28.182 14.1667 29.8042 13.4667C31.4264 12.7695 33.1806 12.4209 35.0667 12.4209C36.9528 12.4209 38.6917 12.7709 40.2834 13.4709C41.8778 14.1681 43.3945 15.2362 44.8334 16.6751L48.4584 20.3042L52.0917 16.6751C53.5445 15.2362 55.0681 14.1667 56.6625 13.4667C58.257 12.7695 59.9973 12.4209 61.8834 12.4209C63.7695 12.4209 65.5236 12.7709 67.1459 13.4709C68.7653 14.1681 70.2931 15.2362 71.7292 16.6751L87.2542 32.1959C88.6903 33.632 89.7987 35.2445 90.5792 37.0334C91.3598 38.8223 91.7486 40.6598 91.7459 42.5459C91.7459 44.4348 91.357 46.1751 90.5792 47.7667C89.8014 49.3584 88.6931 50.8751 87.2542 52.3167L54.7667 84.7751C53.9028 85.6417 52.9611 86.2723 51.9417 86.6667C50.925 87.0612 49.8556 87.2584 48.7334 87.2584" fill="#6BC0BC"/>
</svg>
