<svg width="106" height="104" viewBox="0 0 106 104" fill="none" xmlns="http://www.w3.org/2000/svg">
<path d="M53.1646 27.432C74.9877 10.8097 63.7875 0 63.7875 0C65.4543 17.184 45.7555 21.2414 40.4751 33.0499C36.8721 41.1076 42.9426 48.1627 53.1573 57.0551C52.2543 55.0856 50.8614 53.1719 49.4516 51.2346C44.6422 44.6267 39.6324 37.7429 53.1646 27.432Z" fill="#E76F00"/>
<path d="M56.649 60.7003C56.649 60.7003 63.2144 55.5032 58.0151 49.7276C40.39 30.1336 77.2919 21.2415 77.2919 21.2415C54.7616 31.8906 58.1251 38.2116 63.7881 45.8907C69.8513 54.1249 56.649 60.7003 56.649 60.7003Z" fill="#E76F00"/>
<path d="M75.9787 76.1983C96.2025 66.0589 86.852 56.3154 80.3254 57.6281C78.7254 57.9492 78.0122 58.2277 78.0122 58.2277C78.0122 58.2277 78.6062 57.33 79.7404 56.9413C92.6522 52.562 102.582 69.8585 75.5723 76.7092C75.5723 76.7092 75.8853 76.4394 75.9787 76.1983Z" fill="#5382A1"/>
<path d="M33.8964 63.3649C21.243 61.7347 40.8344 57.2452 40.8344 57.2452C40.8344 57.2452 33.2263 56.7502 23.8692 61.114C12.8049 66.2779 51.2376 68.6264 71.1322 63.5781C73.2005 62.2154 76.0592 61.0344 76.0592 61.0344C76.0592 61.0344 67.9181 62.4371 59.8104 63.0971C49.8898 63.8989 39.2391 64.0552 33.8964 63.3649Z" fill="#5382A1"/>
<path d="M38.7112 73.0464C31.655 72.3424 36.2752 69.0427 36.2752 69.0427C18.0166 74.8895 46.434 81.5198 71.9472 74.3217C69.2352 73.3993 67.5107 71.7123 67.5107 71.7123C55.0415 74.0289 47.8358 73.9548 38.7112 73.0464Z" fill="#5382A1"/>
<path d="M41.7851 83.522C34.7345 82.74 38.8536 80.429 38.8536 80.429C22.2793 84.8971 48.9348 94.128 70.0368 85.4024C66.5805 84.1057 64.1057 82.6087 64.1057 82.6087C54.6926 84.3273 50.3267 84.4622 41.7851 83.522Z" fill="#5382A1"/>
<path d="M85.9219 88.8511C85.9219 88.8511 88.9701 91.2743 82.5647 93.1489C70.3843 96.7089 31.8693 97.784 21.17 93.2909C17.3238 91.6766 24.5364 89.4364 26.8052 88.9661C29.1714 88.4712 30.5236 88.5635 30.5236 88.5635C26.2463 85.6563 2.87687 94.2718 18.6531 96.7392C61.6771 103.471 97.0818 93.7076 85.9219 88.8511Z" fill="#5382A1"/>
<path d="M92.7501 94.1458C92.0442 103.008 62.2344 104.872 42.8221 103.673C30.1582 102.89 27.6201 100.931 27.583 100.903C39.7034 102.831 60.1382 103.182 76.707 100.173C91.393 97.5053 92.7501 94.1458 92.7501 94.1458Z" fill="#5382A1"/>
</svg>
