<svg width="104" height="105" viewBox="0 0 104 105" fill="none" xmlns="http://www.w3.org/2000/svg">
<g clip-path="url(#clip0_339_214)">
<path d="M0 0H104V105H0V0Z" fill="#F7DF1E"/>
<path d="M27.3459 87.7457L35.3047 82.8829C36.8401 85.6314 38.2368 87.9569 41.5871 87.9569C44.7986 87.9569 46.8233 86.6885 46.8233 81.7552V48.2052H56.5966V81.8947C56.5966 92.1147 50.663 96.7665 42.0061 96.7665C34.1877 96.7665 29.6494 92.6784 27.3457 87.7449" fill="black"/>
<path d="M61.9043 86.6883L69.8621 82.0365C71.957 85.4905 74.6796 88.0277 79.4963 88.0277C83.5459 88.0277 86.1282 85.9835 86.1282 83.1642C86.1282 79.781 83.4755 78.5827 79.0075 76.6098L76.5648 75.5518C69.5135 72.5217 64.8359 68.7157 64.8359 60.6805C64.8359 53.2798 70.4207 47.641 79.1475 47.641C85.3608 47.641 89.8286 49.8262 93.0396 55.5353L85.4301 60.4688C83.7545 57.4383 81.94 56.2403 79.1477 56.2403C76.2854 56.2403 74.4701 58.0728 74.4701 60.4688C74.4701 63.4292 76.2853 64.6277 80.4736 66.4603L82.9168 67.5175C91.2244 71.1123 95.9019 74.777 95.9019 83.0232C95.9019 91.9045 88.9907 96.7673 79.706 96.7673C70.6306 96.7673 64.7661 92.3977 61.9043 86.6883Z" fill="black"/>
</g>
<defs>
<clipPath id="clip0_339_214">
<rect width="104" height="105" fill="white"/>
</clipPath>
</defs>
</svg>
