<svg width="104" height="105" viewBox="0 0 104 105" fill="none" xmlns="http://www.w3.org/2000/svg">
<g clip-path="url(#clip0_339_174)">
<path d="M101.392 74.7776C101.392 74.7776 88.4826 109.925 44.0389 101.743C43.3395 101.611 42.6688 101.366 41.9896 101.159C41.8307 101.112 41.6702 101.06 41.5114 101.014C40.8441 100.805 40.1836 100.59 39.5271 100.359C39.4519 100.332 39.3802 100.308 39.304 100.28C38.706 100.068 38.1113 99.8427 37.5243 99.615C37.3705 99.5545 37.2175 99.4957 37.0646 99.4325C36.4321 99.1803 35.8028 98.9165 35.1802 98.6411C35.0654 98.5901 34.9547 98.5388 34.8381 98.4869C34.2931 98.2422 33.7551 97.9888 33.2215 97.7312C33.0829 97.6602 32.9436 97.5946 32.804 97.5282C32.7281 97.4898 32.6462 97.4515 32.5684 97.4123C32.2239 97.2384 31.8875 97.0577 31.5481 96.8783C31.2863 96.7419 31.0202 96.609 30.76 96.4681C30.2794 96.2038 29.8055 95.9351 29.3341 95.6605C29.1592 95.5598 28.9826 95.4626 28.8094 95.3611C28.1691 94.9809 27.5356 94.5859 26.9114 94.1866C26.7349 94.0724 26.5602 93.9514 26.3861 93.8335C25.979 93.5675 25.5718 93.3013 25.173 93.0234C25.1308 92.9943 25.0904 92.9637 25.0489 92.9338C24.8943 92.828 24.7475 92.7197 24.5937 92.6071C24.1731 92.312 23.7566 92.0101 23.3445 91.7031C23.1452 91.5514 22.9466 91.3988 22.7489 91.246C22.3756 90.9585 22.0041 90.6642 21.6356 90.3675C21.4524 90.2192 21.2665 90.0726 21.0833 89.9224C20.634 89.5488 20.1861 89.1684 19.7478 88.7847C19.6649 88.7114 19.5771 88.6397 19.4926 88.563C19.4841 88.5595 19.4782 88.5527 19.4689 88.5449C18.9714 88.1048 18.4831 87.6537 17.9991 87.1933C17.853 87.0585 17.7076 86.9143 17.5607 86.7728C17.1992 86.4222 16.8411 86.069 16.4888 85.7109C16.3426 85.566 16.1982 85.4193 16.058 85.2725C15.6028 84.8 15.1533 84.3269 14.7141 83.8431C14.6981 83.8212 14.682 83.8082 14.6627 83.7869C14.655 83.7785 14.6441 83.7672 14.6365 83.7578C14.1872 83.258 13.7462 82.7472 13.3146 82.2347C13.1937 82.0905 13.0723 81.9431 12.953 81.7972C12.6313 81.4057 12.3144 81.0153 12.0036 80.6195C11.8744 80.4548 11.7453 80.2887 11.6177 80.1232C11.2689 79.6685 10.9242 79.2106 10.5905 78.7449C10.5279 78.6579 10.4613 78.5726 10.4012 78.4873C10.3884 78.4729 10.3776 78.4573 10.3691 78.443C9.98233 77.903 9.60899 77.353 9.24235 76.8022C9.12839 76.6332 9.02114 76.4593 8.91125 76.2851C8.64597 75.8777 8.38577 75.4698 8.1341 75.0571C8.00247 74.8457 7.87735 74.6335 7.7506 74.4208C7.52167 74.0354 7.29783 73.6499 7.08069 73.2611C6.95658 73.041 6.8341 72.8261 6.71405 72.6001C6.64722 72.4807 6.57471 72.3577 6.50971 72.2326C6.39555 72.0242 6.29257 71.8071 6.18105 71.5946C6.0088 71.2611 5.83391 70.926 5.66755 70.5866C-1.35184 56.417 -2.49726 39.0674 6.69292 25.7313L13.8661 16.5461C5.77297 32.3386 9.41033 51.5689 19.5349 65.5105C19.9005 66.0181 20.2749 66.5187 20.6574 67.0191C20.7758 67.17 20.8946 67.322 21.013 67.467C21.3313 67.8763 21.6565 68.2805 21.9852 68.6806C22.1036 68.8213 22.2192 68.9593 22.3401 69.1043C22.7794 69.6281 23.2287 70.1482 23.69 70.6555C23.712 70.6802 23.7331 70.7025 23.7542 70.7263C24.1901 71.2066 24.6343 71.6805 25.0863 72.1481C25.2265 72.2913 25.3693 72.433 25.5121 72.5763C25.8669 72.942 26.2293 73.297 26.5976 73.6499C26.7369 73.7898 26.8771 73.9245 27.0217 74.0635C27.5191 74.5309 28.0208 74.9956 28.5319 75.4495C28.5851 75.4964 28.64 75.5397 28.6889 75.5832C29.162 75.9985 29.641 76.4029 30.1258 76.8054C30.2948 76.9445 30.4671 77.0833 30.6393 77.2215C31.0202 77.531 31.4055 77.8323 31.7933 78.1315C31.9783 78.2748 32.1683 78.4206 32.3602 78.5638C32.7817 78.8794 33.2074 79.1899 33.6375 79.4969C33.7835 79.5965 33.9255 79.705 34.0734 79.8055C34.5178 80.116 34.9706 80.4179 35.425 80.713C35.5956 80.8274 35.7646 80.9468 35.9368 81.0577C36.5637 81.4584 37.1972 81.8524 37.8375 82.2328C38.0022 82.3284 38.1669 82.4178 38.329 82.5101C38.8123 82.7923 39.2963 83.0702 39.7895 83.3364C40.0564 83.4863 40.331 83.622 40.6012 83.7662C41.005 83.976 41.4088 84.1893 41.8175 84.3905C41.9721 84.4672 42.1224 84.5389 42.2737 84.6113C42.7949 84.8646 43.3178 85.1086 43.8465 85.3506C43.9716 85.4054 44.0931 85.4624 44.2191 85.5169C44.8349 85.7891 45.4573 86.0501 46.085 86.2997C46.2462 86.3645 46.4077 86.4269 46.5698 86.4919C47.1408 86.7152 47.716 86.932 48.298 87.1391C48.3884 87.1715 48.4788 87.2047 48.5665 87.2371C49.2153 87.4625 49.8682 87.6772 50.5263 87.8803C50.6943 87.9332 50.8625 87.9844 51.0347 88.0355C51.7087 88.2367 52.3786 88.4543 53.0696 88.6122C71.3048 92.8021 90.5496 89.0394 101.392 74.7776ZM37.0581 52.2453C38.0548 53.6857 39.158 55.4006 40.4799 56.5583C40.9581 57.0911 41.4598 57.6103 41.9709 58.1212C42.0992 58.2541 42.2319 58.382 42.3645 58.5125C42.8595 58.9987 43.3663 59.4772 43.8867 59.9419C43.9087 59.9581 43.9282 59.9804 43.9493 59.9958C43.9552 60.0026 43.9603 60.0042 43.9645 60.011C44.5424 60.521 45.1388 61.0132 45.7435 61.4966C45.878 61.6007 46.0112 61.709 46.1473 61.8148C46.7547 62.2847 47.374 62.7469 48.0092 63.1868C48.0287 63.2003 48.0437 63.2143 48.0632 63.2278C48.3427 63.4239 48.6283 63.6064 48.9112 63.794C49.0481 63.8828 49.1773 63.9782 49.314 64.0619C49.7684 64.3562 50.2273 64.6418 50.6943 64.9164C50.7603 64.9575 50.8245 64.9915 50.8895 65.0298C51.2906 65.2636 51.7003 65.4948 52.1092 65.7181C52.251 65.7983 52.3965 65.8698 52.5417 65.9465C52.8238 66.095 53.1076 66.2476 53.3948 66.3918C53.4379 66.4123 53.4828 66.4326 53.5242 66.4506C54.1096 66.7414 54.6999 67.0228 55.304 67.2871C55.4324 67.3452 55.5658 67.3962 55.6968 67.451C56.1793 67.6573 56.6657 67.8595 57.1549 68.0488C57.3625 68.1282 57.5731 68.204 57.7791 68.2799C58.2241 68.4471 58.6694 68.599 59.1187 68.7508C59.3224 68.8162 59.5217 68.8837 59.7252 68.9468C60.3638 69.1464 60.9955 69.4005 61.662 69.5114C95.9767 75.2518 103.898 48.5775 103.898 48.5775C96.7565 58.9612 82.9272 63.9155 68.1693 60.0487C67.5146 59.8746 66.8687 59.6845 66.2274 59.4806C66.0296 59.4208 65.837 59.3562 65.6418 59.2903C65.1858 59.141 64.732 58.9825 64.2821 58.817C64.0768 58.7411 63.8708 58.6652 63.6687 58.5867C63.1761 58.3956 62.6888 58.1979 62.2066 57.9916C62.0739 57.9335 61.9413 57.8823 61.8121 57.8226C61.2066 57.5562 60.6102 57.2765 60.0222 56.983C59.7189 56.8335 59.4223 56.6756 59.1233 56.5207C58.9509 56.4311 58.7778 56.3413 58.6056 56.2517C58.2237 56.0423 57.8437 55.8251 57.4693 55.6049C57.3805 55.5532 57.2877 55.5042 57.1973 55.45C56.7336 55.1754 56.2757 54.8926 55.8222 54.6022C55.6826 54.5124 55.5475 54.4146 55.4082 54.3221C55.1082 54.1265 54.8102 53.9282 54.5161 53.727C53.8843 53.2869 53.2693 52.8248 52.6619 52.3575C52.5218 52.2461 52.3824 52.1374 52.2437 52.0261C45.7851 46.8763 40.6656 39.8397 38.2293 31.8607C35.6791 23.5854 36.2291 14.2964 40.6493 6.75792L35.2188 14.4972C28.5735 24.1533 28.9343 37.0789 34.1181 47.2912C34.9886 49.0034 35.9659 50.6637 37.0581 52.2453ZM73.2265 40.2991C73.5095 40.4057 73.7916 40.5003 74.0778 40.5981C74.2029 40.6368 74.3279 40.6803 74.4538 40.7178C74.8576 40.8462 75.2588 40.9951 75.6762 41.0743C94.6245 44.7704 99.7628 31.2574 101.131 29.2687C96.629 35.8128 89.0646 37.3837 79.7805 35.1096C79.0483 34.9289 78.2425 34.6615 77.5344 34.409C76.6281 34.0827 75.7369 33.7109 74.8686 33.2901C73.219 32.4905 71.6495 31.5205 70.1916 30.4098C61.8856 24.0464 56.7263 11.9074 62.1458 2.02185L59.2129 6.10311C55.2953 11.9245 54.9109 19.1539 57.6284 25.5837C60.4953 32.4075 66.37 37.7614 73.2265 40.2991Z" fill="#2766AA" stroke="#2766AA" stroke-width="1.5625"/>
</g>
<defs>
<clipPath id="clip0_339_174">
<rect width="104" height="105" fill="white"/>
</clipPath>
</defs>
</svg>
