<svg width="103" height="106" viewBox="0 0 103 106" fill="none" xmlns="http://www.w3.org/2000/svg">
<path d="M53.4956 99.375L51.0783 98.5501C51.0783 98.5501 51.4002 85.9626 46.9744 85.0782C44.0775 81.6067 47.4025 -63.1264 57.9922 84.5846C55.983 85.6335 54.4456 87.4412 53.7016 89.6296C53.3028 92.8618 53.2338 96.128 53.4956 99.375Z" fill="url(#paint0_linear_339_199)"/>
<path d="M54.8024 87.2148C61.2386 82.2288 66.1675 75.4653 69.0164 67.7104C71.8653 59.9556 72.5172 51.528 70.8962 43.407C66.1646 21.9254 54.9602 14.8632 53.7531 12.1668C52.7117 10.4878 51.8228 8.71365 51.0977 6.86682L51.9893 66.7204C51.9893 66.7204 50.1417 85.012 54.8024 87.2148Z" fill="url(#paint1_linear_339_199)"/>
<path d="M49.8484 88.0098C49.8484 88.0098 30.1464 74.2 31.2859 49.7703C31.3922 42.4054 33.033 35.1498 36.0976 28.4935C39.1622 21.8372 43.5792 15.9353 49.0501 11.1863C49.6895 10.6273 50.1974 9.92649 50.5358 9.13647C50.8742 8.34646 51.0343 7.4878 51.0039 6.625C52.2303 9.34125 52.0307 47.1799 52.1595 51.6054C52.6584 68.8205 51.2292 84.7602 49.8484 88.0098Z" fill="url(#paint2_linear_339_199)"/>
<defs>
<linearGradient id="paint0_linear_339_199" x1="37.2462" y1="53.8357" x2="65.1904" y2="63.0501" gradientUnits="userSpaceOnUse">
<stop offset="0.231" stop-color="#999875"/>
<stop offset="0.563" stop-color="#9B9977"/>
<stop offset="0.683" stop-color="#A09F7E"/>
<stop offset="0.768" stop-color="#A9A889"/>
<stop offset="0.837" stop-color="#B7B69A"/>
<stop offset="0.896" stop-color="#C9C7B0"/>
<stop offset="0.948" stop-color="#DEDDCB"/>
<stop offset="0.994" stop-color="#F8F6EB"/>
<stop offset="1" stop-color="#FBF9EF"/>
</linearGradient>
<linearGradient id="paint1_linear_339_199" x1="47.4346" y1="6.43913" x2="60.4241" y2="85.256" gradientUnits="userSpaceOnUse">
<stop stop-color="#48A547"/>
<stop offset="1" stop-color="#3F9143"/>
</linearGradient>
<linearGradient id="paint2_linear_339_199" x1="29.5911" y1="52.1885" x2="62.7396" y2="41.4013" gradientUnits="userSpaceOnUse">
<stop stop-color="#41A247"/>
<stop offset="0.352" stop-color="#4BA74B"/>
<stop offset="0.956" stop-color="#67B554"/>
<stop offset="1" stop-color="#69B655"/>
</linearGradient>
</defs>
</svg>
