<svg width="105" height="105" viewBox="0 0 105 105" fill="none" xmlns="http://www.w3.org/2000/svg">
<path fill-rule="evenodd" clip-rule="evenodd" d="M28.8258 22.5258C27.9566 22.523 27.0907 22.6333 26.25 22.8539V22.9688H26.3747C26.9768 23.8777 27.6482 24.7389 28.3828 25.5446C28.8881 26.5486 29.3278 27.5494 29.8298 28.5535C29.8922 28.4911 29.9545 28.4255 29.9545 28.4255C30.4207 28.0555 30.7855 27.5735 31.015 27.0244C31.2445 26.4753 31.3312 25.877 31.267 25.2853C30.9922 24.8616 30.7403 24.4235 30.5123 23.9728C30.135 23.3461 29.318 23.0311 28.8159 22.5291" fill="#5D87A1"/>
<path fill-rule="evenodd" clip-rule="evenodd" d="M91.1528 77.2832C87.0138 76.9925 82.8605 77.5922 78.9728 79.042C78.0311 79.4193 76.5283 79.4193 76.397 80.6104C76.9023 81.1124 76.9614 81.9229 77.4043 82.6218C78.2637 84.0769 79.3683 85.3724 80.6692 86.451C81.9817 87.4551 83.2942 88.4559 84.6887 89.3352C87.1332 90.8479 89.8993 91.724 92.2815 93.2301C93.6662 94.1095 95.0443 95.2382 96.429 96.1832C97.1181 96.6852 97.5545 97.4957 98.4339 97.8238V97.6335C98.1755 96.9362 97.856 96.2631 97.479 95.6221C96.8523 94.9987 96.2223 94.431 95.5923 93.8043C93.7518 91.3706 91.5497 89.2327 89.0626 87.4649C87.0512 86.0802 82.6543 84.1837 81.8439 81.8868L81.7159 81.7588C83.1877 81.5503 84.6382 81.2121 86.0504 80.7482C88.1832 80.1838 90.129 80.3118 92.3242 79.7638C93.3315 79.5112 95.1526 78.8845 95.1526 78.8845V77.9001C94.0304 76.7845 93.2265 75.2915 92.0453 74.2382C88.8316 71.4329 85.4068 68.8791 81.8012 66.5995C79.8751 65.3559 77.3912 64.5552 75.3404 63.4954C74.5989 63.1213 73.3717 62.9376 72.9222 62.3142C71.9022 60.8178 71.0484 59.2148 70.3759 57.5334C68.5778 54.1209 66.8354 50.3376 65.2867 46.7282C64.37 44.3093 63.3127 41.9461 62.1203 39.6506C56.3661 29.8674 48.0603 21.8327 38.0917 16.4062C35.5764 15.1887 32.9022 14.3315 30.1478 13.8599C28.5925 13.7943 27.0437 13.6729 25.4917 13.6138C24.4898 12.9575 23.5368 12.2293 22.6403 11.4351C19.09 9.18744 9.96809 4.35744 7.35622 10.7526C5.68278 14.7918 9.84341 18.7621 11.2707 20.8129C12.4743 22.2589 13.5347 23.8182 14.4372 25.469C14.8736 26.5256 14.9982 27.6445 15.4215 28.7503C16.3324 31.5889 17.4139 34.3699 18.6601 37.0781C19.3267 38.4166 20.0945 39.7022 20.957 40.9237C21.459 41.6095 22.3253 41.9081 22.5123 43.0401C21.8242 44.5192 21.3428 46.0859 21.0817 47.6962C19.9971 51.1215 19.5979 54.7269 19.907 58.3065C20.2161 61.8861 21.2274 65.3697 22.8831 68.5584C23.8675 70.1104 26.2365 73.5262 29.4029 72.2202C32.1953 71.1046 31.5751 67.5642 32.3823 64.4634C32.5661 63.712 32.4447 63.2198 32.8154 62.7243V63.3281C32.8154 63.3281 34.4003 66.8095 35.1878 68.5781C37.3294 71.8232 39.9899 74.6943 43.0628 77.0765C44.2783 78.1377 45.2575 79.4422 45.9372 80.9057V82.0312H47.3383C47.3091 81.5237 47.1684 81.0289 46.9262 80.582C46.6841 80.1351 46.3464 79.7471 45.9372 79.4456C44.7882 78.263 43.7359 76.9901 42.7904 75.6393C40.222 71.9814 37.957 68.1196 36.0179 64.0926C35.0336 62.1238 34.2034 59.9648 33.4159 57.9993C33.055 57.2413 33.055 56.0962 32.4479 55.7024C31.3271 57.0286 30.3544 58.4733 29.5473 60.0107C28.5675 63.1182 27.9972 66.3402 27.8509 69.5952C27.6114 69.6609 27.7295 69.5952 27.6114 69.7199C25.6787 69.2113 25.0126 67.1212 24.2842 65.3493C22.4024 59.8845 22.2126 53.9793 23.7395 48.4049C24.1595 47.076 25.9806 42.8892 25.2522 41.6193C24.8879 40.4085 23.6772 39.7162 23.0143 38.7613C22.1682 37.4768 21.4401 36.1183 20.8389 34.7024C19.3984 31.1718 18.67 27.2343 17.1015 23.6774C16.2333 21.9668 15.2224 20.3324 14.0795 18.7917C12.8153 17.2525 11.7001 15.5968 10.749 13.8468C10.4472 13.1479 10.0239 12.006 10.5062 11.2448C10.5388 11.0333 10.6393 10.8382 10.7927 10.689C10.946 10.5398 11.1438 10.4447 11.3561 10.4179C12.137 9.72228 14.3781 10.6082 15.1623 10.9888C17.27 11.8186 19.2777 12.883 21.1473 14.1618C21.9939 14.7984 23.9889 16.4095 23.9889 16.4095H24.5795C26.5876 16.8459 28.8451 16.5309 30.7351 17.0985C33.9174 18.1593 36.9543 19.6144 39.775 21.4298C48.0886 26.7295 54.8472 34.1402 59.3607 42.9056C60.1154 44.346 60.4337 45.6684 61.1228 47.1712C62.4353 50.2556 64.0759 53.4056 65.3884 56.4046C66.5463 59.3718 68.0438 62.195 69.8509 64.8177C70.7893 66.1302 74.5595 66.8259 76.2559 67.5149C77.7291 68.0246 79.1748 68.6105 80.5872 69.2704C82.7232 70.5829 84.8528 72.0956 86.8642 73.536C87.865 74.2907 91.0051 75.8592 91.1954 77.1159" fill="#00758F"/>
</svg>
