<svg width="105" height="105" viewBox="0 0 105 105" fill="none" xmlns="http://www.w3.org/2000/svg">
<g clip-path="url(#clip0_339_212)">
<path fill-rule="evenodd" clip-rule="evenodd" d="M0 52.5C0 23.505 23.505 0 52.5 0C81.4947 0 105 23.505 105 52.5C105 70.609 95.8314 86.5767 81.8825 96.0141L34.3481 29.4659C33.4637 28.2279 31.8808 27.7029 30.4319 28.1672C28.9829 28.6315 28 29.9788 28 31.5003V84H35V42.4219L75.8093 99.5547C68.7863 103.041 60.872 105 52.5 105C23.505 105 0 81.4947 0 52.5ZM70 70V28H77V70H70Z" fill="black"/>
</g>
<defs>
<clipPath id="clip0_339_212">
<rect width="105" height="105" fill="white"/>
</clipPath>
</defs>
</svg>
