<svg width="104" height="105" viewBox="0 0 104 105" fill="none" xmlns="http://www.w3.org/2000/svg">
<path d="M51.9998 104.805C50.5693 104.805 49.2341 104.42 47.9944 103.746L35.3106 96.1396C33.4032 95.0805 34.3569 94.6954 34.9291 94.5028C37.504 93.6362 37.9808 93.4437 40.6511 91.9031C40.9372 91.7105 41.3187 91.8068 41.6048 91.9994L51.3322 97.8727C51.7137 98.0653 52.1905 98.0653 52.4766 97.8727L90.5281 75.6311C90.9095 75.4385 91.1003 75.0534 91.1003 74.572V30.185C91.1003 29.7036 90.9095 29.3185 90.5281 29.1259L52.4766 6.98059C52.0952 6.78803 51.6183 6.78803 51.3322 6.98059L13.2808 29.1259C12.8993 29.3185 12.7086 29.7999 12.7086 30.185V74.572C12.7086 74.9571 12.8993 75.4385 13.2808 75.6311L23.6758 81.697C29.3024 84.5855 32.831 81.2156 32.831 77.8456V34.0364C32.831 33.4587 33.3078 32.881 33.9754 32.881H38.8391C39.4113 32.881 39.9835 33.3624 39.9835 34.0364V77.8456C39.9835 85.4521 35.8828 89.8812 28.7302 89.8812C26.5368 89.8812 24.8202 89.8812 19.9565 87.4741L9.94292 81.697C7.46337 80.2527 5.9375 77.5568 5.9375 74.6683V30.2813C5.9375 27.3928 7.46337 24.6969 9.94292 23.2526L47.9944 1.01098C50.3785 -0.336994 53.621 -0.336994 56.0052 1.01098L94.0567 23.2526C96.5362 24.6969 98.0621 27.3928 98.0621 30.2813V74.6683C98.0621 77.5568 96.5362 80.2527 94.0567 81.697L56.0052 103.939C54.7654 104.516 53.3349 104.805 51.9998 104.805ZM63.7299 74.2831C47.0407 74.2831 43.6075 66.5804 43.6075 60.0331C43.6075 59.4554 44.0843 58.8777 44.7519 58.8777H49.711C50.2832 58.8777 50.76 59.2628 50.76 59.8405C51.5229 64.9436 53.7164 67.447 63.8253 67.447C71.8361 67.447 75.2693 65.6176 75.2693 61.2848C75.2693 58.7814 74.3157 56.952 61.8226 55.7003C51.4276 54.6412 44.9426 52.3304 44.9426 43.9537C44.9426 36.1547 51.4276 31.533 62.2994 31.533C74.5064 31.533 80.5145 35.7695 81.2775 45.0128C81.2775 45.3016 81.1821 45.5905 80.9914 45.8793C80.8006 46.0719 80.5145 46.2645 80.2284 46.2645H75.2693C74.7925 46.2645 74.3157 45.8793 74.2203 45.3979C73.0759 40.1023 70.1195 38.3692 62.2994 38.3692C53.5257 38.3692 52.4766 41.4503 52.4766 43.7611C52.4766 46.5533 53.7164 47.4199 65.5419 48.9604C77.272 50.501 82.8033 52.7155 82.8033 60.9959C82.708 69.4689 75.8415 74.2831 63.7299 74.2831Z" fill="#539E43"/>
</svg>
