<svg width="104" height="103" viewBox="0 0 104 103" fill="none" xmlns="http://www.w3.org/2000/svg">
<g clip-path="url(#clip0_339_151)">
<path d="M4.33301 5.57898H99.6666V97.4209H4.33301V5.57898Z" fill="url(#paint0_radial_339_151)"/>
<path d="M4.33328 5.57897H99.6669V97.4209H4.33328V5.57897ZM0 101.713H104V1.28735H0V101.713ZM70.1135 42.4874C66.6901 42.4874 65.5202 44.204 65.5202 45.6203C65.5202 47.1652 66.3001 48.2382 70.8935 50.5986C77.6968 53.8604 79.8202 56.9932 79.8202 61.5854C79.8202 68.452 74.5336 72.1429 67.3835 72.1429C63.6134 72.1429 60.3634 71.3703 58.5001 70.2975C58.1968 70.1688 58.1535 69.9542 58.1535 69.6108V63.302C58.1535 62.8729 58.3701 62.744 58.6736 62.9587C61.4036 64.7184 64.5235 65.4908 67.3835 65.4908C70.8069 65.4908 72.2369 64.0746 72.2369 62.1432C72.2369 60.5983 71.2402 59.2249 66.8634 56.9932C60.71 54.0749 58.1535 51.1137 58.1535 46.1783C58.1535 40.6419 62.5303 36.0499 70.1135 36.0499C73.8402 36.0499 76.4402 36.6079 77.8701 37.2516C78.2168 37.4661 78.3034 37.8094 78.3034 38.1098V43.9893C78.3034 44.3326 78.0868 44.5473 77.6533 44.4184C75.7467 43.2171 72.9301 42.4874 70.1135 42.4874ZM32.8467 47.5945C33.8434 47.6803 34.6235 47.6803 36.3567 47.6803C41.4269 47.6803 46.1935 45.9208 46.1935 39.0971C46.1935 33.6467 42.7701 30.8999 37.0068 30.8999C35.2735 30.8999 33.6267 30.9857 32.8467 31.0286V47.5945ZM25.1335 24.8057C25.1335 24.5053 25.7403 24.2906 26.0867 24.2906C28.8602 24.1618 32.9768 24.076 37.2668 24.076C49.2701 24.076 53.95 30.5994 53.95 38.9253C53.95 49.8261 45.9767 54.504 36.1834 54.504C34.5368 54.504 33.9735 54.4182 32.8033 54.4182V70.8983C32.8033 71.2416 32.6734 71.4132 32.2834 71.4132H25.6534C25.3068 71.4132 25.1333 71.2845 25.1333 70.8983V24.8057H25.1335Z" fill="#31C5F0"/>
</g>
<defs>
<radialGradient id="paint0_radial_339_151" cx="0" cy="0" r="1" gradientUnits="userSpaceOnUse" gradientTransform="translate(35.7313 26.1608) scale(72.4535 69.4737)">
<stop stop-color="#34364E" stop-opacity="0.98"/>
<stop offset="1" stop-color="#0C0824"/>
</radialGradient>
<clipPath id="clip0_339_151">
<rect width="104" height="103" fill="white"/>
</clipPath>
</defs>
</svg>
