<svg width="104" height="105" viewBox="0 0 104 105" fill="none" xmlns="http://www.w3.org/2000/svg">
<path d="M52 98.4375C77.129 98.4375 97.5 77.8706 97.5 52.5C97.5 27.1294 77.129 6.5625 52 6.5625C26.871 6.5625 6.5 27.1294 6.5 52.5C6.5 77.8706 26.871 98.4375 52 98.4375Z" fill="#8892BF"/>
<path d="M46.9271 32.8125H52.3871L50.844 41.095H55.7502C58.4408 41.1531 60.4451 41.7601 61.7643 42.9165C63.1095 44.0724 63.5053 46.2702 62.9515 49.5078L60.3005 63.948H54.7612L57.2933 50.1582C57.5568 48.7125 57.4779 47.6864 57.056 47.0794C56.6342 46.4723 55.7242 46.1688 54.326 46.1688L49.934 46.1255L46.6895 63.948H41.2295L46.9271 32.8125Z" fill="white"/>
<path fill-rule="evenodd" clip-rule="evenodd" d="M21.908 41.0955H32.5117C35.6239 41.124 37.8794 42.1074 39.2775 44.044C40.6757 45.9809 41.1372 48.6259 40.6624 51.9797C40.4781 53.5124 40.0689 55.0152 39.4358 56.4898C38.829 57.964 37.9853 59.2936 36.9037 60.4791C35.5846 61.9823 34.1734 62.9361 32.67 63.3414C31.1665 63.7463 29.61 63.9484 28.0012 63.9484H23.2532L21.7497 72.1876H16.25L21.908 41.0955ZM24.1633 59.0482L26.5293 46.0823H27.3286C27.619 46.0823 27.922 46.0675 28.2386 46.039C30.3491 46.0101 32.1027 46.227 33.501 46.6893C34.9251 47.1517 35.4 48.9009 34.9251 51.9364C34.3453 55.5504 33.2104 57.6605 31.5226 58.2676C29.8347 58.846 27.7242 59.1204 25.192 59.0915H24.6381C24.4798 59.0915 24.3215 59.0767 24.1633 59.0482Z" fill="white"/>
<path fill-rule="evenodd" clip-rule="evenodd" d="M79.4189 41.0955H68.8152L63.1572 72.1876H68.6569L70.1606 63.9484H74.9086C76.5173 63.9484 78.0738 63.7463 79.5772 63.3414C81.081 62.9361 82.4918 61.9823 83.811 60.4791C84.8926 59.2936 85.7363 57.964 86.343 56.4898C86.9761 55.0152 87.3853 53.5124 87.5696 51.9797C88.0444 48.6259 87.5832 45.9809 86.1848 44.044C84.7866 42.1074 82.5315 41.124 79.4189 41.0955ZM73.4367 46.0823L71.0707 59.0482C71.2289 59.0767 71.3872 59.0915 71.5455 59.0915H72.0993C74.6317 59.1204 76.7419 58.846 78.43 58.2676C80.1177 57.6605 81.2526 55.5504 81.8327 51.9364C82.3075 48.9009 81.8327 47.1517 80.4082 46.6893C79.0101 46.227 77.2564 46.0101 75.1458 46.039C74.8293 46.0675 74.5264 46.0823 74.2358 46.0823H73.4367Z" fill="white"/>
</svg>
