<svg width="103" height="104" viewBox="0 0 103 104" fill="none" xmlns="http://www.w3.org/2000/svg">
<path d="M101.052 62.2762C100.454 60.4451 98.8849 59.1694 96.8559 58.8632C95.8994 58.719 94.8037 58.7805 93.5074 59.0504C91.2477 59.5211 89.5712 59.7002 88.3478 59.7352C92.9657 51.8622 96.721 42.8841 98.8828 34.4329C102.378 20.7678 100.51 14.5425 98.3276 11.7264C92.5508 4.27338 84.1224 0.269252 73.9539 0.14651C68.53 0.0796659 63.7679 1.16105 61.2841 1.93849C58.9712 1.52671 56.4842 1.2966 53.8746 1.25398C48.9838 1.17526 44.662 2.25175 40.9693 4.46436C38.9244 3.76657 35.6436 2.78254 31.8545 2.1544C22.9424 0.677071 15.7599 1.82833 10.5062 5.57579C4.14444 10.1133 1.19514 17.9967 1.74066 29.0073C1.91366 32.5033 3.85057 43.1394 6.89999 53.2268C8.6526 59.0246 10.5215 63.8394 12.4547 67.5385C15.1962 72.7837 18.1295 75.8728 21.4228 76.9819C23.2688 77.603 26.6225 78.0376 30.1501 75.0718C30.5971 75.6182 31.1934 76.1616 31.9852 76.6661C32.9905 77.3063 34.2199 77.8294 35.4476 78.1394C39.8724 79.2564 44.0171 78.977 47.553 77.4116C47.5746 78.0465 47.5915 78.6532 47.6058 79.177C47.6293 80.0269 47.6524 80.86 47.6833 81.6391C47.8927 86.9079 48.2477 91.0045 49.2996 93.8706C49.3572 94.0285 49.435 94.2687 49.5171 94.5232C50.0416 96.1457 50.9193 98.8613 53.1515 100.988C55.4635 103.192 58.2596 103.867 60.8205 103.867C62.1048 103.867 63.3303 103.697 64.405 103.465C68.2366 102.636 72.5879 101.372 75.7356 96.8469C78.7115 92.5687 80.1582 86.1251 80.42 75.9718C80.4539 75.6848 80.4853 75.4107 80.5155 75.1494C80.5358 74.9731 80.5566 74.7928 80.5775 74.613L81.2788 74.6752L81.4594 74.6875C85.3618 74.8671 90.1334 74.0314 93.0638 72.657C95.3794 71.5719 102.8 67.6167 101.052 62.2762Z" fill="black"/>
<path d="M94.3799 63.3149C82.7768 65.7316 81.9792 61.7649 81.9792 61.7649C94.2301 43.41 99.3514 20.1112 94.9318 14.409C82.8749 -1.14565 62.0037 6.2107 61.6554 6.40168L61.5433 6.42194C59.2509 5.94146 56.6854 5.65521 53.8021 5.6077C48.5519 5.52083 44.5694 6.99745 41.5474 9.31138C41.5474 9.31138 4.31525 -6.17573 6.04686 28.7893C6.41524 36.2279 16.6059 85.0728 28.7609 70.3194C33.2035 64.9245 37.496 60.3631 37.496 60.3631C39.6281 61.7931 42.1804 62.5226 44.8561 62.2606L45.0639 62.0824C44.9994 62.7522 45.0289 63.4074 45.1472 64.183C42.0159 67.7155 42.936 68.3357 36.6764 69.6367C30.3426 70.9547 34.0634 73.3013 36.4928 73.9145C39.438 74.6582 46.2517 75.7116 50.8555 69.2042L50.6719 69.9467C51.8988 70.9389 52.7604 76.4008 52.616 81.3519C52.4716 86.3033 52.3752 89.7025 53.3419 92.3577C54.3086 95.0128 55.2721 100.987 63.5009 99.2065C70.3769 97.7187 73.94 93.8632 74.4357 87.4319C74.7875 82.8597 75.5835 83.5356 75.6338 79.4479L76.2723 77.5127C77.0086 71.3148 76.3892 69.3153 80.6254 70.2453L81.6549 70.3366C84.7728 70.4798 88.8535 69.8302 91.2485 68.7062C96.4058 66.2896 99.4644 62.2547 94.3794 63.3149H94.3799Z" fill="#336791"/>
<path d="M43.7268 32.1159C42.6814 31.969 41.7343 32.105 41.2552 32.4711C40.9855 32.6772 40.9022 32.916 40.8799 33.0804C40.8197 33.5157 41.1218 33.9969 41.3073 34.2452C41.8323 34.9479 42.5995 35.4309 43.3588 35.5373C43.4689 35.5527 43.5782 35.5602 43.6871 35.5602C44.9534 35.5602 46.1045 34.5647 46.206 33.8299C46.3328 32.9097 45.0097 32.2962 43.7268 32.1159Z" fill="white"/>
<path d="M78.3665 32.145C78.2669 31.4237 76.9952 31.218 75.7888 31.3874C74.5843 31.5569 73.416 32.1059 73.5135 32.8288C73.592 33.3911 74.597 34.3509 75.7872 34.3506C75.8876 34.3506 75.989 34.3439 76.0912 34.3294C76.8856 34.2183 77.4685 33.709 77.7453 33.4153C78.1672 32.9681 78.411 32.4692 78.3665 32.145Z" fill="white"/>
<path d="M98.2412 63.0404C97.7987 61.6895 96.3748 61.2547 94.0089 61.7482C86.9842 63.212 84.4685 62.198 83.6423 61.5838C89.1026 53.1847 93.5944 43.0326 96.0175 33.56C97.1656 29.0731 97.7997 24.9061 97.8513 21.5099C97.9085 17.7815 97.28 15.0423 95.9829 13.3689C90.7539 6.62253 83.0799 3.00386 73.7902 2.90441C67.404 2.83198 62.0082 4.48235 60.9622 4.9463C58.7593 4.39315 56.3578 4.05357 53.7437 4.01025C48.9493 3.93199 44.8053 5.09094 41.3742 7.45307C39.8838 6.89317 36.0321 5.55815 31.3221 4.79212C23.1787 3.46805 16.7078 4.47117 12.0898 7.77448C6.57966 11.7162 4.03586 18.7621 4.5288 28.716C4.69465 32.0652 6.58427 42.3674 9.5668 52.2338C13.4925 65.2195 17.7596 72.5709 22.2498 74.0829C22.7752 74.2599 23.3814 74.3839 24.0495 74.3839C25.6874 74.3839 27.6954 73.6383 29.7848 71.1022C33.2551 66.8866 36.4953 63.3541 37.6897 62.0706C39.4548 63.0273 41.3935 63.5614 43.377 63.615C43.3805 63.6674 43.3858 63.7198 43.3904 63.7719C42.9925 64.2485 42.6661 64.6661 42.3879 65.0226C41.0138 66.7839 40.7278 67.1505 36.3046 68.0702C35.0465 68.3323 31.7044 69.0277 31.6557 71.3929C31.6024 73.977 35.6056 75.0623 36.0619 75.1774C37.6514 75.5791 39.1826 75.7773 40.6429 75.7773C44.1947 75.7771 47.3201 74.5986 49.8179 72.3182C49.7409 81.5308 50.1215 90.6088 51.2169 93.3748C52.114 95.6389 54.306 101.173 61.23 101.172C62.2456 101.172 63.3641 101.053 64.5942 100.787C71.8201 99.2224 74.9579 95.9978 76.1719 88.8886C76.8214 85.0892 77.9362 76.0161 78.4603 71.1495C79.5668 71.4979 80.9914 71.6575 82.5314 71.6572C85.7432 71.6572 89.4491 70.9683 91.7733 69.879C94.384 68.6548 99.0956 65.6503 98.2412 63.0404ZM81.0332 30.154C81.0092 31.5908 80.8134 32.8951 80.6058 34.2566C80.3825 35.7209 80.1513 37.2348 80.0932 39.0727C80.0358 40.8612 80.257 42.7207 80.471 44.5187C80.9033 48.1507 81.3469 51.89 79.6296 55.5797C79.3627 55.1011 79.105 54.5789 78.8688 54.0006C78.6555 53.4782 78.1921 52.639 77.5506 51.4775C75.0538 46.9568 69.2073 36.3703 72.2002 32.0503C73.0915 30.7642 75.3539 29.4425 81.0332 30.154ZM74.1494 5.81388C82.4728 5.9995 89.0567 9.14351 93.7185 15.1581C97.2938 19.7715 93.3568 40.7634 81.9593 58.873C81.8467 58.7286 81.7321 58.5828 81.6135 58.4333C81.5662 58.3734 81.518 58.3126 81.4694 58.2511C84.4145 53.3398 83.8386 48.4807 83.326 44.1724C83.1154 42.4044 82.9166 40.7345 82.9671 39.1661C83.0194 37.5031 83.2372 36.0775 83.4476 34.6987C83.7066 32.9994 83.9698 31.2414 83.8971 29.1688C83.9513 28.9515 83.9733 28.6946 83.9449 28.3897C83.7594 26.4021 81.5123 20.4544 76.9317 15.0703C74.4264 12.1259 70.7724 8.83048 65.7836 6.60786C67.9295 6.15881 70.864 5.74005 74.1494 5.81388ZM27.5738 69.2459C25.272 72.0404 23.6822 71.5049 23.1595 71.3291C19.7533 70.1818 15.8013 62.913 12.3168 51.3862C9.30176 41.4125 7.53969 31.3833 7.40037 28.5709C6.96003 19.6767 9.09531 13.4779 13.7472 10.1469C21.3177 4.72597 33.7644 7.97059 38.7658 9.61631C38.6938 9.68781 38.6191 9.75489 38.5478 9.82755C30.3409 18.1966 30.5356 32.4952 30.5556 33.369C30.5549 33.7063 30.5829 34.1837 30.6214 34.8405C30.7625 37.2453 31.0253 41.7213 30.3234 46.7903C29.6708 51.5006 31.1088 56.1109 34.268 59.4392C34.5951 59.7836 34.9365 60.1072 35.2892 60.4116C33.8828 61.9322 30.8267 65.2947 27.5738 69.2459ZM36.344 57.4304C33.7977 54.748 32.6413 51.0166 33.1709 47.1923C33.9123 41.8375 33.6385 37.174 33.4916 34.6687C33.471 34.3181 33.4528 34.0109 33.442 33.7685C34.641 32.6952 40.1971 29.6891 44.1592 30.6058C45.9677 31.0241 47.0691 32.2672 47.5272 34.4057C49.898 45.4764 47.8411 50.0908 46.1884 53.7987C45.8477 54.5626 45.5259 55.2846 45.251 56.0318L45.0381 56.6091C44.4988 58.0692 43.9971 59.4266 43.6861 60.7157C40.9795 60.7074 38.3462 59.54 36.344 57.4304ZM36.7594 72.3608C35.9692 72.1615 35.2582 71.8151 34.8412 71.528C35.1895 71.3624 35.8095 71.1374 36.8847 70.9138C42.0883 69.8319 42.8917 69.0687 44.6466 66.8188C45.0491 66.3032 45.5052 65.7183 46.1367 65.0061L46.1374 65.0052C47.0783 63.9417 47.5085 64.122 48.2889 64.4488C48.9213 64.7131 49.5372 65.5134 49.787 66.3942C49.9051 66.8102 50.038 67.6 49.6037 68.2142C45.9377 73.3968 40.5959 73.3302 36.7594 72.3608ZM63.9915 97.9482C57.6258 99.3253 55.3719 96.0458 53.8867 92.2967C52.928 89.8761 52.457 78.9614 52.7912 66.9083C52.7956 66.7478 52.773 66.5929 52.7292 66.4473C52.6911 66.1662 52.6325 65.8818 52.5514 65.5956C52.054 63.8418 50.8428 62.3747 49.3896 61.7666C48.8122 61.5251 47.7523 61.0819 46.4788 61.4107C46.7505 60.2809 47.2216 59.0053 47.732 57.6237L47.9463 57.0423C48.1876 56.3872 48.49 55.7085 48.8102 54.9902C50.5397 51.1105 52.9084 45.7967 50.3376 33.792C49.3746 29.2957 46.1591 27.1001 41.2844 27.61C38.3619 27.9153 35.6884 29.1059 34.355 29.7886C34.0682 29.9353 33.806 30.0769 33.561 30.215C33.9331 25.6845 35.3394 17.2181 40.5996 11.8615C43.9113 8.48904 48.3221 6.82353 53.6961 6.9132C64.2849 7.08834 71.0751 12.5752 74.9071 17.1473C78.2091 21.0874 79.9973 25.0561 80.7109 27.1966C75.3445 26.6457 71.6946 27.7155 69.8442 30.3862C65.8191 36.1958 72.0464 47.4722 75.0393 52.8915C75.5881 53.8848 76.0618 54.7431 76.2109 55.1078C77.1854 57.4928 78.4472 59.0849 79.3685 60.2474C79.6508 60.6035 79.9248 60.9489 80.1331 61.2505C78.5078 61.7238 75.5883 62.8168 75.8542 68.281C75.6397 71.023 74.1136 83.8599 73.3386 88.3953C72.3154 94.387 70.1316 96.619 63.9915 97.9482ZM90.5625 67.2457C88.9005 68.0248 86.1192 68.6092 83.4769 68.7345C80.5585 68.8726 79.073 68.4044 78.7235 68.1166C78.5593 64.7115 79.8148 64.3556 81.1432 63.979C81.352 63.9196 81.5556 63.8621 81.7522 63.7927C81.8744 63.8931 82.0082 63.9927 82.1547 64.0903C84.5003 65.6536 88.6842 65.8222 94.5904 64.5913C94.6121 64.5866 94.6338 64.5825 94.6552 64.578C93.8587 65.3301 92.4955 66.3395 90.5625 67.2457Z" fill="white"/>
</svg>
