<svg width="105" height="105" viewBox="0 0 105 105" fill="none" xmlns="http://www.w3.org/2000/svg">
<path fill-rule="evenodd" clip-rule="evenodd" d="M42.7101 6.5625C35.5008 6.5625 29.6568 12.2211 29.6568 19.2014V27.9514H52.249V30.3819H19.6158C12.4066 30.3819 6.5625 36.0406 6.5625 43.0208V61.9792C6.5625 68.9594 12.4066 74.6179 19.6158 74.6179H27.1465V63.9237C27.1465 56.9435 32.9907 51.2846 40.1999 51.2846H64.2981C70.3982 51.2846 75.3431 46.4966 75.3431 40.5904V19.2014C75.3431 12.2211 69.4992 6.5625 62.2899 6.5625H42.7101ZM39.6979 22.1181C42.1933 22.1181 44.2162 20.1593 44.2162 17.7431C44.2162 15.3268 42.1933 13.368 39.6979 13.368C37.2022 13.368 35.1793 15.3268 35.1793 17.7431C35.1793 20.1593 37.2022 22.1181 39.6979 22.1181Z" fill="url(#paint0_linear_339_154)"/>
<path fill-rule="evenodd" clip-rule="evenodd" d="M62.2893 98.4374C69.4985 98.4374 75.3428 92.7789 75.3428 85.7987V77.0486H52.7504V74.6182H85.3837C92.593 74.6182 98.4369 68.9594 98.4369 61.9791V43.0207C98.4369 36.0405 92.593 30.382 85.3837 30.382H77.8529V41.0763C77.8529 48.0568 72.0087 53.7153 64.7998 53.7153H40.7013C34.6011 53.7153 29.6562 58.5033 29.6562 64.4096V85.7987C29.6562 92.7789 35.5005 98.4374 42.7094 98.4374H62.2893ZM65.3018 82.882C62.8061 82.882 60.7832 84.8406 60.7832 87.2569C60.7832 89.6732 62.8061 91.6318 65.3018 91.6318C67.7972 91.6318 69.8201 89.6732 69.8201 87.2569C69.8201 84.8406 67.7972 82.882 65.3018 82.882Z" fill="url(#paint1_linear_339_154)"/>
<defs>
<linearGradient id="paint0_linear_339_154" x1="40.953" y1="6.5625" x2="40.953" y2="74.6179" gradientUnits="userSpaceOnUse">
<stop stop-color="#327EBD"/>
<stop offset="1" stop-color="#1565A7"/>
</linearGradient>
<linearGradient id="paint1_linear_339_154" x1="64.0467" y1="30.382" x2="64.0467" y2="98.4374" gradientUnits="userSpaceOnUse">
<stop stop-color="#FFDA4B"/>
<stop offset="1" stop-color="#F9C600"/>
</linearGradient>
</defs>
</svg>
