<svg width="106" height="105" viewBox="0 0 106 105" fill="none" xmlns="http://www.w3.org/2000/svg">
<path d="M87.1533 36.0214C86.0537 35.6465 84.9142 35.2918 83.741 34.9563C83.9339 34.1767 84.1108 33.4073 84.2682 32.6509C86.8512 20.2309 85.1623 10.2253 79.3954 6.93102C73.8656 3.77225 64.822 7.06578 55.6885 14.9394C54.8102 15.6966 53.9294 16.4982 53.0491 17.3383C52.4625 16.7824 51.8768 16.2453 51.2926 15.7315C41.7204 7.31248 32.1257 3.76459 26.3644 7.06839C20.8399 10.2363 19.2039 19.6426 21.529 31.4131C21.7535 32.55 22.016 33.711 22.3128 34.8914C20.9548 35.2733 19.6439 35.6803 18.3896 36.1134C7.16714 39.9891 0 46.0633 0 52.3638C0 58.8711 7.69394 65.3979 19.383 69.3555C20.3054 69.6678 21.2626 69.9631 22.249 70.2435C21.9288 71.5202 21.6503 72.7713 21.4165 73.9915C19.1996 85.5578 20.9309 94.7418 26.4407 97.8897C32.1318 101.141 41.6831 97.7991 50.9836 89.746C51.7187 89.1094 52.4564 88.4343 53.1955 87.7267C54.1534 88.6405 55.1098 89.5052 56.0611 90.3164C65.0698 97.9955 73.9673 101.096 79.472 97.9396C85.1574 94.6793 87.0052 84.8135 84.6063 72.8102C84.4231 71.8934 84.2099 70.9569 83.9705 70.0037C84.6412 69.8073 85.2997 69.6045 85.9418 69.3937C98.0936 65.4054 106 58.958 106 52.3638C106 46.0405 98.6017 39.9254 87.1533 36.0214ZM84.5176 65.1359C83.938 65.326 83.3433 65.5097 82.7373 65.6878C81.3957 61.4809 79.5852 57.0075 77.3695 52.3857C79.4839 47.874 81.2244 43.4577 82.5284 39.2781C83.6127 39.5889 84.6652 39.9168 85.6793 40.2627C95.4883 43.6076 101.472 48.5531 101.472 52.3638C101.472 56.4229 95.0099 61.6921 84.5176 65.1359ZM80.1641 73.6813C81.2248 78.989 81.3763 83.7878 80.6737 87.5393C80.0424 90.9102 78.7727 93.1576 77.2029 94.0577C73.8624 95.9731 66.7186 93.4834 59.0143 86.9161C58.1311 86.1633 57.2415 85.3595 56.349 84.5087C59.3358 81.2729 62.3209 77.5112 65.2343 73.3335C70.3586 72.883 75.1999 72.1467 79.5903 71.1413C79.8065 72.0054 79.9986 72.8528 80.1641 73.6813ZM36.1378 93.7267C32.874 94.8685 30.2746 94.9012 28.7033 94.0037C25.3597 92.0934 23.9697 84.7195 25.8658 74.8281C26.0829 73.6953 26.3414 72.5317 26.6393 71.3423C30.9816 72.2934 35.7874 72.9778 40.924 73.3903C43.857 77.4783 46.9283 81.2359 50.0234 84.5261C49.3472 85.1728 48.6736 85.7884 48.0038 86.3685C43.8912 89.9295 39.7699 92.456 36.1378 93.7267ZM20.8475 65.1111C15.6788 63.3611 11.4103 61.0868 8.4845 58.6049C5.85545 56.3747 4.5281 54.1605 4.5281 52.3638C4.5281 48.5404 10.2826 43.6637 19.8801 40.349C21.0446 39.9468 22.2637 39.5678 23.5288 39.2118C24.8552 43.4858 26.5952 47.9543 28.695 52.473C26.568 57.0587 24.8033 61.5985 23.4639 65.9226C22.562 65.6658 21.6882 65.3955 20.8475 65.1111ZM25.9729 30.5516C23.9809 20.467 25.3039 12.8594 28.6331 10.9505C32.1793 8.91682 40.021 11.8164 48.2859 19.0858C48.8142 19.5504 49.3445 20.0367 49.8764 20.5399C46.7966 23.8156 43.7534 27.545 40.8465 31.6089C35.8612 32.0666 31.0891 32.8019 26.7016 33.7865C26.4258 32.6873 26.1814 31.6074 25.9729 30.5516ZM71.6965 41.7355C70.6477 39.9409 69.5709 38.1887 68.4732 36.4844C71.8552 36.9079 75.0956 37.4701 78.1386 38.158C77.225 41.0583 76.0863 44.0908 74.746 47.1994C73.7845 45.3912 72.7675 43.568 71.6965 41.7355ZM53.0506 23.7455C55.1392 25.987 57.2309 28.4896 59.2883 31.2049C57.2151 31.1079 55.1162 31.0574 53 31.0574C50.9038 31.0574 48.8204 31.1067 46.76 31.202C48.8194 28.512 50.9293 26.0128 53.0506 23.7455ZM34.2852 41.7665C33.2374 43.5661 32.2393 45.3794 31.2929 47.1961C29.9742 44.0982 28.8461 41.052 27.9246 38.1106C30.9489 37.4402 34.174 36.892 37.5346 36.4765C36.4214 38.1965 35.3357 39.962 34.2852 41.7665ZM37.6314 68.5711C34.1593 68.1874 30.8857 67.6675 27.8622 67.0156C28.7984 64.0216 29.9514 60.9103 31.298 57.7458C32.2469 59.5611 33.2489 61.3751 34.3031 63.1787C35.3769 65.0161 36.4895 66.8159 37.6314 68.5711ZM53.1759 81.2983C51.0296 79.0045 48.8889 76.4672 46.7981 73.7379C48.8278 73.8168 50.897 73.8572 53 73.8572C55.1606 73.8572 57.2964 73.8089 59.3987 73.7162C57.3345 76.4947 55.2504 79.0359 53.1759 81.2983ZM74.7892 57.5845C76.206 60.7832 77.4003 63.8783 78.3486 66.8212C75.2752 67.5157 71.9569 68.0751 68.4607 68.4907C69.5611 66.7634 70.6473 64.9812 71.7147 63.1479C72.7945 61.2931 73.8197 59.4355 74.7892 57.5845ZM67.7922 60.907C66.1352 63.7529 64.4341 66.4696 62.7071 69.0341C59.5617 69.2568 56.3121 69.3716 53 69.3716C49.7013 69.3716 46.4927 69.2701 43.4029 69.0714C41.6063 66.4734 39.8682 63.7486 38.2218 60.9314C36.5797 58.122 35.0687 55.2888 33.6993 52.4715C35.0684 49.6476 36.5757 46.8113 38.2084 44.0068L38.208 44.0074C39.845 41.1955 41.5678 38.484 43.3478 35.9022C46.5002 35.6661 49.7328 35.543 52.9998 35.543C56.2815 35.543 59.5185 35.6671 62.67 35.9052C64.4228 38.4681 66.1339 41.1708 67.7773 43.9831C69.4394 46.827 70.9662 49.6445 72.3469 52.4077C70.9703 55.2185 69.4469 58.0644 67.7922 60.907ZM77.1335 10.817C80.6831 12.8447 82.0635 21.0222 79.8333 31.7455C79.691 32.4298 79.5309 33.1267 79.3569 33.833C74.9592 32.8279 70.1837 32.0799 65.1839 31.6153C62.2713 27.5067 59.253 23.7715 56.2234 20.5378C57.0379 19.7616 57.8513 19.0215 58.6613 18.3231C66.4869 11.5769 73.8011 8.91346 77.1335 10.817ZM53 42.9877C58.2275 42.9877 62.4654 47.1854 62.4654 52.3638C62.4654 57.542 58.2275 61.74 53 61.74C47.7725 61.74 43.5346 57.542 43.5346 52.3638C43.5346 47.1854 47.7725 42.9877 53 42.9877Z" fill="#00D8FF"/>
</svg>
