<svg width="105" height="105" viewBox="0 0 105 105" fill="none" xmlns="http://www.w3.org/2000/svg">
<g clip-path="url(#clip0_339_163)">
<path fill-rule="evenodd" clip-rule="evenodd" d="M74.0405 15.3008C75.7611 17.0177 77.711 18.9624 77.711 18.9624C77.711 18.9624 85.7397 19.5595 86.1185 19.5923C86.5005 19.6251 86.9609 19.9172 87.0327 20.4455C87.1045 20.9737 98.4375 97.9814 98.4375 97.9814L70.628 104.027L74.0405 15.3008ZM69.7745 12.3839C69.5614 12.4115 69.3766 12.4535 69.248 12.4917C69.1794 12.5114 68.0302 12.8691 66.1266 13.4597C64.2623 8.07191 60.9744 3.1205 55.192 3.1205C55.032 3.1205 54.8655 3.12708 54.7023 3.13692C53.0567 0.951608 51.0193 0 49.2594 0C35.7846 0 29.346 16.9313 27.3282 25.5314C22.091 27.1622 18.3722 28.3205 17.8987 28.4714C14.9733 29.3934 14.8818 29.4854 14.4998 32.2515C14.2092 34.3482 6.5625 93.7815 6.5625 93.7815L66.1495 105L66.2129 104.986L69.7745 12.3839ZM54.2615 16.5638C54.2615 16.7705 54.2582 16.9608 54.2582 17.1511C50.9769 18.1716 47.4147 19.2806 43.8428 20.393C45.8475 12.6164 49.6055 8.85933 52.8934 7.44183C53.7195 9.5287 54.2615 12.5246 54.2615 16.5638ZM48.8872 3.63239C49.4717 3.63239 50.0561 3.83254 50.6177 4.21972C46.2981 6.26066 41.6715 11.4056 39.7157 21.6759C36.8588 22.5651 34.0672 23.4347 31.4846 24.2386C33.7734 16.403 39.2097 3.63239 48.8872 3.63239ZM51.2087 49.4222C51.2087 49.4222 47.7216 47.5518 43.4477 47.5518C37.1788 47.5518 36.8621 51.5058 36.8621 52.5C36.8621 57.937 50.9605 60.0206 50.9605 72.7519C50.9605 82.7662 44.6394 89.2171 36.1144 89.2171C25.885 89.2171 20.6544 82.8187 20.6544 82.8187L23.3938 73.7264C23.3938 73.7264 28.7713 78.3661 33.3097 78.3661C36.2711 78.3661 37.4792 76.02 37.4792 74.3072C37.4792 67.2164 25.9111 66.8981 25.9111 55.2464C25.9111 45.442 32.9146 35.9526 47.0523 35.9526C52.4984 35.9526 55.192 37.5212 55.192 37.5212L51.2087 49.4222ZM57.791 16.0519C57.791 15.6942 57.7943 15.3431 57.7943 14.9592C57.7943 11.6123 57.3306 8.91515 56.5895 6.77906C59.5705 7.15312 61.5556 10.5623 62.8322 14.4834C61.3368 14.9493 59.6358 15.4777 57.791 16.0519Z" fill="#81BF37"/>
</g>
<defs>
<clipPath id="clip0_339_163">
<rect width="105" height="105" fill="white"/>
</clipPath>
</defs>
</svg>
