<svg width="100" height="100" viewBox="0 0 100 100" fill="none" xmlns="http://www.w3.org/2000/svg">
<g clip-path="url(#clip0_336_12)">
<path d="M69.1406 61.2305L81.25 100L50 75.9766L18.75 100L30.8594 61.2305L0 37.5H38.2812L50 0L61.7188 37.5H100L69.1406 61.2305ZM69.3848 83.0078C68.1478 78.9714 66.9108 74.9674 65.6738 70.9961C64.4368 67.0247 63.1673 63.0046 61.8652 58.9355C65.2181 56.429 68.5221 53.9062 71.7773 51.3672C75.0326 48.8281 78.3203 46.2891 81.6406 43.75H57.1289L50 20.9473L42.8711 43.75H18.3594C21.6797 46.2891 24.9674 48.8281 28.2227 51.3672C31.4779 53.9062 34.7819 56.429 38.1348 58.9355C36.8327 62.972 35.5632 66.9759 34.3262 70.9473C33.0892 74.9186 31.8522 78.9388 30.6152 83.0078L50 68.0664L69.3848 83.0078Z" fill="#6BC0BC"/>
</g>
<defs>
<clipPath id="clip0_336_12">
<rect width="100" height="100" fill="white"/>
</clipPath>
</defs>
</svg>
