<svg width="105" height="105" viewBox="0 0 105 105" fill="none" xmlns="http://www.w3.org/2000/svg">
<path d="M29.5312 44.9531C32.5938 32.7031 40.25 26.5781 52.5 26.5781C70.875 26.5781 73.1719 40.3594 82.3594 42.6562C88.4844 44.1875 93.8438 41.8906 98.4375 35.7656C95.375 48.0156 87.7188 54.1406 75.4688 54.1406C57.0938 54.1406 54.7969 40.3594 45.6094 38.0625C39.4844 36.5312 34.125 38.8281 29.5312 44.9531ZM6.5625 72.5156C9.625 60.2656 17.2812 54.1406 29.5312 54.1406C47.9062 54.1406 50.2031 67.9219 59.3906 70.2187C65.5156 71.75 70.875 69.4531 75.4688 63.3281C72.4062 75.5781 64.75 81.7031 52.5 81.7031C34.125 81.7031 31.8281 67.9219 22.6406 65.625C16.5156 64.0937 11.1562 66.3906 6.5625 72.5156Z" fill="#44A8B3"/>
</svg>
