<svg width="100" height="100" viewBox="0 0 100 100" fill="none" xmlns="http://www.w3.org/2000/svg">
<path d="M45.8008 61.6875C49.9891 58.8992 53.1689 54.837 54.8699 50.1018C56.571 45.3665 56.7031 40.2095 55.2465 35.3934C53.79 30.5772 50.8223 26.3577 46.7822 23.3587C42.742 20.3597 37.8441 18.7405 32.8125 18.7405C27.781 18.7405 22.883 20.3597 18.8429 23.3587C14.8028 26.3577 11.835 30.5772 10.3785 35.3934C8.92197 40.2095 9.05401 45.3665 10.7551 50.1018C12.4562 54.837 15.6359 58.8992 19.8242 61.6875C12.248 64.4798 5.77777 69.647 1.37892 76.418C1.14773 76.7616 0.987145 77.1477 0.9065 77.5539C0.825855 77.9601 0.826758 78.3783 0.909156 78.7842C0.991554 79.19 1.1538 79.5755 1.38647 79.9181C1.61914 80.2607 1.91759 80.5536 2.26447 80.7799C2.61135 81.0061 2.99975 81.1612 3.40707 81.236C3.8144 81.3108 4.23254 81.304 4.63718 81.2158C5.04183 81.1276 5.4249 80.9598 5.76414 80.7223C6.10339 80.4847 6.39203 80.1821 6.61329 79.832C9.45075 75.4679 13.3334 71.8817 17.9087 69.3991C22.4841 66.9165 27.6071 65.6162 32.8125 65.6162C38.018 65.6162 43.141 66.9165 47.7163 69.3991C52.2916 71.8817 56.1743 75.4679 59.0117 79.832C59.4701 80.5132 60.1781 80.9867 60.9827 81.1501C61.7874 81.3134 62.624 81.1535 63.3117 80.705C63.9994 80.2564 64.483 79.5553 64.6578 78.753C64.8327 77.9508 64.6848 77.112 64.2461 76.418C59.8473 69.647 53.377 64.4798 45.8008 61.6875ZM15.625 42.1875C15.625 38.7881 16.633 35.4651 18.5216 32.6386C20.4102 29.8122 23.0945 27.6092 26.2351 26.3083C29.3757 25.0074 32.8316 24.6671 36.1656 25.3302C39.4997 25.9934 42.5622 27.6304 44.9659 30.0341C47.3696 32.4378 49.0066 35.5003 49.6698 38.8344C50.3329 42.1684 49.9926 45.6243 48.6917 48.7649C47.3908 51.9055 45.1878 54.5898 42.3614 56.4784C39.5349 58.367 36.2119 59.375 32.8125 59.375C28.2557 59.3698 23.887 57.5573 20.6648 54.3352C17.4427 51.113 15.6302 46.7443 15.625 42.1875ZM97.711 80.7422C97.0168 81.1948 96.1713 81.3532 95.3604 81.1825C94.5494 81.0119 93.8395 80.5261 93.3867 79.832C90.5527 75.4653 86.6705 71.8775 82.0942 69.396C77.518 66.9144 72.3933 65.618 67.1875 65.625C66.3587 65.625 65.5639 65.2958 64.9778 64.7097C64.3918 64.1236 64.0625 63.3288 64.0625 62.5C64.0625 61.6712 64.3918 60.8763 64.9778 60.2903C65.5639 59.7042 66.3587 59.375 67.1875 59.375C69.7186 59.3726 72.218 58.8112 74.507 57.7309C76.796 56.6506 78.8182 55.0781 80.429 53.1257C82.0398 51.1733 83.1995 48.8892 83.8253 46.4366C84.451 43.9841 84.5274 41.4236 84.0488 38.9381C83.5703 36.4526 82.5487 34.1035 81.0571 32.0586C79.5654 30.0137 77.6406 28.3235 75.42 27.1087C73.1994 25.894 70.7379 25.1847 68.2114 25.0315C65.6849 24.8783 63.1558 25.2851 60.8047 26.2226C60.4214 26.3884 60.0087 26.4756 59.5911 26.4791C59.1735 26.4826 58.7594 26.4024 58.3733 26.2432C57.9873 26.084 57.637 25.849 57.3433 25.5521C57.0495 25.2553 56.8183 24.9025 56.6632 24.5148C56.5081 24.127 56.4323 23.7121 56.4403 23.2946C56.4482 22.877 56.5398 22.4653 56.7096 22.0838C56.8794 21.7022 57.1239 21.3586 57.4287 21.0731C57.7336 20.7877 58.0925 20.5662 58.4844 20.4219C63.8651 18.276 69.8499 18.1987 75.2841 20.2051C80.7184 22.2114 85.2172 26.1592 87.9125 31.2868C90.6078 36.4143 91.3088 42.3584 89.8801 47.9723C88.4514 53.5862 84.9943 58.4721 80.1758 61.6875C87.752 64.4798 94.2223 69.647 98.6211 76.418C99.0738 77.1121 99.2322 77.9576 99.0615 78.7685C98.8908 79.5795 98.405 80.2894 97.711 80.7422Z" fill="#6BC0BC"/>
</svg>
