<svg width="106" height="104" viewBox="0 0 106 104" fill="none" xmlns="http://www.w3.org/2000/svg">
<path d="M9.83761 20.9219H96.1191C101.58 20.9219 106 25.2586 106 30.6162V62.9297C106 68.2874 101.58 72.6241 96.1191 72.6241H65.1775L69.4245 82.8283L50.7466 72.6241H9.88068C4.42043 72.6241 0.000318031 68.2874 0.000318031 62.9297V30.6162C-0.0431585 25.3012 4.37654 20.9219 9.83761 20.9219Z" fill="#9B5C8F"/>
<path d="M6.03651 29.7578C6.6398 28.9542 7.54453 28.5317 8.7511 28.4472C10.9489 28.2778 12.1986 29.2922 12.5 31.4909C13.8358 40.3268 15.3007 47.8099 16.8518 53.9398L26.2883 36.3106C27.1504 34.7039 28.2278 33.8585 29.5205 33.774C31.4165 33.6472 32.5796 34.8307 33.0537 37.325C34.1311 42.9475 35.5099 47.725 37.1471 51.7835C38.2675 41.0455 40.1635 33.3088 42.8351 28.5317C43.481 27.3479 44.4292 26.756 45.6789 26.6711C46.6701 26.587 47.5748 26.8828 48.3934 27.5169C49.212 28.1511 49.6431 28.9542 49.7292 29.9268C49.7723 30.6877 49.6431 31.3219 49.2986 31.956C47.6179 35.0001 46.2387 40.1156 45.1186 47.2176C44.0416 54.1088 43.6537 59.4782 43.9121 63.3254C43.9986 64.3817 43.8259 65.312 43.3953 66.1156C42.8777 67.0455 42.1026 67.5529 41.1113 67.6374C39.9909 67.7219 38.8278 67.2149 37.7073 66.0733C33.7 62.0567 30.5113 56.0536 28.1847 48.0634C25.3836 53.4747 23.3153 57.5331 21.9796 60.2387C19.4372 65.0162 17.2829 67.4684 15.473 67.5951C14.3095 67.6796 13.3186 66.7071 12.457 64.6782C10.2595 59.1398 7.88944 48.4437 5.34751 32.5902C5.17485 31.4909 5.43322 30.5183 6.03651 29.7578ZM98.6358 36.3951C97.0847 33.7317 94.8007 32.1254 91.7416 31.4909C90.9226 31.3219 90.1475 31.2374 89.4146 31.2374C85.2781 31.2374 81.9172 33.3511 79.2887 37.5789C77.0478 41.1722 75.9278 45.1462 75.9278 49.5007C75.9278 52.756 76.6172 55.5462 77.996 57.8715C79.5471 60.5349 81.8311 62.1412 84.8902 62.7754C85.7088 62.9448 86.4843 63.0293 87.2172 63.0293C91.3967 63.0293 94.7577 60.9156 97.3431 56.6877C99.5836 53.0518 100.704 49.0778 100.704 44.7237C100.747 41.4261 100.015 38.6778 98.6358 36.3951ZM93.2066 48.1057C92.6033 50.8958 91.5259 52.9673 89.9314 54.3623C88.6821 55.4617 87.5186 55.9264 86.4417 55.7152C85.4073 55.5039 84.5452 54.6162 83.8993 52.9673C83.3817 51.6567 83.1238 50.3462 83.1238 49.1201C83.1238 48.0634 83.2099 47.0064 83.4252 46.0342C83.8132 44.3007 84.5457 42.6095 85.7088 41.0032C87.1311 38.9313 88.6391 38.0863 90.1902 38.3821C91.2245 38.5933 92.0866 39.4814 92.7325 41.13C93.2497 42.4405 93.508 43.7511 93.508 44.9772C93.508 46.0765 93.4219 47.1335 93.2066 48.1057ZM71.6617 36.3951C70.1106 33.7317 67.7836 32.1254 64.7675 31.4909C63.9489 31.3219 63.1734 31.2374 62.4405 31.2374C58.304 31.2374 54.9431 33.3511 52.3146 37.5789C50.0741 41.1722 48.9537 45.1462 48.9537 49.5007C48.9537 52.756 49.6431 55.5462 51.0219 57.8715C52.573 60.5349 54.857 62.1412 57.9161 62.7754C58.7351 62.9448 59.5102 63.0293 60.2431 63.0293C64.4226 63.0293 67.7836 60.9156 70.369 56.6877C72.6099 53.0518 73.7299 49.0778 73.7299 44.7237C73.7299 41.4261 73.0405 38.6778 71.6617 36.3951ZM66.1894 48.1057C65.5861 50.8958 64.5088 52.9673 62.9146 54.3623C61.665 55.4617 60.5015 55.9264 59.4241 55.7152C58.3902 55.5039 57.5285 54.6162 56.8817 52.9673C56.365 51.6567 56.1066 50.3462 56.1066 49.1201C56.1066 48.0634 56.1927 47.0064 56.408 46.0342C56.796 44.3007 57.5285 42.6095 58.692 41.0032C60.1139 38.9313 61.6219 38.0863 63.173 38.3821C64.2073 38.5933 65.0694 39.4814 65.7153 41.13C66.2329 42.4405 66.4909 43.7511 66.4909 44.9772C66.5343 46.0765 66.4047 47.1335 66.1894 48.1057Z" fill="white"/>
</svg>
