<svg width="103" height="105" viewBox="0 0 103 105" fill="none" xmlns="http://www.w3.org/2000/svg">
<g clip-path="url(#clip0_339_170)">
<path fill-rule="evenodd" clip-rule="evenodd" d="M0 52.4984C0 73.2792 11.8453 91.2381 29.0243 99.7466L4.45813 31.1334C1.60301 37.66 0 44.8857 0 52.4984ZM86.2659 49.8503C86.2659 43.3598 83.9772 38.8677 82.0202 35.373C79.4097 31.0449 76.9602 27.3829 76.9602 23.0581C76.9602 18.2312 80.5491 13.739 85.6092 13.739C85.8377 13.739 86.0534 13.7685 86.2755 13.7816C77.1146 5.22386 64.9055 0 51.499 0C33.5056 0 17.6786 9.41091 8.46945 23.6618C9.67974 23.7012 10.8192 23.7242 11.7849 23.7242C17.17 23.7242 25.5101 23.0581 25.5101 23.0581C28.2847 22.8907 28.613 27.0515 25.8383 27.3829C25.8383 27.3829 23.0476 27.7175 19.9446 27.8849L38.6977 84.7508L49.9701 50.2933L41.9487 27.8849C39.1741 27.7175 36.5443 27.3829 36.5443 27.3829C33.7696 27.2155 34.0947 22.8907 36.8726 23.0581C36.8726 23.0581 45.3768 23.7242 50.4368 23.7242C55.822 23.7242 64.162 23.0581 64.162 23.0581C66.9398 22.8907 67.265 27.0515 64.4903 27.3829C64.4903 27.3829 61.6964 27.7175 58.5966 27.8849L77.208 84.3177L82.3485 66.8214C84.5695 59.5565 86.2659 54.3424 86.2659 49.8503ZM96.691 27.3117C96.9131 28.9852 97.0387 30.7768 97.0387 32.7096C97.0387 38.0352 96.0602 44.0236 93.1214 51.5149L77.3908 97.8771C92.7029 88.7779 103 71.8659 103 52.4993C103 43.3706 100.711 34.7899 96.691 27.3117ZM52.4035 57.0909L36.9498 102.863C41.5656 104.247 46.4454 105.002 51.499 105.002C57.4957 105.002 63.2478 103.945 68.6008 102.026C68.4656 101.799 68.3368 101.563 68.2338 101.304L52.4035 57.0909Z" fill="#00759D"/>
</g>
<defs>
<clipPath id="clip0_339_170">
<rect width="103" height="105" fill="white"/>
</clipPath>
</defs>
</svg>
